<mxfile host="app.diagrams.net" modified="2022-02-15T11:52:40.986Z" agent="5.0 (Windows NT 10.0; Win64; x64) AppleWebKit/537.36 (KHTML, like Gecko) Chrome/98.0.4758.82 Safari/537.36" etag="j7n5jQ9yiZGC2P1V0IV7" version="16.5.3" type="github">
  <diagram id="f0N5jgijeRp7pzb3xFi8" name="Page-1">
    <mxGraphModel dx="1756" dy="976" grid="1" gridSize="10" guides="1" tooltips="1" connect="1" arrows="1" fold="1" page="1" pageScale="1" pageWidth="827" pageHeight="1169" math="0" shadow="0">
      <root>
        <mxCell id="0" />
        <mxCell id="1" parent="0" />
        <mxCell id="DAwnzCCg3xPXXSGTNgWg-4" style="edgeStyle=orthogonalEdgeStyle;rounded=0;orthogonalLoop=1;jettySize=auto;html=1;strokeWidth=2;" edge="1" parent="1" source="KQoBbKr8loIZGkBwd2ff-26" target="KQoBbKr8loIZGkBwd2ff-27">
          <mxGeometry relative="1" as="geometry" />
        </mxCell>
        <mxCell id="nyfK1TEQBVx0Vw7CGjJu-92" value="" style="rounded=1;whiteSpace=wrap;html=1;fontSize=17;fillColor=#f8cecc;strokeColor=#b85450;" parent="1" vertex="1">
          <mxGeometry x="15" y="670" width="1300" height="470" as="geometry" />
        </mxCell>
        <mxCell id="nyfK1TEQBVx0Vw7CGjJu-1" value="&lt;b style=&quot;font-size: 17px;&quot;&gt;&lt;font style=&quot;font-size: 17px;&quot;&gt;Raw reads (.fastq.gz)&lt;/font&gt;&lt;/b&gt;" style="rounded=0;whiteSpace=wrap;html=1;fillColor=#f5f5f5;fontColor=#333333;strokeColor=#666666;fontSize=17;" parent="1" vertex="1">
          <mxGeometry x="15" y="150" width="250" height="80" as="geometry" />
        </mxCell>
        <mxCell id="nyfK1TEQBVx0Vw7CGjJu-2" value="&lt;font size=&quot;1&quot;&gt;&lt;b style=&quot;font-size: 75px&quot;&gt;Metagenomics analysis pipeine&lt;/b&gt;&lt;/font&gt;" style="text;html=1;strokeColor=none;fillColor=none;align=center;verticalAlign=middle;whiteSpace=wrap;rounded=0;fontSize=41;" parent="1" vertex="1">
          <mxGeometry x="160" y="33.29" width="1150" height="78.5" as="geometry" />
        </mxCell>
        <mxCell id="nyfK1TEQBVx0Vw7CGjJu-3" value="" style="rounded=1;whiteSpace=wrap;html=1;fontSize=17;fillColor=#d5e8d4;strokeColor=#82b366;" parent="1" vertex="1">
          <mxGeometry x="15" y="250" width="250" height="379.88" as="geometry" />
        </mxCell>
        <mxCell id="nyfK1TEQBVx0Vw7CGjJu-6" value="&lt;b style=&quot;font-size: 22px;&quot;&gt;Quality control &lt;/b&gt;&lt;br style=&quot;font-size: 22px;&quot;&gt;(kneaddata)" style="text;html=1;strokeColor=none;fillColor=none;align=center;verticalAlign=middle;whiteSpace=wrap;rounded=0;fontSize=22;" parent="1" vertex="1">
          <mxGeometry x="-20" y="280" width="320" as="geometry" />
        </mxCell>
        <mxCell id="nyfK1TEQBVx0Vw7CGjJu-7" value="&lt;font style=&quot;font-size: 14px;&quot;&gt;&lt;b style=&quot;font-size: 14px;&quot;&gt;Trimmomatic v0.39&lt;br style=&quot;font-size: 14px;&quot;&gt;&amp;nbsp;- trim adapters&lt;/b&gt;&lt;br style=&quot;font-size: 14px;&quot;&gt;- HEADCROP:15 &lt;br style=&quot;font-size: 14px;&quot;&gt;- SLIDINGWINDOW:4:15 &lt;br style=&quot;font-size: 14px;&quot;&gt;- MINLEN:50&lt;/font&gt;" style="rounded=1;whiteSpace=wrap;html=1;fontSize=14;align=left;spacingLeft=15;" parent="1" vertex="1">
          <mxGeometry x="25" y="310" width="230" height="100" as="geometry" />
        </mxCell>
        <mxCell id="nyfK1TEQBVx0Vw7CGjJu-9" value="&lt;p style=&quot;line-height: 1.2; font-size: 14px;&quot;&gt;&lt;/p&gt;&lt;div style=&quot;font-size: 14px;&quot;&gt;&lt;b style=&quot;font-size: 14px;&quot;&gt;&lt;font style=&quot;font-size: 14px;&quot;&gt;Bowtie2 v2.4.5&lt;/font&gt;&lt;/b&gt;&lt;/div&gt;&lt;div style=&quot;font-size: 14px;&quot;&gt;&lt;span style=&quot;font-weight: bold; font-size: 14px;&quot;&gt;- human genome decontamination&lt;/span&gt;&lt;/div&gt;&lt;font style=&quot;font-size: 14px;&quot;&gt;&lt;div style=&quot;font-size: 14px;&quot;&gt;- GRCh 38&lt;/div&gt;&lt;/font&gt;&lt;p style=&quot;font-size: 14px;&quot;&gt;&lt;/p&gt;" style="rounded=1;whiteSpace=wrap;html=1;fontSize=14;spacingLeft=15;align=left;" parent="1" vertex="1">
          <mxGeometry x="25" y="540" width="230" height="72.46" as="geometry" />
        </mxCell>
        <mxCell id="nyfK1TEQBVx0Vw7CGjJu-16" value="" style="endArrow=classic;html=1;rounded=0;fontSize=14;exitX=0.5;exitY=1;exitDx=0;exitDy=0;entryX=0.5;entryY=0;entryDx=0;entryDy=0;strokeWidth=2;" parent="1" source="nyfK1TEQBVx0Vw7CGjJu-1" target="nyfK1TEQBVx0Vw7CGjJu-3" edge="1">
          <mxGeometry width="50" height="50" relative="1" as="geometry">
            <mxPoint x="365" y="429.88000000000005" as="sourcePoint" />
            <mxPoint x="415" y="379.88000000000005" as="targetPoint" />
          </mxGeometry>
        </mxCell>
        <mxCell id="DAwnzCCg3xPXXSGTNgWg-7" value="" style="edgeStyle=orthogonalEdgeStyle;rounded=0;orthogonalLoop=1;jettySize=auto;html=1;strokeWidth=2;" edge="1" parent="1" source="nyfK1TEQBVx0Vw7CGjJu-20" target="nyfK1TEQBVx0Vw7CGjJu-44">
          <mxGeometry relative="1" as="geometry" />
        </mxCell>
        <mxCell id="nyfK1TEQBVx0Vw7CGjJu-20" value="&lt;b style=&quot;font-size: 22px;&quot;&gt;Binning&lt;/b&gt;&lt;br style=&quot;font-size: 22px;&quot;&gt;(MetaBAT2)" style="rounded=1;whiteSpace=wrap;html=1;fontSize=22;fillColor=#ffe6cc;strokeColor=#d79b00;" parent="1" vertex="1">
          <mxGeometry x="670" y="290" width="250" height="80" as="geometry" />
        </mxCell>
        <mxCell id="nyfK1TEQBVx0Vw7CGjJu-22" value="&lt;b style=&quot;font-size: 22px;&quot;&gt;Assembly&lt;/b&gt;&lt;br style=&quot;font-size: 22px;&quot;&gt;(MetaHIT)" style="rounded=1;whiteSpace=wrap;html=1;fontSize=22;fillColor=#fff2cc;strokeColor=#d6b656;" parent="1" vertex="1">
          <mxGeometry x="340" y="290.00000000000006" width="250" height="80" as="geometry" />
        </mxCell>
        <mxCell id="nyfK1TEQBVx0Vw7CGjJu-28" value="" style="shape=image;imageAspect=0;aspect=fixed;verticalLabelPosition=bottom;verticalAlign=top;fontSize=18;image=data:image/png,iVBORw0KGgoAAAANSUhEUgAAAY8AAADZCAYAAADYOry5AAAACXBIWXMAAAsTAAALEwEAmpwYAAAF8WlUWHRYTUw6Y29tLmFkb2JlLnhtcAAAAAAAPD94cGFja2V0IGJlZ2luPSLvu78iIGlkPSJXNU0wTXBDZWhpSHpyZVN6TlRjemtjOWQiPz4gPHg6eG1wbWV0YSB4bWxuczp4PSJhZG9iZTpuczptZXRhLyIgeDp4bXB0az0iQWRvYmUgWE1QIENvcmUgNi4wLWMwMDIgNzkuMTY0NDg4LCAyMDIwLzA3LzEwLTIyOjA2OjUzICAgICAgICAiPiA8cmRmOlJERiB4bWxuczpyZGY9Imh0dHA6Ly93d3cudzMub3JnLzE5OTkvMDIvMjItcmRmLXN5bnRheC1ucyMiPiA8cmRmOkRlc2NyaXB0aW9uIHJkZjphYm91dD0iIiB4bWxuczp4bXA9Imh0dHA6Ly9ucy5hZG9iZS5jb20veGFwLzEuMC8iIHhtbG5zOnhtcE1NPSJodHRwOi8vbnMuYWRvYmUuY29tL3hhcC8xLjAvbW0vIiB4bWxuczpzdEV2dD0iaHR0cDovL25zLmFkb2JlLmNvbS94YXAvMS4wL3NUeXBlL1Jlc291cmNlRXZlbnQjIiB4bWxuczpkYz0iaHR0cDovL3B1cmwub3JnL2RjL2VsZW1lbnRzLzEuMS8iIHhtbG5zOnBob3Rvc2hvcD0iaHR0cDovL25zLmFkb2JlLmNvbS9waG90b3Nob3AvMS4wLyIgeG1wOkNyZWF0b3JUb29sPSJBZG9iZSBQaG90b3Nob3AgMjIuMCAoV2luZG93cykiIHhtcDpDcmVhdGVEYXRlPSIyMDIyLTAyLTA1VDEwOjA1OjAxKzAxOjAwIiB4bXA6TWV0YWRhdGFEYXRlPSIyMDIyLTAyLTA1VDEwOjA1OjAxKzAxOjAwIiB4bXA6TW9kaWZ5RGF0ZT0iMjAyMi0wMi0wNVQxMDowNTowMSswMTowMCIgeG1wTU06SW5zdGFuY2VJRD0ieG1wLmlpZDo5OTMyMzY3ZS0zOGQzLTJmNDMtYjgyNy1hNWI5MThiMmM1NmYiIHhtcE1NOkRvY3VtZW50SUQ9ImFkb2JlOmRvY2lkOnBob3Rvc2hvcDozZjUyM2Y2Ny1jNDc2LTA5NDEtYTg2MS1mNTQ5M2IwYjRjZWYiIHhtcE1NOk9yaWdpbmFsRG9jdW1lbnRJRD0ieG1wLmRpZDphMGViZDZkMS0xNTIwLTdjNDMtODZmMi05NmFjM2U0YzQwYmEiIGRjOmZvcm1hdD0iaW1hZ2UvcG5nIiBwaG90b3Nob3A6Q29sb3JNb2RlPSIzIiBwaG90b3Nob3A6SUNDUHJvZmlsZT0ic1JHQiBJRUM2MTk2Ni0yLjEiPiA8eG1wTU06SGlzdG9yeT4gPHJkZjpTZXE+IDxyZGY6bGkgc3RFdnQ6YWN0aW9uPSJjcmVhdGVkIiBzdEV2dDppbnN0YW5jZUlEPSJ4bXAuaWlkOmEwZWJkNmQxLTE1MjAtN2M0My04NmYyLTk2YWMzZTRjNDBiYSIgc3RFdnQ6d2hlbj0iMjAyMi0wMi0wNVQxMDowNTowMSswMTowMCIgc3RFdnQ6c29mdHdhcmVBZ2VudD0iQWRvYmUgUGhvdG9zaG9wIDIyLjAgKFdpbmRvd3MpIi8+IDxyZGY6bGkgc3RFdnQ6YWN0aW9uPSJzYXZlZCIgc3RFdnQ6aW5zdGFuY2VJRD0ieG1wLmlpZDo5OTMyMzY3ZS0zOGQzLTJmNDMtYjgyNy1hNWI5MThiMmM1NmYiIHN0RXZ0OndoZW49IjIwMjItMDItMDVUMTA6MDU6MDErMDE6MDAiIHN0RXZ0OnNvZnR3YXJlQWdlbnQ9IkFkb2JlIFBob3Rvc2hvcCAyMi4wIChXaW5kb3dzKSIgc3RFdnQ6Y2hhbmdlZD0iLyIvPiA8L3JkZjpTZXE+IDwveG1wTU06SGlzdG9yeT4gPC9yZGY6RGVzY3JpcHRpb24+IDwvcmRmOlJERj4gPC94OnhtcG1ldGE+IDw/eHBhY2tldCBlbmQ9InIiPz5IAXqnAACABElEQVR4nO2de1xT9/3/X4qAwIkEY7EgkKBtaBuooVgpDjGRbl25GceqgtuAVam0/Q6Q2mntuLVe+vMCbK2odSNsE9TOgVzcug4TlUp1UGORtrBVErBQqdFgAgii/v4I5zSBAElIuOh5Ph4+Wk7O5RNIzuu879Pu378PGhoaGhoaU5gx0QugoaGhmYIQANgD/9VFA0Ax8N8HGlo8aGhoaIyHFA2eXC6Plkql7EuXLkEmkwEAVqxYoUhJSSkEcAYPuIDQ4kFDQ0MzOpRoiMXi6MLCQp5UKmUH+y4ilvotQuKSFQCAHb/fzwOAlJQUBYCGiVuu9aHFg4aGhmZ4KNHIzMyMzsvL482yc2RvidlA/DnxHTg7MagdO7vUAACVSjUhCx1vptEBcxoaGpohUKJRWloanZqaymNMs2fvXLeJCPZdNGTnzi41wreu0wQsCzpTUFDwAR4CtxUtHjQ0NDT6EABCVCpVXEJCAk/ySRV757pNROzyqGEPCE5Z/VAJB0C7rWhoaGh0IQCESKXS11auXBnyIx9/ov7Dk3ruqcEUnSqDjbODoqCg4KEIlJNMn+gF0NDQ0EwSCAAhYrH4NaFQGLL55+uJordyhhWOyvMStHS0oeIzCZKTkx+aFF0S2vKgoaGhGRCOhISE10o+Oh5SnXuU8PP2GbJTZ5ca+eWHcbiqDJ1datR/eBJeru6Qy+VkjKQBD4mA0JYHDQ3Nw46ecFRuOzREODq71Nh5ZD+8Ypfi8/Of4eecAPh5+8DZiYFXo9Yid/detlgsjgMQBoCHocWDDxy05UFDQ/MwQwAIyczMHFY4Ks9LkJSXjufmLkBN3A54MFi4qlbib//4AwDAy9UdldsOEeGvrwu5dOkSOyMjo4HJZD7w8Q/a8qChoXlYIQCElJaWvpa7e69B4cgvP4wNe7Ziz7Jf4lDYq/BgsAAAHgwW5tkysPPIfgCAn7cPqnOPErX/rub5+/uHSaXS1/CAWyE2mZmZE70GGhoamongcblcnvziiy8+v/PXbxDPP/MjvReLTpUh4085OLYyDUHzhsY/gjx88JuP/oBHWY9QLqy1oVFA/127199Kc7v2fQf/ueeee2rmzJkqAO0A+sblXY0TdJ0HDQ2NpTHUNHCyZSMRAMKEQmH6k4x5vJ3rNum9WH25FjHZv8GxlWngzfEc9iQfX5Fh3cl9yE/Ohm4dSH1zI5Ly0mHj7KApKSk5w+FwHrj6D9ptRUNDY0kIACHTpk1LnzZtWp5QKMzLzc3Nk8vl6Zhcbhy2WCyOvvJlE3tLzIYhL24+tAsbF0eOKBwA8MJ8PvY+H4+kvHQUnSqjtg+4sfDUbC/C398/RCaTvQYgBJPjvVsE2m1FQ0NjSR6XSqXJn5/5LKx2X+n8R+xneUhPSTzWpbzKvnTpEv/RRx99isPh9A/s24OJceUQAH60cuXKlzb/fL3Hsz5P671YfbkWH31Shg9eWG/UyXhzPOE5i4W3/36AcmGRRDwnxFzn2Xa/TN3g9tOf/nTuo48+2oEHxIVFZ1vR0NBYEkIul7O9XN0JZycGwgOFCA8UYue6TUR++WGeKCKK7f9sAC8nJ6eBz+cfh7YuYrzdWWyxWBx9r7uPbajlyOGqMrzgzTfphC89sQRPzfHEqv07AUDPhTXw/4RQKAyRSCTg8/nAA+DCot1WNDQ0FuXSpUt4ev4PT9/1zY0AgM1rNqD+w5NEkNsTPH9//7DU1NR0lUqVjvF15xAAeIWFhbwtMRsMXrO+uREvzPc3+cS8OZ44tjINv92/U8+FBWgFJOnFNURCQkKISqWKgzYmNKWhxYOGhsZSEADYUqlUr/Ps5kO74Lc+DPnlh+HsxKBEpPbf1TyhUBg2zvEANjnEKTxQaHCH+uZGBM3jmnXykQRk85oNIPpnELm5uTxMntiP2dDiQUNDYynYKpUqWiaTsXX9/kv9FuEppjv+UnoE4VvXobNLTRbW4cUnnyOEQmGIWCweLwEhBoSDGKnZ4VjgzfHE3lBtEJ20ukjyk7ORlZXFlsvl0Zji1gctHjQ0NJaCIKfr6d6Yg30X4VZvN46tTIPbXTv4rQ/Tc2Ud3rSbSHn9NyG5ubnjIiCnT5/GUr+hMzksCZmFRYoliZerO2KXRxFZWVmG5p9PKWjxoKGhsRgnTpxAxHP67qBg30VouN6KWfaO2Bsaj4ygaIRvXYfK8xLq9cpth4jMt9NDEhISrC4gcrkchpoeWpqXnliCn3j5ISkvXW/7lpgNKC0tNVQLM6WgxYOGhsYSEADYpaWlhKFYgperOxqutwLQ3lQzgqIRuz2Vigv4efugctsh4tTJf1ldQKRS6ajicVWttMi1MoNX4dJXX1BCCWh/F54uc9mlpaVT2nVFiwcNDY0lYIvF4mhPl7lsL1f3IS96ubrjVm8P9fNLTyyhiutIF5aftw+K3sohSj46bnUX1kjxjmDfRWi9ZRnxmGXviMzg1dh8aJfe9ojnhMSJEydoy4OGhuahhkp/fTVqrdE3Q1JAwreu0xMQ0oU1jkF0Pfy8ffDZt42j72gkL8znY54tQy/7Kth3EWQymcWuMRHQ4kFDQzNW2HK5PPrif+qGTX8djpeeWIKXeQLEbk+lAst+3j7IT84mUlNTJ6Stx1K/Raj5tsmi53x5YSh2FO+nfvbz9qHFg4aG5qGGAMDLysrimZv+mro4Ek8SrnqB5fBA4YQV1QX7LkLNt4241dttsXO+MJ+Pe7d7UX25FgDlNpvSQXNaPGhoaMYCW6VSRZeWlhpsMGgse0PjcemrL5BffpjaRhbVZWVlWbSojs/nUzdxQ5BtVT5ullnichQvePNR8dkPgXM/bx+2VCqdskFzWjxoaGjMhQDAy83N5fl6PEYYCpQbizaNNwE7ivejpaON2p6fnI2CD/9o0Zssh8PRu4YhIp4T4qOvaixxOYqXnlyil3Xl7MSgLQ8aGpqHErZKpYrOy8sbk9VBEjSPi58/tljPfeXl6o4tMRuIhIQEi1kfCxcuxNn64S0PQOs2+1LVZrGUXUBbed7S0aZXNDiVocWDhsZyENDe4AJH+DflexoNoGd16PayMkR9cyM8Z7FGPenGxZH44r9f6j2hJ0WuhQcxh52ZmRmHsQfPNSKRSFF9uXbEjrak6+qQ7N9juNRQgub5UJll9c2N4HA4hj4zU+IzQrdkp6EZG7quB7ZcLo+Wy+VsqVQ6ZEc+nw8+n6/gcDjH8UMb8sk0Xc8UKKvj8Kbdo+7c2aWm5n+PxCx7R2QuXYXNh3ZBN3NrS8wGYu2uN0JSUlI0TCZTAW0rd3NQ8Pn849Md7Xj1zY083WLBzi613o0dAD76ugbO9o7U2p4aGA7Fm+OBWQPbTWGWvQNaOtpQeV6Czi41EhIS2AA2YuAzsGzZMohEIsUEtqs3Glo8aGhMR08wZDJZdGFhIbu0tJSQy+WUD/vRGXbg2zvh0Rl2AIATvV34750e3iOenrzk5GRNfHy8gslkFmLqzXYw2erwMMLqIHnpiSX4o6wKRafKqLkYwb6LEPZMCJGbm8vLzMzkwbybKvV3E4lE2FG8H0v9FuFsfS2qL9eis0tNzSL3cnUHe647XvvZr6iDm6614d//lQIAqku0bq+geT7wmMUCb44nnpvHHXXy4Cx7RyTlpYPP5yMzMxPLli0jLQ/I5XKcPn0aQqGQx+fzeRkZGQ0CgWDSfj7oGeY0NMYxxMLIy8tjl5aWEkqlkh0REUH4+Pjg4MGDcL1xC3HOc8G3dzJ4ouqeWziuvg75zBmagoKCMyKRqBCT/ClzEDyVSpXu7e0ddnjT7lHFo/pyLd7dtwvHVqYZfYGab5vwxqdFqP/wJLWtpaMNfuvDNDdv3jzJZDKzYbz1Qf7teANCzystLWXf6+4jgn0XYanfIvh5+5jc74q0VKov1+KLK42ob26EqlOFoHlcvDCfrxWWAWvrVm83VpXsga0HCzk5ORAIBCOeOzc3F1lZWZr4+PgzOTk5k3L+OS0eNDTDM0QwSktL2YWFhcQ333zDFggEhFqtxu7duyGVSvHGG2/gNRd3rJnjhnlcNuxm2lEn6rvdhy7VLag6bqK/9w4ArYjsvNGqeemXv1Tk5OQ0TLAVYmzmjwbAo7m5uduO//FwYOW2Q6OeeOeR/ej48r/IXLrapAUF/XkLtiYk603lS8pLx+NL/RsyMzOzAZzEyL8rSjTEYnF0YWEh7+J/6tixy6OItaFRVmmOSLqkztbXovK8BLw5nnjpySX46KtzeDYiFAUFBUafSy6XY+XKlRo+n3+moKBg0gkILR40NIYhAISoVKo4sVjMLiwsJGQyGVsgEBAREREQCASoqKgAl8sFg8FAbGwsXrVjYs38BZjvP/JNSa3sxHffXIX6xi1o7t1FascVEE/5aCQSialP1GNliDhKpVL26dOnIZfLqZ2YTCYWLlwIgUAAPp+vYDKZX3t7e0d/sP5t3mhWB6C94T+quY/UxZEmLe6jr8+h4JsaVOcepbbVNzciIvMVTXNz80i/K0o0pFJpdEJCAu9edx97S8wGwtDYWWtSeV6C2O2piI+PN0k4SFQqFfz9/TXJyclnUlJSJpWA0DEPGhrDT91sqVQaJxQKQwQCASESiZCTkwMGQ1tB3d3dje7ubnC5XLzyyiuInu6IiNmuYPstoE4wzcEB05hM3O/qxv1bndR2BssZDJYz1MpONH/xX+S4zkfql41EQkICr6SkxFx/vjnvlSrwO3HiBFFaWsoOCAgg6urqAACP2TngMduZYM6ww/lPTuPwjv+H//X18Ph8fiBjmj3LGOEAtE/joscFJi/0pSeWIPPsMdQ3N1JWgp+3D3w9HiNKS0vZ8fHxhqwkAkCIXC6PS0hI4F35smlCRIOkpaMNfD7fLOEAtMJdUlJC+Pv7h4hEIg2HwxlLsoBFoS0PmocZ6glV5yYKDocDlUpFiMVidmJiIpGYmDjkwKqqKvD5fMjlcmx89VUccXsCbnNc8PhiHrXPDF8/wNYWAHC34TLu9/UNOc/d/n40nJVB1XMb67/7r+a3u96z1hOmofdKlJaWsgUCASEQCKBWq3Hw4EH86N4MxDnPpQL9umju3cWa9q+x+/UMGHtDdl7BR03cDqOyrQaTefYoelhOyE/OprYVnSrDeyf+1NDc3KzruqLeX25ublxWVlZIzNJwYkvMhhE76Fobr9ilKK0oGzXGMRoJCQkAcL6goCAZwHkLLG3M0JYHzcOG3pN3aWlp9IkTJ3ilpaVsV1dXwsfHB59++ikAICYmBj/5yU8MnkSpVILFYuH999/Hi44uIKbbwN5p5rAXvd2pxo2268MvaroNfsvyJLKyskLi4+PHmo6qd2oM3FQHv9fQ0FC89dZb+NnPfoaKigrsz83Fu3M4WOrmhtnzXPViNhqVBj23NJC1tILFmmu0cJAFceYIBwCs4z+Pn/5tu9622OVR2HxoF1smk0Xz+Xwy0SBEpVLFrVy5kqdUtLMrMg8Q4zHwaSQqz0vg/fgCk4VDLBYjNTUVKpUKmZmZyMjIQEZGBvz9/YmCggI2tJ+LCXdd0eJB8zBgSDDYpaWlhKurKzsyMpL4y1/+Ajc3N3zyySeUv9/Ozg4cDmfEE9fV1WGTozMAQNVxE14DhkdvTy++k5yD8xOPQXP1O7Se/nzURfLtncDpvEbk5uayMzMzzS0SG+yCY8vl8mh/f3/e4PdaWFiIn/70p5BKpdj1zjvIfWQ+nlvAhhdvwZCTMlja97irsx1rA4x3AdU3NyJonvk3cQ8GCx4OTFSel+jVfcQujyIKCwvZfD7/UWjTpV8TCoUhYc+EEH/e9s6EWhskZ+trIRKJTD5uwMoAAGRmZiIuLg4cDgccDoctlUqjBQJBAyaB64oWD5oHlWFrMfr6+tjLli0j9u3bBy6Xq3eQbqCYxTL8tKxUKuHoqC0Qa2trA9/raQBAf+8dfCGphYOTA9Q3bmlfr7ts0qKjGXPwx8JCIjMz05QnzCHvVaVSseVyOfLy8ojW1la2SCQiXn/9deqApqYmcLlc3L17F1lZWdg82xNPMGbpCce0Wc6Y5uSI+0ol5XKrULTi002miYcpNR6GeOnJJaj4TF881oZGISLzFSInJydELBYvSkhICMlPzp6w2IYh6psbsWrjOpOO0f386W7jcDjg8/mEVCplCwSCSVF9TosHzYPEqIKxffv2IYJB0t7ervezu7vhRn9KpXLYc/T33oF6IBXXHIIdZmFnawNbLpdHczickZ4wR3yvdnZ2hJubG5588kkEBgZizZo1egfLZDKsWrUKxcXFWHDnPoJdZuERLzfq9Wl2drBZMCAkrDnov1yPqqutYLt7wpQGiIprbfA002VF8tw8LnLKc/W2+Xn7YJadIzshISGu5KPjrMpth0atN5kKcDgcCAQCkB0K+Hw+5fbicDiYTDFqWjxopjqj1mK8/vrrRvmdlUr9Jnh2dkMDxuPB47YOhEwmYw/0PdJlyHsl04iVSiVbIBAQW7ZsQUBAAI4cOQK1WhtvYLFYVJYYSU+PdiRseXk5fsmYM3QRNjbU/969ew9qZSf+eUWOiOdMG/ZU39yIeK/FJh0zGN4cTzBs7PSyrgAgPFBIFH10nKjcdsgqNRsThUQiocRjrIF2a0KLB81UZFTB+MUvfmHyF69vUDbUcG4rDw8P1NTUDGt9jJXHbGdCJpOR/nKTxVGpVFLCAWBI3IZ0WanVajQ1NSF4wO125/Ztap9bV7/D7RvdIDweherC52j/bwsudLRg2y9Ne7rv7FKb1QNqMEHzfFB9uVZPJCKeE6LyvGRSC4dKpTLrOEOfXZlMhhUrVoxtQRaEFg+aqcKI9QlkLcayZcuGPGUbi+4NdyQcHR2pJ3dAm75KTLcZ4QjTGDgX2fOIeq95eXlUoeJI4jjY/ebm5jZkHxaLhaamJvBn/mDcXG/tQFdnFwCg51bXkGNktzUm36jrmxvBez7JpGMMETSPi6r6WiRFrqW2BfsuQmeXGi0dbSa50oylpaMN9c2NVJNEQNsi3thWJkv9FuH06dNmBc0NIZPJNBkZGZOmhQ0tHjSTnVHrE5KTk80WDF0Gi4darTZ44wW0RYIAEBAQAFmLEsEOs8Z8fV06OzvZYrF444kTJ6ArjrqFisMxWDwGW1BNTU1Yvnw5vvrqqyHHGhINXczJYrKU5ZH1t+NDtgf7LkL15VqjU4dHo7NLjfzywzhcVYZbfd16MQcA+Fj2Od478Sfc/F6J8EAhtsRsGFa4wgOF+EXub5GTkzPmdQ24sZR8Pr8WgOWGjIwBWjxoJiMGazHEYjGby+USkZGRKC8vH/bGbi729vZ6P2s0oz/gcblcXGr6xKLi8V1/H8S5uQSXy+XFxsaaLI69vb16P09U7MaSeDBYuN9/d4iVQXbFtYR47DyyH/vKDmPlS9HIO/DBiBaDTCZDYWEhlm6KRdgzIdi5btMQYfXz9gFjmj1yc3ORkpIyprVlZWUBAEulUi1iMpknAXxn5KEj9Swb00gAWjxoJguj1mJYQzB0YbFYeqmSI7mxuFwuZDIZIiMjsfGj43jNxXJuk//duY3du3ebHSwdHPgfDJfLxdWrV80690RCTuLTFY9g30XYV3Z4hKNGp7NLjfCt62Dj7ABp9Rnw+fxRjxmYzYKMjAwkJCTAb30YDAXud67bhLVZb0AkEo1aMzQcYrEYV75sgperO5GamsorKCgwtoUN1aolKyuLLZfLqbTfFStWYKwjAehJgjQTie4UtTCZTJaempqa5+Likv7aa6+F9fb2Bv7lL3/hFRUVETExMVYVDkOMdBPm8/lU4Hm66xz8s+umRa6puXcX/+vrQUBAgNnnGBz4NwTpdvuuf/R9dZnIEapPzfFA9WX98bF+3j5o6WgbdSb5cHR2qRGcshoBy4Jw8eJFo4RDl4HeU8h9//cI37pOLz4CaMUtZmk4Vq5caVbwXCaTITU1FfnJ2Sh6KwenTv6LnZubO9pERfJ7FZabm/vawid4YbO/VAZufnRp4P7nfhkYNYMTeGz3/kBvb++w0tLS10Y517DQlgfNeGNW8d54MFiclEol+vr6hnX7ODo6QqlUIjExEfvf3Y6fOrmYdd05nq6YO98DDac/R3XPLQgEAovEcIaDy+WioqICERER+K6/z+iAP38mgfrmRkxUPYXnrDm4phkqXsG+i1Df3Ghy0Jy0OJaH/cTsxoUk8fHxAIDw19cNsUB2rtuEpLx0CIVCFBQUGC1QZJuSHXEbqd950Vs5RHDK6hCBQKDh8/mGWthQ3aBTU1N5/6moYh9bmUboDqnizfHES08swcdXZETcmrUhv05KJOMyJlkgtOVBMx7oWRhyuTw9Nzc3z9vbOz0kJCTsm2++CdyyZQuvrKyMSEtLmxDhAAyn5hqq+CVZvnw5qqqqEBERgemuc/A39fC9q4bD7XEvePEWQDNQkV7YeW3Muf2DhceQJUJaHlwuF7LekYPkJI/ZzkTFZ5LRd7QST83xHPJkD2jjHoa2j8aO4v1gsd3GLBwk8fHxSN2UhqS89CGv5Sdn48Unn4O/vz+ysrJG/FxJpVIIhUJk/HYrDm/arRfP8fP2wZaYDURCQgIPQ2edk8LxmlAoDPt78THenufjieGmG74wn49jK9OIT/56PCQhIcFkC4QWDxprYVAw/P39059++umwU6dOBb7++us8iURCZGRkjMlNYyns7OwMZiYNh6OjIxwdHdHa2oqMjAyIb13D//p6ht1fF8bsWXj82afgtmAeAODGtx34Z9dNTHedg4iICPPfBACC0P/+D+d+6+7uRmRkJP7RZZx4vODkgqJTZSatxdmJgYbrrSYdMxzk/O/BeLm642x9rYEjhqf6ci2Kz1aipKTEImsjycjIgI2zA/LLh8ZhNq/ZgPoPT6LpzOfw9vaGv78/UlNTkZWVhaysLCQkJMDb2xtxq9ciyO0JVOceNWjlbV6zAXc7ewa7rwgAITKZ7DV/f/8QmUxG7A2NH3UsLm+OJ46tTCP+U1EVkpqaapKA0OJBY0n0BEOlUqWLxeI8oVCY7u3tHXbixIlAkUhECcZkrJ4dbPW0t7ePGDhfvnw5KioqEBAQgLUvv4zfXVdAc+/usPvPsLcFb9kzeHwxj2o2qPz2e/y34zreV7UhIyMDarUa7e3t1D9jYhi6DLY8DIlHUFAQampqIBAIcK77e6NiH4/ZOcD77n2TBMTP2wdfWkg8yIC5oWuYGvPYV3YYKSkpYDKZFlmbLjk5OcMG8b1c3ZGfnI2WorPY9tLrcLh2G72N36G38Ts8MeMR/DXlPdR/eBKb14zcSn7nuk1EVlZWiEqlioP2OxdCNoeUy+VE0DwfvDCfb9R6Z9k7Ys/z8cSf8g+GiMViowWEFg8aS0AF6EjBWLlyZbqLi0tYYWFhoEAg4EkkEmL37t1jfqq2Nmw2e8i2zz77bNj9HR0dERERgcLCQiQmJuLZF19AaseVES2QGbY/xBfUyk58/eU3+N11BZ5evBgdHR345JNP8OWXX6KpqQlNTU04efIkLly4YLSIDI7dDK77AABPT09cvXoVbm5uiIyMRGHnNaPOHec8F5sP7TI6cL7UbxFqvh3eerMEpooHOSo2OTl5TNcVi8VwcXHBtGnTIBQKqYC4QCDAdEc7VJ4f3sXn7MRAsO8ibF6zgfqXFLnW6CLMYN9FCHsmhEhNTeVBm2zymlAoDIlZGk4AwN7n4016L6QFkpCQECKTyYwSEJvMzEyTLkJDMwAB4HEA8wE8W1pamrRly5aXEhISnv3qq6/mP/fcc67bt2+3i4yMBJfLHVJDMVmxt7eHRqPRe1pXqVRwd3cfNojt7OyMnp4eXL16Fb/4xS+gUN1E3n+qMdvGFo/ZOejte+/uPSi//R737t3H94p2nKz/Cm9+9w0eedoX0dHRYLFYYDKZmDlzJuzs7GBnZwdnZ2f09vaioaEBHA4HNjYjB7ft7Oxw+fIP3XxVKhX8/PyGHOfo6IimpiaEhobincI/IdhhFmbb2I547kdn2KG++zZqO1qM6nPl7MRA9kcH8FrAT0fd1xj+dUWGxU8HYK6Lfj+uolNlWOq3aMh2Q1Sel8DWzZkKcpuDTCbDiy++iNsDLV3kcjmuXbtG1YZ0dnai5tMak3uBmcLT833wyjubHJlMJjchIeHJHXEbid47fXDq7scvfJeZfD5XR2c42zvabTm4xy0+Pt5p5syZlwB8P9z+tOVBYwp6bqnS0tL0hISEPBcXl/Tf/va3YQsWLOCVl5cTRUVFiImJsWrGkDV55plnhmw7ffr0iE/+QUFBAICKigqkpaUh67338Bf7u4hp+xr/7Lqp5xZS9dzGR19cxpYvLyH12jcI+ZkIiYmJI7pQHBwcwGQyQY6IHQkGg2FU7IbL5aKpqQnOzs5ITEzEezeujuhyI9ky2xUnTlca5b7y8/YB290TH319btR9jWGWvaNBq8fL1d1oa+hsfa3JKbmDIRsX6qIbBF+2bJlZQXxT8HJ1R3igkEhNTWXviNtIxC6Pwr6yw3h54fNmn/PlhaFwu2NPZGVlGQrI60GLB81oDKnFIAXjtddeC7Ozs5vQWgxrwGAwhgTw1Wo1Tp8+PeJxQUFB8PDwQGFhIfz8/FBWVoYNb7+F834LkKj+FsKWLyBs+QKRVxvwu+/lOHO/F0lJSQgNDTVqXQ4ODmhtbTXKfeXr66v3s64logsZs0lMTMR0jic+uDmy+8dhlhMChc/iLy+8gK0Fu4y6QW6J2YC9F8pxq7d71H3Nxc/bZ0gNyHC0dLRh2TLTn8x1MSQ+uuIvEAisKh6dXWok5aWj+nItqnOPInZ5FCrPS8CwsUPQvLFlK+59Ph5/yj/Ilkql0dCm1RuEFg8aQxgs3vP29k4PDw8P6+3tDdy3bx+vrKyMSExMHFfBuNfcgt4/FUPzy9eh+eXruCP51CrX8fX1HfL0LpfLRxUQPp+Pl156CVVVVSgsLASXy8Xu3bshkUhQXl6OxMREMBgMcLlcvP322yY/ATs6OqKtbXT/PpfL1bP81Gq1QQHx9PQEi8WCTCbDgQMHcGXeI3hP2TqsBTJjhg3sHewR6uGJbc8EGCyMG0x4oBAcL29kVh8bdd3mwiTG18oVCAR6bi8mk4mMjIxxuXbRqTIEp6xGZ5ca9R+epOIkFZ9JsG4MVgeJB4OFjYsjh0sHppg2mYaL0Ewoo86KiImJmZAajHvNLbgj+RT9Fy7iXod+LcU0J0cQf3nfKtdVKpWoqKgY8qTP5XKNenLt7u5GXV0d/vGPf0Aul2u72PL5CA0NNfv32N7eDnd3d4OutcE0NTXpiZ2dnR1+9rOfGXQnHjt2DEFBQWAymXjllVdwT96K3872GBKzAbTWB3MuCxqlCm//twE16DfYmkOXzi41/NaHISMoGi89scTIdzuUVSV78Parm4aksFael2Bf2WFUbjs06jnCt67DO3/YZZFsP5lMBpVKZfBc06ZNQ+cJ2ZivAWh/f5XnJdhRvB+AtvBQd7IiADiv4KMmbofZ8+IHE/TnLZp38nafjI+Pz4aBoWR0hfnDjcUGKVmaex3X0X/hIu5UfDJEMHS532U9VwiLxUJERMQQAWlqaoJSqcSyZcsMFhaSLi6pVAqpVAo+n48lS5YgKSmJGl9rLv39/UPqOIaDjGmQ2VZ9fX345JNPEBERMaRqftWqVTh27Bj4fD6Kiopw8OBBbCwuxo/UM/AjR2fw7Z2oKvTvVbdQ0n4VH3fdhOy2RiMSiZThW9ex8pOzicE3NBJnJwYqtx1C+FbtWFZzBWSW/VAxI88/EQxnOZo7x2Pnkf1DalY6u9Sob25EeKDQoGgAWvHkzfG0mHAAwMbFkUReXh4vPj7eYC8t2vJ4+DA4F0N3VkRERMTECobkU9xrbjHqmJn/9zJshT+y6rqUSiU++eQTg/UebDYbLBYLAQEBqKiooATD09MToaGhWLhw4ZgFQ5fLly8Paz0YQq1W4+9//7ue+I1kOVVUVAAAIiIioFarUVxcDKlUajDgzmQyNTk5OWfi4+NPi8XiZampqSGbf76e0J25MZj65kaEb12Hn3j5ITN4lcnt2m/1dsMjQmDwNWPnemw+tAtzAx63qptJKpXid/+3yShLSBdSKHRxdmKMmsKblJeORzX3kbo40uS1jgTvwxTNiX9WnhQIBEOsD1o8Hh5GnYsxlkFK5nK/qxv9Fy6ir+ITowVjxmJ/zAh8BjMW+2Oak+VuzCPR19eH06dPUxk1zc3NqKurg1KpBJPJhEqlgqenJ4KCgsDn84edQjgWFAoF7OzsTK6VMeR+43A4WLZsmcG+Xa2trTh16hQ8PDz03otUKiUtKk10dLQiIyOjgcPhFAL4HMAzMpnstZUrV4bw5noT+cnZw1oDnV1qxG5PhbylGZnBq40uZiOZ9eOxjbUtOlWGo5dOQSKxXquV1NRU9H7zPXau22S1a+jitz4MB5e/PGpF+XDcudMPzS2tYeHCYlLbcy6U44q7TUNJSUk2gJPQsT5o8Xiw0bMyxGJx9IkTJ3ilpaVsLpdLxMbGTqhg9J//HP0XLhp1zHRvL9gKfwRb4Y/GTTAM0d7eDrFYjH/84x948cUXIRAIYGdnB6VSaRXBALTC1draip6eHpOsDl0MCQiDwcCyZcuGTXhQKpU4duwYzp49i/b2dg2LxVLExcVp4uPjFRwO5zi0T6KkO4NqyJeQkMD7/NwFdn5yNjFSE8WiU2XYUbwf82wZeHlhqNEi4rToSdi4mP+Z7exSwyt2KZqbm81ukz4a3t7e2B6bbNDFZGlaOtrwo9d/job1uWYdf1OpQu35i7hzpx8AMMuZgcAfLYKt7Qzc6u0G78MUTXNz80kOh6NnfdDi8eAx6lwMgUAwISm1/Rcu4s6papMFY8Zif0x3Hb34y5o0NTWhvLwcp0+fRm9vLyIjI6naDmtw9+5dqFQq3LhxA2q1GiwWa9gYi7EM535zc3NDQEAA9ZnQea8aOzs7hUgk0sTFxSn4fP5x/CAWhuZJUNZtbm5uXFZWVkjSi2uIzWs2jLguUkTu3e7FqieW4KUnl4zoux+reABaN4+d12yLNUXURSwWI+O3W1H/4UmLn9sQRafKUFr+dxwKe9XkY+/c6Ue19DP0dOt3RNAVkI1VYixJfOl8SkpKMoDz5D60eDwY6AmGVCql2pw7OjqyY2JiJlQwSAvDmOD2dNc5mLHYH7YRP55wwWhvb0d5eTkqKiqgUqmwcOFChIaGwtPTPNfAaJCCoVKp0NnZCTs7O3A4HLDZbIs9Iff19aGuro5K2+3t7UVjYyPa29thZ2cHjUaj6e7uVohEIk1ycrIxgmEIaghRQkIC78qXTaNaIYA26FvxmQRFp8rAm+OJ5+Zx8cJ8/yF1C5YQj5aONvitDzNrhsdIqFQq+Pv747crfm2x0bijkZSXDu4dB7y80Lh6IV2utrThi4tDEqkAAJwFXnjK1wcfX5Hh/bZzDRcvXtRzXdHiMXUZdS4G2RpkvLnX3IK+ik9MFwzhjzDd22scVjg87e3tkEqlKC8vx9WrV7Fw4UJqapy1IMWCbIlCCoY1/3ZkIP1P+/ZpnnrmGUVCQoLmySefBJPJNFcwBjPECgl7JoQwNK7VEJXnJThbX4vqy7Wob26kxMRz1hxER0bDy2fsv5udR/bjH199BolEYrEGiQkJCfhf7WWTA+VjYSzxDlldPdquDj/R9sdhQtjazoDn+4lDXFe0eEwthqTW5uXlsUtLSwmlUsmOiIiYUMEYrhbDENOcHDFjsT/sIn484YJBptYWFRVRtRhk4NtakIJx8+ZN3Lt3T8/CMHbmuFqtprKgjG1pr1arUVFRgfLycjQ1NWl27959Ji0trRBakQDGONfaAJQVkpqaypN8UsXeErNhxIyswZAZSNWXa/HFlUY8Pd8Ho7nCjIWcImgJ95VYLEbK679B/Ycnxy11uLNLDd+EFwzGO+7c6UfDF1+h97Z2pj33icf0guEAIPmkeojLSpen/Xnw8HLHqpI9ePP9nedFIhHluqLFY/Izai3GsmXLJiy19s6AhWGKYJCZUhPJ4FoMQFvrEBQUZNHUWl16enrQ0dFBCQaLxYKvr6/RgtHU1ESlzdbV1UGtViMgIICq4xhuLsqg96oRiUSKFStWaEQi0ZhmWJsA+RkOlEqlG1NTU3k32jqQn5w9YVMJSchpggsWPomCggKzLZDU1FQUfPjHUYslLU3leQn+ULgfx1am6W2/c6cf5z+txa1O/fhWUPCzegJy8sQnI57f3eNR8AP8kHn2KDxEweczMzMp8aCLBCcnQ2oxyGpvmUzGjoyMJH7xi19MmVqMGYv9Ybs8eMIFA9Cmm5L1GGQtRk5ODmpqalBVVQVPT0+LWm49PT24fv06Ojs70dfXBxaLhcDAQLDZbKOypurq6qj1kj23BAIBEhMTqXW2trbi2LFjSE1NxZtvvknVaAwWjLi4OE1JSYmCyWRawi1lChpoXR0En8/XyOVyxCwNR+z2VPh5+2Dnuk3jesPVhSxeTMpLh7+/P3JycqjOuMYgk8mQkJCAu509qM49avIo3LFytr7WYC+r/zZ+M0Q4AED2+WUIfxxs9Pk1au2gMGcD9Ti05TF5MFi8N1lqMe5IPjVZMMa7FmM4dOoTwGQyh63FaG1tRWFhIfh8/pjmjvT19UGpVFIz0MleVo8//rjRf7uKigocPHgQgLZD60juyPb2drS1taGjowP/7//9PwgEAkilUs2CBQsUcXFxGpFIRKbWjqdgDIYAELZy5cp0x1v3ePnJ2ejsUiO//DBUGvW41UOMBJn1NdvdFcnJyRCJRMNaIqWlpSgsLITkkyq8GrXWYm40Uwnfug7xXov10px7unsg+aR62GMCFi/EXDdXAKNbHgAQtuLHyLlQDsaLz9CWxyRj2OK9gIAAIjIyEsnJyVOmFsMu4seTQjCampqo6mg7OzssWbIEW7ZsGTHV1dPTExs3bkRFRQX27NmD+Ph4o1Nj+/r6oFKpoFQq0dPTQwkGl8s1Kb22rq4OWVlZAIDExESjRIxsV+Lq6go7Ozs888wzmt///vdnBgr4JlIwqCUCCMnNzY37/NwFdnXuUQDap/6JuukaInZ5FGKXR6HoVBn+tv/PSEhIAJ/P1xMQlUoFmUwGP28frA2Nwu8/TJuw1iiANmvMw1f/83WtfdgRHAAApfImJR6sOS5QXr9p1rVp8ZgYDNVi8EpLS9murq5EZGQkysvLxy21tqmpCa+88grS0tKom9Xdhkbc/sMfRz12stZiANon9gMHDmDBggXUk/loODo6YtWqVZDJZNizZw9WrVo1bOCcTK3t6OhAT08PlVprqCOvMZCilZiYiJiYGKOP043ReHp6QiAQKAaEQ68ieIKgZmtnvp0eUrntEDGRN1tjIEUEgME2735v+kyoYOjS0tE2JMvq2ncjf87VOu4shjODFo8JRlcMAMNPeqMW7/3lL38ZF8FoamrSc4Hs2bMHarUadXV1lHjY8Ib3QU93naMVDOGPJlww2tvbUVRUhNOnT0OtVkMgEGD37t1DXDyenp5gMpmQy+VGzcPg8/nw9PSEWCxGU1MTIiIi4OjoaLVaDLVajczMTBQVFZkcc7GxsYGdnR36+vrg6ekJmUymEQgEE2lpkJBV568JhcKQnes2ERMV2zCXiQ7om0N3922j92WxXCD/ZnhX9Czn4UWSFg/zMZgFdfr0acTFxTWIRKK90ArIiLUY+/btG9fU2qysLJSXl6O29ocnqt27dyMqKgqNjT80ZJvm5Ijp3l5UjGOy1mK0t7dDIBBg48aNoyYQMBgMPPXUU+jo6DBqJgaLxUJaWhoqKiqwd+9e/OQnP8GMGdqvDJfLxeLFiy1WvNfU1ISAgACzPwv29vbo6+uDh4cHFArF6AeMD2yVShVHztYer6K5h4WWjjaDjSVHSr0dzFw3Vzg4Ogx7DMFwGvZYWjxMY9S0WYIgkJqaSohEokAAPEOCsX379nERDPImW1dXh927d6Ourg7l5eUAtL51Mq2TzOKRSqVQq9VUfMV2sT/u83wmhWAMqk9AZGQkEhMTTc44s7GxgZubG5ydnaFQKNDdPXoRY0REBLhcLsRiMQQCAdLS0oyuxRgvGAwG1cakunr4YOk4QgDgJSQk8J6a7UVMhoD4g4Yhl5U5POXLRd2FSwZfY3O056/5tglv8n+t9xotHqMzahaUSCTSy4KKiopip6ambpRKpZiIuRh1dXU4ePAgNe86MlLbpjkgIAAHDhzAK6+8oicegPZJmqwhILfbrV4xLusdjsG1GAKBAJZq5ujo6Ignn3ySylQaDXLyX2FhId566y1kZGRYNImBwWAYbHtuLA4O2jkXA24r8jPbgIlxXREAQhISEuK+ufQVezyrrR8mvFzd0XC91eTj7Gfa6/08180V7h6PDqk0d/d4lKoJabjequHz+XquUFo8hmfUFua6WVDt7e3Uk7FarSa++eYb3njWYrS3t2PPnj1wc3NDZGQkYmJi4O7uDqlUCi6XS1kUpMUz+EZFCsZgUZkIBs/FaG1tRUxMDDXC1ZKQVsjVq1cNzuvQxdHREUlJSaipqcHq1avxzjvvjOl3NVgcmUwm2tvbzYp76VpCDAaDrVKpoplMZgMMTICzItR3JiEhIa7udM2UCJBPVbxc3Q3OhZ/lzDBY40HCZDoP2cYP8AOT6YyrrW3o6e7BPC93PO6zAADw8RUZ5j/J1U33BkCLx2AMZkGJxWI2l8slIiMjIZFIqBsY6UqxxpOxsRw8eBAVFRUoKyuDVCql/OZqtRrl5eXgcrnYs2cP2trakJaWRgkIaZWQBAQEYPfu3RNSeAgYrsXYvn07WCwWVQQXFRWFmJgYxMTEWPT36+joCC6XS8VC7t41PL+bJCgoCB4eHnj33XcRHByMtLS0EfcfjE6hoobP5yuSk5M1JSUlxMqVK9mNjY2EOeKhm3HFYrGowV4mn8h8qJbsqampvLrTNWxaOMaHW73derEPguE0onjMdXvE4HbOAi9wFgx1T//xUhWS3908JAmIFg8jsqB002YNCYZAILC4G2MkyJTOAwcOoKmpCW1tbVSrClIUuFwuJXSLFi3SszR8fHzQ1NSkF98AMO7CoVs9bWdnh9DQUIO1GJ6enkhLS6NScSsqKoyugTAFV1dXKiNrNCvE09MTb7/9No4dO4bY2FjK6hsO3UFKZPFeQUGB7tMcb9myZRvr6up45v4dHB0d0d3dTbquxvPvqZdVNc/ehajcdmjSpLM+yAT7LkLD9at6VeZsjuewzQ5Zc1zg4Gh4lK8hPr4iQ7ttr0YkEg3J3ntYxWNIR1qywaCjoyM7IiJiSNos+eUnn+YjIyORlpY2IW3OAVCptWSgu66ujrIoyO3kDXBwcD4xMREbN24c98JDYOhcDD6fj+TkZKPanHO5XEpE/vCHP+DgwYMWFxE7OzuTrBCyJuTll1/Gq6++qrcWHXHUsFgsRXJysub3v//9sNXeAoFAQ46BNXft3d3d451xRdVxCIXCkLBnQoj85OzxuvZDj5+3Dz6+clFPPFxYzGGL/7hPPGb0uW/1dmNjlVhTeOTwmYEeaHofqodJPEZtYT44bVbXlULGEsareI/0hxu6MZJ+drL+gPz/gIAAFBcXA9Bvb0EQhJ5rZbwFT1cwVCoVgoKC8Otf/9rsuRhcLhfbt29HTU0N/vCHP6CoqAhpaWkWjdW4urqCxWJBLpdDpVKNuC+fzweXy0V+fj7q6upAEITeIKXs7Gxj2pxr+Hy+oq6ujocf6oVMwtHRESqVypoZV4PrmQCAnZubG5f5dnrIznWb6HTccWZtaBTWpL+KzKWr9bY/7c/DZ5/W6aXgPu3PG9JVdyRWlezBz2JWKUQikcHmmQ+6eIzYwlwgEAxJm9V1jZBjOouKisb9hvvGG2+gvb3doHi4ubnB3d0ddXV1yMjIAKB9ynV3d6diGuRkOHd39wmxjgzNxVixYoVF25wHBQUhKCgINTU1SE1NxZNPPonExESLiYiNjQ0WLFgAlUoFuVw+ohXi6OiItLQ0VFVVobi4GAUFBcr4+Pjj0H7pvsPo7UEUTCbzOJ/P59XV1fHMeQ9WzLiiAuFSqTQ6KyuLnZOTAyaTiYSEBEKpaGdXbjs05QoAHwT8vH0wfaY9Pvr6HF56Ygm13cHRAcGC53CtvQP9d/ox1+0Rk9xVG6vEsPVgaXJycsikiyGfoQdRPEatxRicNjtcW4vxqMVQq9XQaDRDXGRk7ILMvtG9GWdmZuql1jIYDNTV1aG9vR0HDhyg3FHjnTVlSDBCQ0OtPhfD3d0dsbGxuHTpEt544w0EBARY1KXIZDLh5+eH1tZWamDTcISGhoLL5eKNN95gyeXyRZmZmQ3QisdoaAAoBAKBxtyMtzFmXBmyKkjYYrE4Oi8vj9fa+BXbx4VBrFy5EnK5HFtiNmBzaq7Ja31QaOloQ+V5iXYuuqs7gn0XjXtn3Z3rNuHN99/FC958vcC5re0MeHiZtpZbvd1YVbIHth4sjUQiMeiuInlQuuoOKxhkC/PBMy/IG11xcTHV1iIiImJcbrjkEB8ul0v1lSKL3giCwNq1a6FWq6FWq7F79260t7fj4MGDiIiIoLqrFhcXY8+ePXB3dx+166q134tuuik5dW/hwoVWm4sx0iCl3t5eFBcXo7i4mGpdbknLS61WG9XipLu7G8eOHdPY29srSkpKGoycmxEoFovz3n///cADBw6YtT7yoSM/Px85OTnnBQKB3txpDC8SbKlUGi2TydgKhQIymQwZGRkoLCxEaWkpwbjbx37eay6xxH0OGm+qcazlFiq3HRr3G+VkYueR/dhRvH/Idj9vH7watRbhgcJxSxqI3Z4Kx1u92Bsab/Y5ar5twrqT+zQ/i1mlyMnJGfUzO5XFw+QW5obaWoznICW1Wo29e/dSVd5k0d6iRT/0zyEFJTMzE5mZmYiJiUFsbOyQG2B7ezsaGxsnJLV2IgTD0FwMLpc77FwMUnDLy8stXiNy9+5doxst1tTU4F//+pfmgw8+ODPgO27A8C4snlwuT3/66afDJBKJWXGP+vp69PX1oaKiAsuXLz+fkpJCiode3ZJMJmNLpVJcunQJcrkcMpmM4HK5bB8fHwIAysvLwXKwh/8jTCxxnwNPxg9/11Z1N8RXbqL+w5PmLPGBoPK8BLHbU0fcx9mJgVej1iIpcq3VRYQcauU+zQF7Q+MNti0ZjqtqJTLPHsX5G3JNQUGBMZ9TAFNTPEYt3tMVDPJGV15ejrq6Oiq11tJpnsMhlUrR3t6OmJgYylrYvXs3srKyoFarIZFI8MYbb1CuJ7VajZiYGKSlpWHRokWUwEwGjJ2LYSlMFQxDkCIilUotXiNirBWiVCqRn5+viY6OVmRkZIz0REcACPP29k7fvn07zxxLkkzBbmpqglKpbCgoKNgL7Y2ALZfLo/39/XkqlYodEBBAcLlc+Pj4wM3NTc/ilkql+HBbFt5Y9MSw11n/yX/QeUJm8voeFLxil6Kza+R0bhJnJwa2xGyAKaN3zaGzS43Nh3ah4tN/Y+PiSLz0RNCwInKrtxsfN8vw0Vc1qPm2URMfH2+UtaHLVIl5jFq8N1otRmRkJHbv3j1u6alZWVlUlhZZY0FemxQJ4IcOtwwGAxkZGaioqKCELSAgYELSaXUxJBijzcUYC5aai0Hi5uaGjIwMRERE4ODBgyguLqYskbHCYDDg5+c3aosTFouFt99+m6ioqOAJhUJ2QUEBMRAHGvwl1Yt7mCMeNjY2pHBAKpWyMzMzN166dEmjUqkIuVzOXrp0KUEmWQxHU1OTnqUBAPfu3UP/nTuws7cf5qiHh6JTZUYLB/DDTX1f2WFsidkAa2WkOTsxkJ+cjbWhUdhXdhiZH6YgaJ4PnprjQU0CbFUr8eX3rWRbE41AIFBI/rq/QSAQHIcR1oYuU8HyIACElJaWxg0u3hMIBKPWYkRERIzLDZicL81gMBATEwOhUAg3NzccOHAAQqEQiYmJiIyMpPpMkYJHjhOtqKjA7t27rb5OYzBUixEUFGR2au1oGBIMNptttmCMBNn3q7293aI1It3d3UY1WhwYUqXZtGnTmZSUFEPugUCxWJxXWFgYONzngbQsyIcQXWsDAHxctJ93T4YjHG1ngDXTDiwHexxtbMHLaW+O+p4PHjyI76oqETn/h3hGX28vNGoNZs/R/j0eZssjKS8dRafKzD7ey9Uda0OjrO7O6uxSo765kZpJcra+lvx/jUgkUiQnJ5slGiRTwfJgi8XiuN/85jdhIxXvTUQtBklsbCzlmiLdI2TB3t69ewFob1qk3510TZGxDx8fH6o+Y6IwJBhjqcUYDXIuxo0bN6BWq6m5GFwu16p/OzITi4wpHTx40Kh27qNhbKNFLpeLTZs2EYWFhSGnT59mFxQUDHEVCAQC/OY3v6GOIQs/6+rqKKHwcWGA5WCPOQ72ELowgFnT4fPjZ0dc443uXqMSQtrb2+E4w0ZvW/+dftjY2AxzxMOFoQFRptDS0YYdxdpge+zyKEQ8J0R4oNBCq/sBZycGOrvUUGnUqDwv0Ux3tFOkpKRokpOTyUJVs0SDZCqIB3HixAl2TEwMQboadEeMMhgMRERETEgtBgDqC52YmKjnCiFbhRAEQQlJe3s7VRH+yiuvwN3dHaT1NBFxDd2MM5VKZZVaDF2GG6T03HPPWWwuxnDoiCNVvHf06FHIZDJkZWURxcXF7MTERGKs2XZubm5UceFwLU4GGiwSVVVVPH9/f3ZBQQEx0IdKAYDHZDIJGxsbvPLKK2hqaoJdfx/8H2HiaYYjXlroDZaDea6jrrt3jfqOtLW1QWjAbUWLh5aWjtG7MBtL0akyyooJ9l2EpX7aVF8vV3f4eZs2sbClow31zY2ob24krQwNn89XCAQCzYnsSmMKVU1iMosHFRhfsWIF8f7772PPnj0TUosxmPtd3dSM7tG61DIYDMTGxiIzM5Mq6iODthOx9vEo3hsMKRZkjQSHw6Gqsq1Je3s7WfCp6e7uVohEIk1lpd6XCHw+H/Hx8ezc3Ny43/72tyELFiwgxlpoaGyLk4GaEOJXv/pVyK9//Wu2QCDQFBYWEqWlpWzG3T48pvl+TGKhS+NN9YR83h40xmp1jHZug2NvvX3g5eqOpX6L4OftQ7mjAOCLK43o7FKj+nItnJ0Y8PP2wVK/RWjpaINEIlEIBAIyYcLic+wnm3gMqdcQi8W8wsJCtlKphLu7u8ERo+PBveYW3JF8iv4LF2HD88HM/3sZgFYc3N3d9cRDN9jZ1NQEgUCAmJgYKgA+3sV7gzPO+Hw+lixZgqCgIKtd01Athq+vLzgcjlUHKemIo6ajo0MhEok0H3zwgUIkEo301NWQkpKiiY+P1+Tm5vJ++9vfspcuXUqMtUbEmEaLnp6e2LhxI1FRUcHLysoC39UFm329LCIYg7FU7E/Z00s3PRxHSGui8rwEwA8xEwCIeE5o0ErZUbxfw+fzG6BN07ZKW/7JIB4mV4SPF/c6rqNf8inuSD7FvY7rw+4XEBBA3ZjJfwcOHKBaZZAN/caT4WoxfvGLX1i9FkOpVOLevXtgsVgIDAwEl8u1qmAMmjKoEYlEivfee69hFMHQRQPgDJPJVGRmZvJSUlKis7KyeJGRkezIyMgxiQhphSiVSrS2thq0QhwdHbFq1SpwuVwcPfxXtKq7rSIeY6Gvrw8EQ1t6cv12H+hWJBNHS0cbwgOFw/4NBjLBFEwmU2/+hqWZKPEwWOCXl5dHzSEYz0FKutzruI7+Cxe1gtFseDD8vY7ruNdxHdNd5wDQutDKy8upSnFSKCyRDmoquhlnnp6eCAoKQk5OzrgW7wUGBppUi2EOg8RRIxKJFFu2bNGIRCLyS2NqMFBDHsNkMhtycnJ4ycnJlIgkJiYSY6kRYbFYlBUyXKNFPp8PT09PiMViXGxoxmofryGBa3NpVXfDnfu4Rc5FM/FUnpcMKx71zY0QCAQWd1MNZjzFw6hxrjk5OeNe23C/qxt3SAtjGMEYQtcPKZkCgQC1tdbzhY7GSIOUrEFfXx+USiWUSiX6+vqoeofHH3/c6n87nfodjUAgUMTFxWlKSkp0n7LG+qWhRITD4TQUFBTwMjIyolNTU3lRUVHsmJgYs0XEmEaLLBYLaWlpqKioQPa//4XXFj42pObCHHr6jQuWAwPZVl4uY77mg0iw76LRd5pgqi/XWj0BBbC+eIwoGFwul4iNjdUb5zpe3O/qRv+Fi+g//zn6L1w06pjp3l6wi/gxZiz2pwLmE4Vu9187Ozvw+fwpVbxnCkYMUrLGU5aeiJSUlJAdZXlRUVHstLQ0wtwaEWMaLUZERIDL5eIDsRjPz3HC815zzX8nJtLW1gZP3rxxu95Uw8vV3aIZV+YwktvwiyuNeH6N9VvjW0M8RhQMFotFsFisca/FILkj+dRkwbAV/ggzFvtTbqqJYiyDlMyBTK3t6OhAT08PlVrr6+s7IYIx0iAlK0KJiEAgaBAIBJSIHDx4kJ2YmGiWiNjY2IDD4VBpvYZanHC5XLz99tsoLCyErPZrvMp/3Cw3lrKnF403buHbgQJJYyi/0oZQr7kWc5s9SPh5+0xq8ahvbtS8KxBY/bthqQrzEQWDz+cTZGpma2srLly4MK51DboWxv2ukSuAAWC66xytYAh/NOGCoZNuStViLFmyxGoZZ8PVYpBda62JoVqMuLg4vdTaYRgvIQF0UsjFYnF0VlYWr6+vj52RkWF2jYgxjRZrampQ9vfjiPGeC76raS6lxptqFDQ040fuxn+WP227jgSeN1Wtruy4DoYzA3b29mi8qcZntwlUbjtk0joeFIpOlSEpL93ga042NnCZ7oCrd6z3UfTz9kF17lGDr7V0tGHpptiGmzdvZgM4iUka8zBKMAYHa2tqasYlVfVuQyPunKo2STBmLPaHrfBHmO49dAj8eDJRtRhKpRKdnZ0AtLUYixcvnhDB0KnFUAJgDfwXGPicyWQy9qDTKAbaLOgKjLUEhbJE4uPjG+Lj43lisTguKysrhMVimVUjYmNjA09PTyqgbsgKCQoKgoeHBwoLC9F4swWrfUz7jM6ZaafXbmQ0Gm/c0vv5Dt3XiiJ2eRQ2H9ql19+KN3M2Ds0LhYetNiPt6h0Nijub8Pvrlyx+fTJN1xCV5yXjEiwHzBOPYbvaDicYuozW+2cs6NZijJRaSzLNyREzFvvDLuLHEy4YZPZQUVERmpqawOfzx2WQ0uBaDD6fP9G1GLqCwZJKpdEnTpxgy2QySKVSAgA72HeRXrvyzi41r765kcdkMjV8Ph/Lli2DSCSyeEXtIHRFBCKRiJ2VlcV75ZVXqBYoplqHozVa9PT0xNtvv41jx44h+7MaJPC8LRJMpzGdV6PWUrM8eDNn45jXi5g1/YfvjIctgU1znkEYg4Polgp0jTCF0hScnRgjNlY8W1+Ln2/4lUWuNRrGiseQrraFhYW80tJStqenJxEaGmp0OmhraytWrVo1hiXrc6/jOu5UfGKyYMwIfAYzFvtbbB3mYKgWY8mSJUhKSrJqam1HRwclGG5ubli6dOmECMZ77703uHhPCeAZlUoVnZuby87LyyNm2TmywwOFROKSFfhz4jvDFacRAHgtHW2ovlyLs2drIdi9l+fyCIuXnJysiY+PV5jSatpENAAUcrlcU1paCr6rC+apvsP6X/4Sy8PCzBpG5ebmBmdn52EbLa5atQpNfD7e//AgVnjOwRIT3FE0liEpci32lR1GZ5caGa6BesKhC89+No57RSD72jlc6r0xZhF5NWr4ZoqdXdoeVn/959/HxYU7UszDUBt0dmlpKcFgMNhBQUGEObMc9uzZg7S0NIu4rvoqPkHvn4xrKGgr/NGkEAxAGwwmU049PT0RGho6qQYpWYpBle0akUikWLFiRcPAbO/BFgEBICQ3N/e1rKyskLBnQoi1oVF6qZFkpa2hYGWw76IhaZSV5yXYV3YYl6/+T5ORkTFcF1tLEOji4pL3wtxZgWRWVHf/XRxtbMG5tuvUlEhzEkTa29tx7do1g2m93d3dyM/Ph6PqeyTwvIcNbrequ5H9mWlFxk42NvhdEI8qVvzu23Y8Ok+7/oc95kFSdKoM2/b9P9QseMmk467e0aC6ux0lnY041/290ceNFOsAgPzyw/js+n8bSkpKrB7vAAxbHpRbaqA9CLuwsJBQq9XsJUuWEG+++abVM22M5U7FJyO+rmthTHRq7UTUYly7do0SDLItykQU773++uvGFO+xU1NT4/5edCzk8KbdRLDvInR2qVF0qgwVn0lQfblW4/IIS8Hn8zULFy7UO7CzsxNbP3qfkG2VsWOXR1GiEx6o7VZafbmW2Pz7XSGFhYXsgoKCBj6fr2uFjDS7ezRI8QMAPReS4wwbJPC8ETXfHWV1NYiNNW8Y1UiNFh0dHZGWloaqqipkl5/AGq4nHGx/+Eore3qhvN2H6z29cLKxwYaUFMTExIx6zVdeeQXCaV2Trsp9stHZpUaQ46MmH+dhS2CN8+NY4/w4jnT+F5vaq0c9hpzVMRL7yg5r8g58QM6st7rlMVg8CAAhKpUqLjU1lScWi9lBQUFEdHT0pGyqNs11DjDIVWXj+wSVWjvRgqHb/RfAlBukZAo61pSGz+ebU7xH5ObmspMi1xLVl2ux+dAu1Dc3akQikeLnG36leV/wJ900XUNQvdDW7nqD7evxGJGfnA0vV3cE+y5Cde5RYueR/dQwJpFIRHaxZctksmiZTMaWy+W4dOkSlW0mk8mokzOZTCr+xOfzwWazMdCx9DgAoqCggPjFz3+OtGefoESkp7sH9v39SOB5Q9nTi4KPiqlhVKaIyGiNFgcaLCI/Px9KpfKHppyPPAoul4vHGQy8PtAmh8ZydHap4WbrNKZzrHF+HK131KMG1vOTs0dMz62+XIvpjna6bmCro+u2IgCEyGSy14RCYQiHwyFWrVpl8ZuOJd1W95pb0Hv0BO5392itjElWiwFoW5dERkaiqakJDAYDBGHWaOphuXv3LlXtTdZiTGTxnkgkMrcWg5ebm7tRpVLxAO0NWiAQmCQ+0EnkyMrK4hV8+Ef2lpgNhO74z8rzEiTlpWsS1r+skMlkGqlUSni5urP9vH2Ip+f7UO2wAeg1m9PtZFp9uRaKa22ovlyrudXXrRCJRADALvnoONF/uxtJ/o/Dx4WB/jt3cOP6DdjPtAfDeRamT5+OxptqlH/zLdQODLOGUfX19Q3baLG7uxvHjh1DX18fMjMzza6jIi0PMk0XADrar2H2nNmYYWsL4OEeBkWSX34YdR+VYK/b0jGd59a9PvCaDht8zdmJgZ3rNo06fTApLx2PL/U/n5mZSc6stzq64sGTy+Xp/v7+YSKRiLBWx1VLisdkob29HUVFRTh9+jTUajXVRVf3Sa+iosJi4jHRtRgD1pSGxWIp4uLiNPHx8ZYo3jPkPjLnXJSIyGSyuJUrV4Ysmf80sTY0ChWfSajOpOTshGDfRZRYmENLRxs2H9qF6su1qNx2CPXNjUjKS8dqHy887zUX9+7dg+rGTdy/dx8uc2Zj+vTpAH6ovbB3YZklIiO1OJHJZDh+/DjefPNNs/rDGRKPG9eVIBgEla5Li4f2IeLNd97EPzkrxnwuz68LhmzzcnVH0Vs5ozahbOlog9/6ME1zc/NJDoeTDSt10R2MrtuKEIvF7CeffNJqwkEyXHvqqYRuLUZ7ezsEAsGoE+n6+/vHdE2lUjlEMCaqFiM7O9vSqbBk6utYIddC8Pn82uTkZF5qaipReV6C2OVRRn0ZTaX6ci3lViD/RaWvQ6u6G6t9vDB7DguaW2pcv/Y9mLOZsLO3h48LAzuDn8a5tuv4w3s7UFRUZNJDFdnixFCjRbLBYl5eHjWojMbyBPsuwlWbO2jovQGe/Wyzz/OxZmg/vaTItdgSs8Go1vdFp8ow6AFuXBgSMJ8zx7puH09PT2rGxVRjUOtvKovGmPfCYrHQ2toKJpNp0jUnshZjwJrSdHd3K+Lj4wcPUhrPqm5TIN2vcampqbwrXzax8pOzRzX7zSV2eypil0fpjRF9xp+Prytr8FLqeuyuvaStx5jFgJ29HVQ3VHB0coQj4YTp06djibs21fZc23VsfPVVPMHnw9hCw5EaLbJYLERERODChQtWed80Wl6NWovsE8dx1Mu8PmcA8LFae793dmIgPFCILTEbjLaGO7vU2Fd2WFNaUTZugXISPfFgMpm4fn30WomxwGKxhkzdm8wMV4vR1NSEjIwMo8/j6+uLy5cvQ6lUjhqLmGKDlCYLlLsqNzc3LjU1NWRLzAbiRGqu1S6484i2SGznuk3UtukOtpjh7AAmHPDJoaN4Z38OsvfnUG6sOXMfgerGTfRe74WzizMVQ1jiPgcsB3scaGzCG2+8AS6Xa3TcgrRCBrc4qaqqQmxsrIXftRYnGxu0dLSNyeX3IJAUuRaHq8pwpPO/WONsesv7mu7v8K/+ayh6K8esOeZFp8rg/2yAoQ4LVkdXPDQikUixdetWHsxLWzQKLpeL6urRU9MmGp3W3+ByuViyZIleIWRVVRXq6uqMdjMwGAwsW7YMp0+fRl9fH1xdXfVmQk/UXAxd91tTU5MmPj7e1EFKkwG9LMFTJ//Frs49SlhzYFF9cyN2FO/Xy7ufNn0a7Fj6X53fbUhFlPAF/Dx1HWS1XyOB5w0W6cbquA6CQYCYpf37knUaERER1PhigUBgVI3I4BYnZMKGuZ1/B2NnZ4e+3j4q5uExy5EWD2ithaK3chC+dR0AmCQgDb03kPDtv7D79QyzhAPQpucWHj087lYHoC8eCg6Hc5zL5fKqqqp4oaGhVrmgp6cnVCoVmpqaJl3qoCm1GA4ODiafn3y/NTU1aG9vp0Sht7eXEoyJqsUY4yCliYatUqnihEJh2N3OHqI696jVx6RuPrQLW2I26MVPbF0cMc1m2pB9F/o8hf8c/Sfe2Z+Dd46IEfHYPDzvNRczHWai86b2YYE52wWeDEek8rxw9J8VVDYW6R6NiYlBYmLiqJ8LBoOBv//975BKpSgqKjL5fTU1NaGurg4vBT9t8rEPK37ePqjcdgjhW9eh9Y4ar8z2HbbinORjTQuS26X4Vdgas12qRafKMP8p7oRYHcDQCnOeVCpNDw8PDwsKCiLIm93Vq1eHHOjh4QEul2tWVbRYLAaHwxn30ayGqKuro6wMOzs7qp/UaK6lY8eOYcGCBWYFI8l0S43mh3szm822amqtIcFYsWKFrmBMFStjMASAMH9///S7nT28ym2HrC4cRafKsKN4P+o/PEltm25rA3t351GPlZw5g/XvvgmHO2qtFeJgD80tNTRqjZ4Vcq7tOo593ULFQMjPKPmdJGt4dGEwGJBKpVCr1cjMzDT54UytViMqKgph7i5D5od0a7pw584dOLswAQAFDc2ICkuAbhr0ww6ZeSetPYMwwhsvOT+uV0SoW1neMO028pOzzbY4AMBvfZim8OjhkwKBYNwyrHQZLB5UsLGwsJAtk8nAZDIxUNFLFBYWsjkcDsHlcqlZ3UFBQYiMjDTpxtfa2oq8vDyUlZWN+xAowPBcjKCgIJPmYtTU1EAul2P37t1WXOnYsXAtxmSDABCSkJDwWt3pmpDKbYcIawsHAPitD8OWmA16T4z2c2dh+syRW8Xd7e5D3/cadHapsaN4P/588ghlhfTfuYPOm9qOxmQspLv/Lsq/+Rb/brk2JIg+uHmiWq2msv7McVWp1Wq88sormKO5gQSe95DX+3p7oVFrMHuO9ntefqUNvMWR2Lxmg8nXetBp6WjDvrLDqL5cS9UGAVoXV7DvIkQ8p+18MJbPan75Yfzzf/9pkEgk49KKxBCGelsN166Bl5qauvHatWs80mIgZ00cPHgQkZGRJn1o9+zZQ3UfHQ90azFUKhWCgoJMFgxdlEol3nrrLUgkkgkRwJF4wAWDhOqFlbNjV0h17tFxEQ5zrY57t/vR970a9+/98H2rvlyLpLz0IVZId1e3XkZWq7obRxtboHZgICIighIRLpc7ps+eWq1GU1MT1Go19u7dCw76DAoHANy7dw/Xr30PVzetRXKu7Tr+O4310Pe3mgg6u9TwWx+mKa0omzCrAzBtGBRPKpWmr127NqysrExPWJqampCZmQlHR0fExcUZ5cpSKpV49913kZOTY7WCwUHBYGq7rjnv6OgILpdrlKtqMO+++y5efvlliwUlx4LOWFoNi8UyNEjpQRAMXaiiVrIX1nhgyOqwYznBhhi+D9T9u/fRd+0W7t0x3FF155H9+P2xDxHKeRSR892pwsL+O/1UXQgAyDpuovGmGq1qbafdxpvaeilSRNzd3fUC64Zauw/e5slwhOMMGypleCS++7Ydrm5zqUr5Yy239ESUZnzYeWQ/atq/nlCrAzBNPAgAYd7e3unx8fG8wTdMtVqNrKwsfPPNN4iLizPqib6mpgbHjx/HgQMHLBY81xWMjo4OjUgkUrDZbOqXq1OTQQiFQnZMTAyh0WgglUqxYMECmNKSpaamBv/6179QVlZmkbWbihGT9x40wSAhAIStXLky3e2uE083VXY0WjraqO68imtteh16l/ppBYgs9BucSURaCoNvmDM9XAwGykn6bnThrrp3xHXVNzdi86FdUCi+xGofL/i4MNDX2wvVDRVm2M4Ac7YLVZ0+GFJEWtXd6On/QaAcZtgYnPehWzluCoaqzFuKzlo9xkTzAy0dbQhOWa2RVp85yefzJ8zqAEwfQ8srLS1N/9WvfhVWVlZGGDKZDx48iL/+9a+Ii4szapDRsWPHqLG05gqIkcHgIe9l5cqVG11dXXmJiYlQq9UoLi7GwYMHsWrVKhibbfbWW2/h//7v/8bN+iDFsbi4WNPd3U0Jhk7GxYMqGLrwZDJZuiA4JKz+w5NGuauKTpXhcFUZqi/XagQCgWLZsmXIy8tj74jbSHi5uqOzS43Y7amalJQUhUwm08hkMuL+nbvsYN9FxFI/bYfeHcX7wZ7rrufnn+5gC3vX4a9PxjmMJb/8MHYU78ezLEdELpiHmdOnoVvTRQXUSVfWRKC5pRUpMqif/VkD9m/+/ZBW+DTWI3Z7Kh55kt1QUFAwoVYHYLp4EADCEhIS0s+dO8cbLhVQKpUiKysLixcvNmrwU1VVFf7xj38gLS3N6JuwBbKHeFKpND0qKkpPCJuamvDKK6/A19cXq1atGtUFJ5PJ8Ne//tWqwX9DxXsrVqyYKsV71iAwISEhz0F5J3A0q6Olow1Jeemaq5rrioyMDN3PByEUCjdu+vEveOTNz3kFv+H+/ft7oX2aY8vl8mipVMo+ffo0UVpaylapVET9hyf1LJKRXFajuatGWjOZtbPqCS8scZ+j58piOM+Cg6PpqeJjpa+3F+pONVgDzUePNrbg8YXPwxTLj8Z8qi/XYu2uNzTNzc0nmUzmhFodgOniAWi7lqYLhcIwGxsbYvfu3QZvmu3t7VQwPD4+flRXUFNTE5XCO1JlrQWDwZTrQ6VS8XSzptRqNd544w10dHQgKSnJqLTd1tZWHDhwwGICMmgsrUYkEini4uKmWvGeNSAAhLm4uKSf3VXEG6lIrb65EeFb12kS1r98JicnpxD6vzeeUCjM2/TjXwTqiMf5+/fvk11JdRNHeKWlpRvTN27mDR7GM5LLqr+zB3dUPWa/0crzEmw+tEsvoK7rytJ1IY0XHe3XMGfuI5g+fTpkHTdx5pbNiAOKaCyH3/owTeqWTWdSUlI+gHWmYpqEOeJBVfMmJCTwLly4wM7IyCAMBb3VajUOHjyIEydOYNWqVRit4WJ3dzdOnTqFqqoqLF68GBERERAIBNbMHuKpVKp0f3//sKCgIGJw5ldWVhaqqqqQlJQ0qktNLBZDqVSOSUCMsKamWvGeNeBJpdL0uNVrw+o/PDlsJwQyIyX3/d+fiY+PN/RlCxxFPHQJTEhIyHtixiOBunUNI2VZ3b97H71tKr3sKnPo7FJTrqyoBfMQOV8rlmRWlm679/Gg86YKNjY2lOsq5dTn+HhPkcWbTdLoM1mC5LqYIx6ATh8hsVgcnZWVxbOzs2NHRkYSAYOGzjQ1NeHgwYNUgVNkZOSoN+Lu7m5UVFSgqqoKADQcDsdawWC9GSZLly4lBverqqiowJ49e/Diiy+OGgcRi8VQKBTYvXu3SfEbnVYoGj6fr0hOTn4QivesRWBubm7ef8olgSNNVhvFNzzEeunsUsMrdqkh8aASRf6a8h5P9yY5UrxjrFbHYMiA+lff1COB5w0fFwbu3bsHdect9N7u1UvttSZkyi5pfRQ0NIPzxJJRp9zRmE99cyOCU1ZrLl68OOFBcl3MFQ8SPRE5ceIEWyaTQS6XUzuQXWBXrFgBuVxO5OXlsV1dXYklS5YMmdutVCohk8kgk8koV80IM68tBSUgCQkJIUwmk8jIyNCzHpqatM3qXF1dR01FrqqqwrFjx0ZtJ/GQ1GJYg8DMzMy8vqZrgcMVqLV0tGHpptiRfMM8mUyWvuKFcMp6qb5ci12f/PW8RCIZLB48uVyezvd9Oqyl6KyepWPLdMAMZ8Oxh962TpNjHcZAWiHeTjOoueX9d+7gVuetcYuH6AbOlT292Fz9BQbHgmgsR3DKas3PfrXmTGZm5qRwV5GMVTxIjJ0DzVapVORcdMhkMoLFYrFZLBZx9epVKntoxYoVGGdXjZ4rrqqqip2WlkboBu/JVOQLFy6MmkmmVCpx7NgxfPPNN4iIiEBsbCzc3Nx0W6FoWCwWZWHQgmESo4rHziP70W5/e0SrIyEhId2tdyaPPMfmQ7tgv+CR8zk5OYPFI7C0tDRvz++2BQ4uiLN7hICN49AeRvfv3sftqzfH8h5HpLNLjc2HduHE6UqqQh0AFQ+xsbEBw5kxbvGQo40tuD3Lky4YtAKbD+1CTWtDw8WLFyeNu4pk5H4KxmPsIJ8GJpPZkJKSQqSkpAAD86NVKhWbw+EMHmYynjdSDYAzTCZTUVJSwpNKpdEJCQm8gwcPspctW0aQtSExMTFoa2tDfn7+iC44FouFpKQktLa2oqKiApGRkWAwGFTxnhUGKdHocLa+FmnvbDX0eyUAhEil0riSj46zdes1Ks9LNHm//sDg30Emk1E1ILpMG8ZFdK/3ztjewCg4OzGQn5yNtaFR2HxoF8591qCdGcJwhKvbXHRruqC6oYKdnR1muThb3ZW1xH0Osj+rRX75YbrXlQWpvlyL4rOVmosXL05I19zRsJR4GMtgkWng8/kN0H6pJ/omSq5NIRAIGpqbm3lSqTS6sLCQXVxcTO20ZMkSbNmyhXLBMRgMIigoCFwulyqMbG1tRVNT03i73x4aOBwO/ni8EpvXmHQYASBELpe/tnLlypCd6zZR9SHVl2sx3dFON/VZj0uXLuEF9jNGX+i+FdxVhgj2XYTq3KPYeWQ/8soOU7UhjoQTZjo6oFvThY72a3oNFy1Jd/9dHG1swbm260iKXGu1gVsPI2TdUe77vz/D4XDITMFJhaXcVg8io7ni2CqVKrq0tJR94sQJ6MZ6dOM8dKaUxRk2BkGSX34YX/d/31BQUEDWbABaKzcuISEh5KnZXoRugDd86zqERoefz8zMNJhpNTgri8SBbXj0qDEV5ZZmoJ4FF7+6iHhfb/BdXQAMDXCPhrKnF2VX2qDs0a7fk+GI573mguXwgwusu/8uqlquoUr+HVYsCzdp8h2NcQSnrEbAsqBJUQw4HLR4mI+xcR7ayrAsVAv2V5b9jGfoaZdM0818N1sRHx+vAYDc3FwiLy+PHbM0nNAtajOi8CrQxcUlryLzQODgdNThxKO3Q417PdZ1XQ1H5XkJkvLS9QLqg9Nrh+Nc23UUNDQjJiaGauNTUVGBUydPIu3ZJ+DJcET5lTZUyb+D/5P+2LluE52iawWS8tLx5Y0WjUQimRTFgMMx3m6rBwlj4zw0lkUDoCE5Obkh47db2bHLo4aIt7MTA5XbDhGbD+3ipaamAgDCA4U4vGm3XiuNzi41kvLSNTk5OWeYTOawrgGVSjVlbpLhgULUf3gSSXnpKGiQ4bWFj8HB0QGqG6oRxUPZ04tjX7fgwIEDeo1KAwICEBAQgD+8twMAwPJkY7a7O5b6LZoyv5OpRNGpMpz8/Izm4sWLI34mJwO05UEzFSEAhAmFwvQnGfNMaoyoS/jWdZjzmEdDSUnJSK6BwGnTpuV1npAFDn5hMloeJC0dbfBbH4YPf/wsAG1l+EhpvOVX2nD/qWcwuM6JJDY2Fj4+PoiIiEBTUxM++ksx3VHXwlRfrkX41nWaixcvnuHz+ZMqLdcQE9NhjYZmbGgANBQUFDQUn63UFJ0yvatxUl46NDP6NQUFBZMyk2WseLm6w8/bB+fargMAGM6zoO68hXv37hncv0XdPeJoBJ1u1OByuWjpaENnl9qia36YqW9uROz2VE1BQcGUEA6AFg+aqYuCw+EUSiSSM1sK92o2H9pl1M2spaMN4VvXkT7lMbkG7t3uN/xCv+Eb9HjzatRaSjwcHB0ww3YG1J23DO47Z6bdkNkfurS3t8PB4Qerhcvl6k3JozEfsgfbCK10JiW0eNBMVTQAzvD5/A8uXrx48iv1tw3BKas1RafKDIpIS0cbdh7Zj+CU1ZpFzwc3DAQjrfJFtUZluTmEBwrxXd8P8z6Ys13gRDgZ3JflYI+KigqDr6nVar356QBw9epVOsPKApApuStfip5SwgHQAXOaqY0GwBkOh6OQSCRkixxeUl4628/bh6rj6OxSa+qbGxXx8fGa0ooycvbJmFOn7/ffxeCv0P27kyeG6OzEwJaYDfjg6AdIf46H6dOnD0nX1U27nclk4o033oBuex6yO7avry9Vx6RUKmE7zYYWjzHS2aVG+NZ1muVhPzlTUFAwpYQDoAPmNA8OVJ81lUoVLZPJ2DqvjWVY1rABc0O9rUwd/jQeBKeshvd0DdWRl4RMu+26exdpaWnw8PBAYWEhvvnmG8rKqKurQ2hoqN5cHrFYDG+HR+hmiGOgvrkRSXnpmoBlQVNSOABaPGgePAzV34yl1iZw2rRpeS1FZwMHTyw01FV3IgoER2PAp471T86DjwsD59quo+xKG55c4IctMRtQ8ZkEVY3/oebvKJVKKJVKAICHh4deI9DW1la8++67dCPEMUDGOFa+FD1lhQOgxYOGZjSGrTAHhg6DslY33bFSdKoMb7yfhZl2M+DEYGHnuk0IDxQCoNwnIB6dPeL0zKamJuTn56O7uxudJ2TjuPoHh6kaHDcEHfOgoRkDdzW3KddVf2fPpBQOAIhdHgVnJ4Y2QDuoKn+gqBLhW9fh3XffRWhoKPh8PjVBs6mpCefOncMXFy5g9RNeOPZ1C1o62mjLw0SKTpUhKS9dU1BQMOWFA6DFg4ZmVPh8Pqov18KQ5UEOfJpmMx39t26P99JMgrQ0DOHsxEDEc0L8/Z+H0ST9BJXHj6PrrlYIPRmO8HFh4HdBPLAc7HGu7TotHiay+dAuskPulKnjGA1aPGhoRsHZ2Rkd33w/7OuWnBg4kQT7LsLf/3kYry18bKKX8sAwkIqL+uZG+D8boOTz+VIAn2OKCwdA13nQ0IyKQCB4KAri/Lx9qJqQkfBkOKL6cu04rGhqU325Fn7rw+Dl6o7q3KO4+J86llQqXQSANdFrswS0eNDQjIyGw+Eo6psbp/yT4mg4OzHg5eqOVnX3iPs52tIOi5EgJz3Gbk/FznWbkJ+cDS9Xd7watZbIysriAeBh9G7ckx5aPGhoRkbB4XCOuzzCUjwM1ocx4sGaaYcvrkz930VLRxsqz0sses7qy7UITlmN+uZGVOce1UtO2LxmA6582cQuLS2NhjadfEpDiwcNzchoACj4fL7mYXDVLPVbRInHcE0UWQ72D0xTxKS8dIu4JAfa+yN2eypejVqLym2HDCYUbInZQKSmpj4Q1gctHjQ0RrBixQqcrX/wxcPP24cSD9WNm+jrHVrw6DjDBi0dwzdRnCp4ubpjS8wGxG5PHZMY5pcfht/6MHR2qVGde3TEOe6xy6PgQcxhZ2ZmxgEIwRQWEFo8aGhGRyMQCBTVl2sf+LiHbtDcxsYG/XeGdg72ZDg+EOIBAEmRaxHsuwix21NNPrboVBn81ofhcFUZit7KQdFbOUalL+9ct4nIysoKkcvlcZjC7itaPGhoRkfB4XCOez++QGFpH7mlqG9uxOZDu8Z8Hi9XdyruYWNjM6Lr6kGJAe1ct4lyOxlD5XkJwreuw47i/dgSswHVuUcN1gANh5+3D7bEbCASEhKmtPuKFg8amtHRAFDExcVpKj6bnOKxo3g/mMTIM8qNhXRd2dnboa+vz+A+c2baPTBxD7LCvvK8BCMNFiMtjc2HdmFtaBTqPzw5pFrfWDav2QClon1Ku69o8aChMQ6NSCRSFJ0q00zGm2blecmIvnZTWOq3CI031Zg+fbpBtxXw4NV6kAKy+dAuPQEh58B4xS7FvrLD2BKzYUyioUt+cjaRu3tviEwmew1TUEDohG0aGuNQcDic4yKRiFd0qoxnqRu1JRnc9ddc/Lx98IG6GzNsbYd1WznazoDi2oMR9yDx8/ahenx9caWRSuWNXR6FordyTHJNGXu9nes2EUKhMKS5uVnDZDIV0M6ZmRLQlgcNjXFoADQkJyc37Cs7/EAHzoN9tem63f13YWtrazDjiuvCeGCC5rqQAkJOpGwpOov85GyLCwdJ7PIohD0TQgiFwikX/6DFg4bGeBQCgeD4dEc7xUi+8QeBYN9FaLpxCzNsZ6Cvd2jcw1puq8kgSKSA1Dc3WryI0BD5ydm429nDTkhImFLxD1o8aGiMRwOgISMjo2FH8f5JZ31YMhZDxj3s7O0Nxj0cZ9jAycay9R6V5yVGZzxZG1JANh/aZZEsttGo3HaIOHXyXyGpqalTJv5BiwcNjWko4uPjJ531Eey7yKKps8G+WvGwtZ0xbMaVxyxHi16zvrkRft4+FjvfWPHz9kF17lFUX64dcyHhaDg7MVD0Vg5R8OEfQ8Ri8ZQQEFo8aGhMQwOgIScnZ1JZH16u7hYXj1Z1N/qmaW8R/XfuDNnHZ/Ysi1fdWyrd2FJ4ubqjctshAED41nVWrW0ZsHaIhISEEKlUOukFhBYPGhrTUYhEouPzn+Iqdh7ZP9FrAQA8Pd/H4jfyYN9FkHXchJ2dneG4B+Fg0Zupl6v7pMzgGrAKEPGcEOFb141YCzJW/Lx9kJ+cTaxcuTJEpVJN6gp0WjxoaEyHin3sKzs8Keo+LO22An6Ie9g7zDQoHtzZsywaNPdydZ8UAfPh2LxmA/KTs60eByEzsCZ7A0VaPGhozEMhEAiOC38cqthRPPHWh5+3D1o62izqlw8PFGrFY6Y9bt++PaTmw3GGjUWzroJ9F6H6cu2krlwPDxRScZDglNVWW+vOdZtQ8tFxtlwun7Tt22nxoKExDyr2kV9+WDMZnpjJm6+l8PP2gRODhW+7bsPW1tZw3MOFAUu2bIldHoX88sMWO581ICcD+nn7wG99mFXiIM5ODIQHCgmxWMwGbXnQ0DxwKDgczvGUlBTFeKRzjsZSP8u7roJ9F+Fc23U4ODqgp3vorHYfF4ZFBWtLzAbsKzs8qd1XJPnJ2dgSs8FqgfSI54S4dOmSxc9rKWjxoKExHyr28WnjxQkfFuXnbfmgecRzWtfVzAHxGOy64ru6oL650WI3+4FxrVZPjbUUSZFrsXPdJqsIiLMTAyqVyqLntCS0eNDQjA0Fk8k8npycPOGxDz9vH4tXfYcHCnHrng1u9t6Bra0tem8PbVXCd3WxaCX25jUb4OftQ41znezELo/ClpgNk6bAcbygxYOGZmxoADSkpKQ0XL76vwmNfXi5usPZiWHxG254oBD/brkGR8IJPd1D55v7P8LE4SrLpq/mJ2fj1ai1CN+6DpsP7Zr0VkhS5Fo4OzFgydTtyf6eafGgoRk7CiaTeTw+Pn5SWB+WFrCI54S4+L0K9jO1rUqs7boiSYpci+rco9rK8/Vh2Hlk/6S+oW6J2WBREa1vbsSyZcssdj5LQ4sHDc3YoTruTvS8D2sEzcMDhXBisPDfzi7Yz7SHuvOW3uuOM2ywxH2OVYrnyArvordy8MWVRnjFLkVSXvqkdGeRnXcttbYvrjSCw+FY5FzWgBYPGhrLoOBwOMcFAsGEjqp1dmJYpUo7PFCIc23XwXCehd7bvUOsjyXucyzuutIl2HcRit7KQf2HJ7VprFvXIThltVWrvc3By9XdYtZRZ5eaFg8amoeASTGq1hpuKwB4NWotzrVdx+1792FnZ4duTZfe6z4uDHSplVa/mXu5umPnuk3YErMBrTevaQ6c/rvCK3apZrK4tJydLDfnpPpyrYbP5yug/WxNOmjxoKGxHBqRSKSoPC+ZFC1LLImXqzvCA4WoarkGR8IR3V3dQ6yPqPnuGI+Yz+ZDu7Dzbx9qJBLJmYsXL+4rrSg7+VXPdw1esUs1SXnpU6JGxEgUTCbzOADFRC/EELR40NBYDgWTyTzO5/MVE13zYQ1ejVqLT9uuw87eHjNsZwyxPpa4z7Gq9dHZpUbs9lTUtDZoJBLJGT6f/wGAPwsEguySkpLs5ubmk3ZesxuCU1ZPmCXS2aWGl6v7mM9T39wIJpOpgVY4aMuDhuYBRwNAsWLFCs1kDOiOlWDfRXhygR/OtV3HLOdZ42p91Dc3IjhltcbWzblBIpGcHBCOMwC+g3bu90kOh5NdUFCQLbv8xcma9q8bglNWa8Y7/tTS0WaRWfKdXWrw+fyxL8iK0OJBQ2Nh+Hy+xSu9JwuvRq1F2ZU2zLC1NZh5tcR9DhzuqC1a77DzyH4Ep6zWpG7ZdKakpCSbyWRmQyscuk/kGuiIiEQiyc478MGZV/dlaZLy0sfFCmnpaENLR5tFLI+pAC0eNDSWRcPhcBQtHW0T4mqw1JPvcIQHCvHkAj+UX2mjMq/6evWrzlf7eGFH8f4xp6yS1sY/vvqs4eLFiydTUlI+AHASWpEY7vdLiYhIJPqgubn5ZPes6Q3hW9dZ3RosOlUGj1msKVGTYglo8aChsSwKPp9/vKWjbUKCnF9cacTT8607ynVLzAZUyb/D7Xv3QTAIqG6o9F73ZDgiasE8mPvE39mlpqyNn/1qzZmLFy9m8/l8Q9bGSGgAnGEymdklJSV7f/2bDQprTwLcV3YYe0MT8OFPXsH/ZF/AK3YpYrenouhUmdG/h/rmRiTlpSN2e+qkTtMFgBkTvQAamgcMDbSBc81EuDAqz0tQ9FaOVa8R7LsIK5aFo+DyWby28DHcvn0bmltqELN+sHgi57vjg0v/Q1JeuknrKTpVhs2Hdmn8nw1QNDc3N3A4nEKYJhq6kFYIIRKJNKmpqQhOWY385GzELo8y43Qjr/sppjuC5nEBAEHzuNgU8nOc/PI8/vy3w0jKS4eftw+8XN2HiLtKo0Z9cyPqmxvBsLHDC958/MTLD2z2pBzjQUGLBw2NFeDz+ePu/yaDw37e1rU8AO2wIr/1Esg6buLpOS64fu172Nnbwc7entongeeN3bXnkZSXjvzk7BHPV3SqDDuK92tmu7sqSivKGgQCwXFob/wWyTYqLS1FeKAQzk4MJOWlw8vVnaoItwQ7ivdj949iqZ8d5rLwlCsXPjxf/J+6C7eVKnza3ICr6uu4+s23esc6APjN4wJ4BkTDg8ECAORcKLfY2qwFLR40NA8AnV1qbD60C1tiNozL9ZydGMhPzsb6997A74J4YDjPguqGCnPmPoLp07XecMcZNnhj0RPY/Z9/IykPQwSks0uN/PLDOFxVppnt7qrIem9bQ3x8vEVFA9pBSuzCwkLilWU/Q+zyKCrlt3LbIYsIbdGpMsyzZVBWh+0sAjNdtSJgY28HG3s7AEBQHxcA16hzzrJ3hGwSz/IA6JgHDc0DweZDu9DS0YYvrjSi8rxkXIK14YFC/CpsDT649D/ct7ODo5Mjbl6/oZe+SwrI2f/8G+Fb16GzS43K8xLt03/sUs1XPd81FB49fPLixYvZ8fHx2Rg9IG4qbJlMFt3832/Y4YFCAFoR83J1t9jMkB3F+5G6OBIAMM1mOpw8HtV7/f7de+jpUJp0zqfmeE7qWR4AbXnQ0Ex58ssPo/pyLSq3HUL15Voq08nP2wcRzwkR7LvIoi4aXXau24SWjjbsrj2PNxY9gWl9fbh1sxNMlgu1DykgRxvl8IpdSm2Pj49XFBQU7AVwHtYphiMA8PLy8njBvosIMgvN2YmBym2HEL51HWWBmMtgq8Np3lxMs9F/Ju/XdOH+3XuGDp/S0OJBQzOFqW9uxOZDu6iZ2sG+i7B5zQZ0dqlRfbkWZ+trsfnQLkpM/Lx98PR8H2pfS5CfnI3wreuwu/ZrpD3DxW1VJzpvquDswtTbz/8RJlrV3bjR3av5cWSkIicn5zy0wtFgkYXoQwAIkUqlcX8vPsYGQP0OgB8EZKzjg3cU70f6IhEAYIaTI2ydh6ZJ3+m+bfJ5Z9k7QC6Xj2lt1oYWDxqaKUxSXro2eD3Id+/sxEB4oBCkq6azS5vRQwrK4aoy1Dc3wsvVnfrHnqsdJqV7rsE/k4Vwg3/2cnVHfXMj9nzehFWPe6BT2Qm1uhfKnl403lSjVd2t4fP5io3Z2zQikUjB4XB0YxvWgK1SqeISEhJCNi6OJG71diMpLx2V2w5B1wIZLZA/EkWnynDvdi9emM8HoA2SG+Juz9Dpi6PBm+MJuVxOAGDDsm48izHt/v37E70GGpoHjcBp06bl1X94MtCa2VY7j+zH2fraMbld6psbKSsFABTXfhCHAWHQ66/EZDL12mYwmUwsXLiQ2i6VSpGVlQU+nw8+nw82mw2BQAA+n6/b5M/aPZsIAGErV65Mv/afr3jHVqYBAFaV7IG3j8+YBEOX8K3r4GPjjMylqwEALn6Gg+GqL/9nltvK8/1ETXNz80kOh5MN61hnY4K2PGhoLAv5tEhYUzhaOtq0sY0PT47pPKRVYciF5bc+TFNSUnJGJBIVwkgLQSAQIDMz09BL49Xkj3JXnfrHv9gfr/kd9cKhsCSsKtmD8K3rUPRWzpgq8Vs62nD56v9wGcAL8/0RNI+L+3fvDYl3ADA73hE0z4eQy+VsDodDmL1QK0JnW9HQWBa2SqWKhlZArEZSXjq2xGywWh1J0akyTHe0UwwIx0loYxNj+Tderhc9dxVZNwFo01+PrUyD2107+K0Pw1iaJu4rOwyRSKTJyclRrDu5T9NwvRVdV78bst/d3j6zr+ExiwWZTGb28daGtjxoaCwLIZPJ2MG+i6z2tFh5XoKWjjYkRa611iWwo3i/Juu9bQ2YpP72YSAA8HJzc3lud+yJlxeG6r1oO4vAvDme+P3sV1FZfw5vvv8u9pUdxtrQKJMrzivPSzQnPq48w+fzTwNYtmrDayHHVqYRgUyGXtD8fv9ds9+MJ4MFhWJSjvIAQIsHDY3FkcvlVm1OSBYDWusaO4/sx2x3V8VAwd7kvXsNha1SqaLz8vLYB4Xr9F6wc5lF1V8w5nvg53Mj8eITz+LoF6exrSAPmw/tQnigkEptHul3W3legumOdgo+n18I4Ex8fPxlAFi14bWQY0gjFvH4VJHg/f5+s9/Mc/N8sE82ebsz0+JBQ2Nh5HK51ZoT5pcf1ha4Wbg3E0lLRxv2lR3WlFaUTTWrAwCI3Nxc9o/dniLIugtAa3EMLtyb4eQAx0fn4KW+JXjpiSVouN6Kf12R4Q+F+xH7bSOVZebsxND7W6o02iLHn8WuImM430ErIACAnyYkhOx9Pp5Y/fQy2LvMwh1Nj/Xf9QRBiwcNjYU5ffo0EpessPh5O7vU2FG836qND2O3p2oS1r98RiAQGB0kn0zk5eXhyE//j/rZZqb9EOEAtEHsrm+vUT/z5niCN8cTqQM/N1xvxa3eniG9qBwAPEm4wtnZWfd0GgwICIfDwcqVK0Nqvm0iMoNXYZa9o0Xf32SCFg8aGstBAGDL5XLCS2T5QHZ++WGLFvcNJikvHTbODoqcnJyxdLKdUFQqFTx1guROXm4GM6BGq/rmzfEc+L+h6bfDNC3UADgjEAjQ3NysWblyJe+Fo++w94Ym6FlBI1HzbRM8Z7Go5ohX1deNOm6ioLOtaGgsB1ulUkXL5XK2pTvbDriT0Nmltkrfqp1H9uPk52c0EolkKrqrKAQCAT5ulgHQxjnIpoSD6VN3Gdw+RqgZIhKJJPudvN1nEiWHNKtK9qDm26YRD8y5UI43L/4NLxx5Bx99fQ6AVkxWrLC8BWspaPGgobEchFQqtUqm1Y7i/fiJlx+emMmiGgxaivzyw8j/xxGNRCI5w2Qyp6S7agBNXFycYu+Fcg0A2Ls4D7vjvT7zA9mjrQEDkwzj4+M/aG5uPvmTdWsaSBH56OtzuNXbPeSgY1+f0+Tk5DSc+GdlQ3ZtqeanR97BJ+1fakQi0XjUxpgF7baiobEMVOtvS5+4paMNRafK8PnGfDzSZ4ONVWKEb12n12rDXJLy0kmL4wyfz/8AU9RdNYAiPj7+eFZWFu+jr8/xfjU3EjOcHAzu2N819AZuYUgrRJGZmclLSUmJLi0tZZ84cQIbP0wheHM82U894kmQLrart5QKkUi0F4Cmubk5WiaTsTkcjmJgGNakFHNaPGhoxg4BIKS0tDTu1D/+xfZkaK0DsvX3WNlRvB+/CPopuD5P4naHEntD47GxSgy/9WEoeivH7BjIAyYcwMBTf0ZGRsPvkt9g//SxAMKT5WIw5jGe64F2smRDfHw8MZCVxZZKpdEymYxNtl3PiVnegIHuwkwms0EgEBAYv6p8s6B7W9HQjB2eSqVK9/b2Dtu9JJZ4YT4fmWeP4m//u4AtMRvGVMxXfbkWsdtTUZ3xR3g7uwIAbv1Xgbu3e/HR1+eQefYY1v5kpcl1H/nlh7Hzbx8+SMJBQgAIEwqF6c90M3hvRcZTNRe63KwfOQYxEjkXysF48ZnzmZmZydDe8M1ZI3vgvySTWigMQcc8aGjGBgGAl5CQwAuczSFemM/HdDtbZC5djQ9/8gr+UnpkTK0wdhTvx2vLoynhAIBpNjYAgJeeWIKP1/wOVxoa4Lc+DDuP7DcqFlJ5XvKgCgcw8LSfk5PTsPdCuaa2QTamFiFWgrRIJqJ9i8WwGaaJGQ0NzeiQ7qr1OTt3LfxoZZod4xEWGPM9MWOmHdxsCax9MhizbOyQXXIIxWdOYqadvdGjT4tOlaHi7Cc4mLAFM221WUP9XT24rTOVbpa9I6Iefxb+rt44WXcGrx/agfrmRvTe6YOzE2OINdLS0YborNc04j8XnhEIBA+acJD0PProo6rOzs65+aXFbmu8F9vZMWdh2vRp1A63TZzsp8tn3zbB/nG3bwUCwT8BfDvqAQ8otNuKhsZ89NxVYU8FYtbj+v0Qe6/fRE+HEvfv3sNHX5/D3gvlUN/tQ+zyKKwNjRpWSOqbGxG+dR3++su3IPQPorZrFG24c2v4e/1VtRIfX5Hh4ysy1OhUSpO0dLRhedhPGgoKCsiRrw+acJAQAML8/f3TA+6zeNvCXwbB/iH+NMFuqwcCOmBOQ2MeBABeVlYW70mnucQL8/lw8nIbspP9HBf03epCf1c3Xnrih1YYH311DmvSX4X6bh/8vH2w1O+HoPcXV7RDm55iukPwdCC1/f7deyMKBwB4MFh4eWEoyKaAZKU0SdZ3R7Fs2bIp5183Aw2AhoKCggahUMjmXfAk1tr81GC1ual4zGLhzKVLY1/hFIcWDxoa82DL5fLo3Nxcdk3cDjjMZRksSLvb2zckLZQ3xxO8pauRuXQ1rqqVaPi+FV9+00q9/qy9K559JgxV1xr1MoX6NaYXtv1QKQ3c6u1Gw/XWSV07YGEUfD6/MCcnh0je8FrIU3M8iYV9/bAlDKfvGosHYw5UN+WWWeEUhhYPGhrToayOjYsjCU/mI7BnuRjcsfdG54gn8mBo21GQo0xJar5tQtW1Rr1tY62Krvm2afBEvwcdqueUSqXCqs1bQ46tTCN0BZXGfOhsKxoa02HL5fJosVjMfnlhKGxnEcPWEvRrLFeMNprLajRqvm2EQCB4GFxWumgAnElJSfngZzGrzqwq2aNpuN466kE0o0OLBw2N6RByuZwdNM+HmGXvCBs722F3vHu71yIXvNvbZ/Y4U5LPJnmvJCuiAXCmoKDgg18nJZolILr7f/Zto94c94cVWjxoaExHw+FwFA3XWzWG+hSR9HeNbZZDf1cPVaNwp3Psvawarrdq+Hz+w2R16KIBcCYnJ+eDvP0fnPnpkXc0f7xUNepBt3q78dMj72DNP/+AjVViAMDHV2RYuHChdVc7BaDFg4bGdBQcDuf4M0GLFX+8VDXswJ+xTJEDtDcu9TctUF+5itvXb47pXA9hvMMQZAzkg4sXL54sVTc2rCrZoxmp4+3GKjEe8V2gaW5uVnzS/qVmVckefNuvfpiSDoaFLhKkoTGdPgDgcDhPvbnnXfZabpCdg509ZjjqZ/HcuaUx2/q4qlZi3+f/BO7fR6DrfGCM9Vh/+/ocnP3mN4tEoiMAmsd0sqlNH4D2Rx999NKGDRu+splN2L59JB/HPpc69t7tt+u92w9newf8T/UdXv/4EFSzbTX/+Mc/zjCZzL+tWbOmSz29X7N///7aRx99tBDAFwPneyihiwRpaMyD6qH0yLU+3t7QeMzicvTSdbvbv0evmRZDzbdNSJQcAgCkLxLhpSeWjGmxG6vEWJL40vmUlJSHurBtEGSPKV5paWn0iRMn2HK5HDKZDEwmE3FxcUhJSVEMtKn/HABr4JiHLenAIHSqLg2NeVBFaP7+/uyPr8iIn9pMB8GeR7UBv9tjfrA8aB4XKpVKI5FIlEKhkAWAGIuAXL2lpIO8Q6G63opEogaRSGSonb6uUHw3noub7NDiQUNjPgoOh0MVofEe8SQ87t6Dncss2Ls44+7t22M+v0AgOF5SUrIoISEh5FZvD0FWjptKzbeND3OwfDRIEaExAVo8aGjMhypCO336NNZV7As5tjKNmHUT6Lt5y2LnF4lE5zkcDoRCYUjNt43E3tB4zLJ3NPokH1+RgcPhPOzBchoLQ2db0dCMDbKGoPAR3wWKVSV7DI4ZHev5+Xz+B83NzScdnuY0BP35LQ0551qXhuutWFWyB5lnj+pt/7hZBpFIRPvpaSwKLR40NGNHA6ChpKSkwdaDpbGWgDCZzOySkpLsE/+sPPn7/0kbgv68RaM7E3vdyX2an6xbo6jq/IaqYRhowqhJTk6mhYPGotDiQUNjGRRMJrNQIpGcfDw4oMGcKuaPvj6Hq2rtnImG663gcDi6L5N++ZMCgSC7ubk5+5283SfPEKoG3ocpmp8eeQePPeOnyMzMLCwoKDiz90K55uMrMqT9W6xJSUk5M5lnYdNMTehUXRoay0GlfmZmZsbl7NwVsnFxpFFB7lUle9Bu24sb7R04tjIN/7oiw42nWOcLCgqGS62lrqVSqaJLS0vZAoGggcPhHATAEovFcYWFhexly5YpMjMzC/FgDn2imUBo8aChsTwEgBCpVBqXmprKu36llb1xceSwqbYbq8T4r323RiKRKMRiMTI2b2VPd7CDRCI5yefzszFyJpDuPGwyrgED22jhoLEotHjQ0FgHyjIQi8XReXl5vCtfNbFfmM8nPBksPDfPB7d6u/HHS1XoecRBI5FIzgwUo0Emk0UzmUwMuJpoi4FmUkKLBw2NdaFERC6XR0ulUrZcLsfp06cBACtWrEB8fDxZxXxm4Bhyli1tMdBMWmjxoKEZH3TdS4OhXUs0Uw5aPGhoaGhoTOb/AxMnJyPdQXWJAAAAAElFTkSuQmCC;" parent="1" vertex="1">
          <mxGeometry x="1410" y="10" width="229.97" height="125.07" as="geometry" />
        </mxCell>
        <mxCell id="nyfK1TEQBVx0Vw7CGjJu-29" value="" style="shape=image;imageAspect=0;aspect=fixed;verticalLabelPosition=bottom;verticalAlign=top;fontSize=25;image=data:image/png,iVBORw0KGgoAAAANSUhEUgAABHUAAAG9CAYAAACbEUpTAAAACXBIWXMAAC4jAAAuIwF4pT92AAAgAElEQVR4nO3dzXHb5vo3YPBM9s5bgZUKrDODvZkKrFRgZcG1lQosVxBlzYXlCiJXEHjPmUgVRKrgH1XAdx6fmzEjS7L4AeB5gOua0fh8JBYIUhTw4/0xWS6XFQD5mMybw6qqvq+qavVndec/33VQVdXzPT6Ad8vZ9NRLAgCA6n/Xp+na8O0eT8ZVVVV/P/D/pf/98s5//ns5m14+8M+P2ndjPwEAfZnMm4MIa9LXtIVwBgAAcvTiG8f06u7/MJk36Y+bqqquq6pqIuy5XM6m12N+hoU6AB2ZzJtUaXMUAc5UgAMAABt5Hl8vV//SZN7cRMiTvi6Ws+lDFUCDJNQBaNFakHN03ycOAADATlLI8zq+3k/mzccU7owl4BHqALQgWqtOI8x55hwDAEAnXsXX2WTepHDndMgtWv/J4BgABiOFOZN5c15V1V/xaYFABwAAuvcsrsf/Stfn8aHr4Ah1APYgtVlN5s3ZWpgDAADkYRXunMV4hMEQ6gDsaDJvjmIK/xvnEgAAspWu16/j+n0QhDoAO4jqnN+1WQEAQBHSdfvvcR1fPIOSAbYQZZtpbeIL5w8AAIrzZjJvplVVTUvekqVSB2BDk3lzKNABAIDipev5Jq7viyTUAdiAQAcAAAal6GBHqAPwRNFydW5+DgAADEq6vj8vcTOWUAfgCczQAQCAQVtV7BQV7Aw21JnMm4Oh7Z8HenUm0AEAgEF7Edf9xRhcqJOCnMm8Oa2q6q/YP3+awWEBBZvMm6Oqql57DgEAYPBex/V/EQYV6kzmzXEKcqqqehv/U+qLezuZN9exqgxg0/eV1RwdAABgHIqZrzOIUCcFNpN5c1lV1fsHBpg+r6rqj8m8Sf1xBz0cIlCuM4ORAQBgVJ6V0oZVdKgTc3MuUmDzxFkXL1Nb1mTenJm3A3xLVPhpuwIAgPF5XULHT5GhztrcnFSd82qLv+JNzNs5aeHwgOEwkwsAAMYr+/uByXK5zOAwni7m5pxGS9U+XFVVdbKcTZsCHj7QkUjl/yjofN9G0P13/LmLxnsiAAArcW28a9XKwdrXvu7nu/BjztfGxYQ68SI6jRaqNnyMcOe630cK5CDN4Grx/WYfPqXwJb4ul7Pp3144AACUIu7xDyMsmmY8x/LTcjbNtg0r+1AnZt+cdTjX4l36fm6QYLwm8yb9cvkzwxPwKTZxXXiPAgBgSGKN+PGWI1ba9t/lbLprNXwrsg51Ym7OSQ+J3W1U7VhjDCM0mTfnmQ1ITmHOqZYoAACGLjZWn2Z2Pf5hOZseZ3AcX8ky1ImE7iyDPjs3UjAyUR14nUn55036tMJ7EAAAYxPV8+dP3HTdtlT4cZBjtXxW26/SkxZzLH7PZHBSmqfxR/rUPtJCYPiOMgl00pyvQ4EOAABjlNqdlrNpCnZ+y+DhP4v7hOxkUakTn4yfxqrxXN1G9ZB5OzBgk3lzkUEfb7blnQAA0LXYgv2+5xP/cTmbZhfs9B7qTObNSQQ6uU66vusm5u1c5HVYwK4iYP6/nk+kQAcAAO7IJNj5f7kVefTWfpXWl03mTZpb8WtBgU4VbWG/pzax6PEDhqPvVYWfBDoAAPC1WGT0oedTk91q885DnTSbJubm/JHJ3JxtpXk7f8a8ne/LfAjAHX2WU97m2qcLAAA5iA9Ar3o8lOyu1zsLdVLwESvK/4pAZCjSmrXreGxA2fpM3o/N6wIAgG/qs7I9u0qdTmbqRO/bWWFtVtuwfhgKFRvu/urp6FPbVXa/IAAAIEepYyYKLPrww3I2vc7ltLRaqRNzcy5jmNHQA50q2sn+iHk7VqBDWfqckaXSDwAAnq7P6+esZuu2EurE3JyLmJvzoo3vkbnUXvbXZN6cmbcDxejrzfmT6j4AAHi6qJTpa2jycEOdtbk5qTrn1T7/7kK9iXk7J2M/EVCAvtqfzr04AABgY2nESx+yGpuwt5k6MTfntPCNVm1KE7pPfCIPeZrMm797aBO9Xc6mqvkAAGALk3lz3UMGkdU1/M6VOjE3p4m5OQKdh72IeTsX5u1AXqJNso+5XxdeCgAAsLU+rqef5TRmZetQJ1qtzmNuzpBWlLftVczbOTVvB7LRV1+sUAcAALbX1/V0NnN1tgp1Ym7OdY8rxIbgbczb6XPHPvA/fb0pa8cEAIAtxXiT2x7OX5mhzmTeHEXP2tuRrChvWzqH72MFelbDlmBk+qiau1rOpn97oQEAwE4uezh9ZbVfTebNYczN+d3cnFa8jHk75+btQC/6SNpV6QAAwO76uK7OplLnu8f+z5j5chqruWlfamdL1VBpNduZT/GhM30k7X18ogAAAEOjUuc+k3lzEnNzBDrdehbtbZep3W1MDxx61EeF3LUnHAAAdtZHqJNNh81kuVz++3/432yXc21W2fhUVdXJcjb1qT60ZDJvll2f2+VsOvF8AgDA7sZ8Pf9P+1XMcjm3njw76fn4czJvPkS4oyULynfjOQQAgL25qqrqxRhP53/S3JxYUf6XQCdrr2MF+unYTwTsUxoE38MJ1XoFAAD703nxQ0/3EV9JM3VOYoYL+fs8b8f6c9irPoacCXUAAGB/Rjss+UkrzQHYK6EOAADsz2jHlAh1AAAAAAok1AHGro9eWNvsAABgf5oezmU2M3UAxqyPXlhb7AAAoGxm6gAAAACwHaEOAAAAQIGEOgAAAEDJbL8CoBvL2bSPQW4AADBIy9l0tItIhDoAAAAABRLqAAAAABRIqAMAAABQIKEOAAAAQIGEOgAAAAAF+s6TBgAA+arr+qCqqqOqqqZVVR1WVfW8sKfrU1VVaTPN+WKxGO2GmrbUdf392usjvVZeDvORbuyqqqrG646hE+oAAECG6rpON+mnA7hJfxlfb+q6TgHP0WKx+DuD4ypahH3p9fF67OfiAS/ia/W6OxHuMETarwAAICOp8qKu64uqqv4YYNVFejxNVJewpbquT6qq+kug82Sr191xIccLTybUAQCATETYkVpGXg34OUnVE2cZHEeR6ro+r6rq17Gfhy08S6+7qHCCwRDqAABAPpoIPYbutZvrzdV1rd1qN8+iZQ0GQ6gDAAAZiBv2MQQ6K4d5HEYZIgR7O/bzsAdCMQZFqAMAAD2LtquTkT0PQp3NqDDZk7quvfYYDKEOAAD07yhaQ+ArEfqpMNkfg7oZDKEOMHbXXT/+ybyZjv2kA/AVvxt4jNcHPKKn6+vO7yPuI9QBxi6LN2MARk87CI/x+oD8CHUAAIDPxjQgmc0JdYB7CXUAAADyZgYMcC+hDgAAAECBhDoAAAAABRLqAAAAABRIqAOM3eXYTwAAWbjyNPCIxsmB7GRxHyHUAUZtOZv+PfZzAEAWfMjAY7JYnQx8kct9hFBn4Cbz5nQybw7Gfh4AADKnEoPHXDg7wH2EOsM3TZ/8TObNydhPBGRk6skA4I50037rpHCfxWKRKgI+OjnwoNFeXwt1xuFZVVW/TuZNo2oHACA/cdN+5qnhEV4fwFeEOuPyUtUO3OvGaQGgb4vF4rSqqk+eCO6zWCxSi95vTg5kIZvh9kKd8VG1A18zfBCAXBwJdnjIYrFIH85+cIKgd9ksWxHqjJeqHQCAzKQ2rMVikWZD/GLGDvdZLBbHVVX9pNIYqIQ6o6dqBwAgQ4vF4myxWHwfN+8f3MCzbrFYXCwWi4N4ffyWUysI0K3vnG/Wq3aWs+m5E8IIZVM+CQDr0s37ap11Xdcp5DmMr+/X/qziPz9z8sZl/fVR/e81Mr3z2jhcOyEvx36+YI+yuX8Q6rCSLgLeT+ZN6uM+Xs6mbnIZk8uqql51+HitNAdgY7Ehq4mvVtR13bj5L1cMU67Wg55S1HW9HPvzx066vr6+zOXp0n7FXenG9jrCHQAAACBTQh3uk6p2fp/Mm4vJvPneGQIAAID8CHV4jKodxkK7IQAA8FRWmlMMVTuMQTY9sQAAQPbM1KE4qnYAAAAgI0IdNqFqB/bj0HkEAIC9Ge31tVCHbajaYWiuO348z7yCAABgb7q+vu76/uFBQh22pWqHwVjOptm8KQMAAHnL6f5BqMOuVO0AAABAD4Q67IOqHQAAAOiYUId9SlU7l5N5M3VWKdAnTxoAAPANWd03CHXYt+dVVf0xmTdnqnbgYZN5YwMWAADsaOzX1UId2vJG1Q48SugJAAC7G/V1tVCHNqnaoSQ2YAEAAN+S1X2DUIcuqNqhBEIdAADgW4Q6jJKqHQAAANgjoQ5dU7UDAAAAeyDUoQ+qdshR0/Ex2X4FAAC7O+j4HHZ93/AooQ59UrXDmAk0AQBgd12HOlkR6tC3VdXOiWcCAAAAnu4754qe3VZVdbacTc88EfTM9isAAOBbbL+C8CGVyi1n01MnhL4tZ1OhDgAA8Kjc7hu+8+l0kf4u/Pg/VVV1upxNsxowBQAAACX5z3I2Pa+q6se40SZvH6uq+mE5m14W+jzdVFX183I2nQp0wKBkAABgN59n6sQN9nQyb45TBUUMryUfKQw5LjgI+Tw3J2bnlF5lxLBdVVX1oqNHaKU5AADsrsttyle5PV//GpScqnYm8+aiqqq0iehtf4dFuI02pZKHCKfqopN99h1O5k1aWZcCyHNzUNgzoSMAAPCQ7O4Xvtp+FZUUp5N5cx7VFa/6ObTR+y0CnVJvMq8izNlbddFk3nx/J3B8O5k371QAAQAAMEYPbr9KFRDL2fQo5u1kV2I0YJ9ibs5JoUHFbczNOdxzoHMcQ73vVpCl/34d/z8AAACMxjdXmqcb83SDnm7U44addqS5OT/FEOFSW4rexYry8339hZN5k2Y9pcHQ76uqevbAP5b+9/fpn0v//L6+N6NU6hByAACgfdndL3wz1FmJG/WDaAtif1JQ9m45m6Yw5KKF83oSgVGbVtVFe2sXS3NzogXwjw0G16Z/7o80Fyrm7sCmtPEBAAAPye5+4cmhThXzdlJbULqBtwJ9Lz5EZctpW98g1p8fxvfatxQW/bjP6qI0N2cyb04jAX295V+T5kClqp3TmMMDAAAAg7NRqLMS83amMW+n7SqQIUqB2H+Xs+lxF3NzIow73mMLXfo7fonqon3PzbmMOTkPtVo91bP4ey7N2wEAAGCItgp1VmLeTmpz+cW8nSe5iSHC06ig6VS00B3uOPj6t6gu2tua9cm8OZzMmybm5jzf8zl5HvN2GvN2eIIuyylfekIAAGBnhx2ewrLbrx4SN/gHLbX4DMFtDBE+3OcQ4W1EldVhHM8mVtVFe9vKFa1W6Xz82cEN7suYt3OuJYtHGJQMAABl2bXLYxPlDkr+lrUWn/+at/MvHyLM2dsQ4X2IOT5PaZ9b38q1txdwzM253mFuzrZexwr01uYYAQAAQBf2FuqspBv/mLfz08jn7VzFEOHjXFeUxzycVLXz8Z7/u5WtXJN5czSZN9d7mpuzrc/zdtJxpOPp6RgAAABgJ3sPdVZSEBDzdt6NbN7ObczNOdznEOG2RIXV0Z25SHvfyhUrytP5+L2FuTnbSsfxe8zb6bIPEwAAAHbWWqizEsFAWyu1c/MuwpBe5+ZsI+YiTdeqi/Y5Nyf93X9lPBg2Hdef6TjN2wEAAKAUrYc61ZfhvMcxw2WI83ZS+9IPuc3N2VS0zu1zRflJzM1509mD2M2bmLdzUsjxsmclVNcBAAD9yPF+4bsuv1mcgOlk3qSA5zSjNpxtpZlBx24E/y1Wh58X+vymeTu/RrDjuQUAACBbnVTq3BXtSdus1c5Fmj3zSwwRdtMfYm5OGqr8xwACu+exAj3N2znI4HgAAADgX3oJdaovA3pTtc4PD2xfytVvMTfnrKBjblXMzTmNuTmvBvbw0rydv9LjM28HAACAnHTafnWfWPd9FC07KSh5kekr5FO042S5nrwv0Up31uN68q6kFewnqS2rxEHYsG91XacKtqMYsH44gOq8b7mJGWGX8dUsFgu/D/YoXlOr11P6Ohj46+o2XkupwvV8sVgUO5OvJPE6W//6Pl5v1Y6vudXMyL/jeU1SNfffi8Xi8pF/DwB20nuosxJtTIcZhgTpQj7dyF9kcCzZKCCEa0N6Tb6PeTsnWu8Yo7quD+NnP9dtdm15Hl//PO66rm/iXLgh30Fd1+n3/snIfp9U8TvlZXyd1nV9tlgsTjM4rsGo6/puSNjm+9b6372qWk4fCKXjSH9crQXDKRR2DQHAXmQT6qykKoiYy3La89ak9AnaWbSIEWK+TDonr0d8Tl7EvJ2PEe74tJ5RSDedBW2z60IKeX5N7wN1XR/5NH4zdV1/H1UqYwsI75MCnrcRQhwJCTcXr6fp2lduIeGL+HoVz3UVQU8TIY8PDwHYSnahThXzdqLV5Sy2KHV9wfchbtZdVIWYJ3MSX0NvtXqqV7HN7SwCQK8XBquu6/ORh7mPSeFOk27IBTsbaUZYnfMtL6P66zjvw8xDVA5OoxW0xHBwFfS8iZDnYwSdF4I9gCzd5nhQvQ1KfopUAbGcTdMv6x+jDaptqR/6v8vZ9NgN+hfREncZZcQCnX97FuflMs4T5fvkOfy3uq7HXp33FOm94CKqBfiGeE0JdO73OlV+5XhgOUgzcVLVYF3XqUr2z6iWG0q1V/qw6H1VVf9X13V6Pzn2ngKQlSw/vMuyUueumF1yELNMTlsIFlJgdGoA7r9N5s1YZ2ds43nM2zmO15JeeQYhhoq+9Ww+yfOosLAd8RFxk3qS7QHm4SwqNvjymjka2eylV/GVAqz0WjhTCQjAfbKu1Lkr1ogfRHvUPqTyqXdpgJ5A54tYUX4en4AJdDbzMubtnFuBzkCYK7YZYcW3Han6/Kbn0Vo0aukcROvndVSwjLG661lUSv5Z13WjiguAu4oKdaqYt5Pao1Kb1I5tEh8izDnVavXFZN6cxsWTVovdpPN3HecT7hVb5LIVn457L9jM86hu4mFZv+4zMtqW3jSfKgUY8eHSayHgP9IHR7+n1rPYGgcA5YU6K8vZ9DLm7fy04bydtGngx5ibY2tRmMybo8m8uTY3Z68+z9tJ5zWd3wE9LvYn90DZzfd2nLfHjb4C5YlGd57Wwpw/VAo/6nPLd4Q7ri8ARq6ImTqPWc6mn7cEREXEY5uZbmOjlTarNbGivI8NY2OSLr5+n8ybT/Ea1BPPZwW8Ftx8b0elzuMMSH6a0fz8xSr3U9ciG3selTufry/M3AEYp2Irde5KbVRxAXTfvJ00N+dAoPNFzM1JM4r+chHVmXSe/0zn3bwdCuF1Cv0ZfNVsbLJSmbO7lzFz58y2LIDxGUyoU31ZgX4cK9DTpxYfq6r6wdycf4stYqnV6k1OxzUib2LejoGq5E6lzna0X8EjUvCQAggfLO3d5+sLLVkA41J8+9V9Yp20i+o7YijreZTr0q/0CeyvEewcW4EOwBhE4HDmWqQ1z6IlK32webxYLHyoCTBwg6rU4X5pbs5k3lxEebOLqLw8jxXoTcw3AspnCD/cEdU56Vrkd9cinXhVVdVlzCsCYMCEOgMXlSB/xS938pXKz//SkpUFrQBfGLq5HaEOrInqnGvXIp37/MFRXdenI3vcAG3JcjSBUGf49FWXxfNFTpTtb0eo87ibnA8uI4M4TzE75/cxDH7O2NtUJWWIMsDOsvxdJtQBCB1vJSvhhk2lznbMyHqc19XTFB0OxmarS0sZspGqpJr0vIz9RACDNOoPjIQ6AF90WVJZwg2bm+/NXS0WC5U6j7vI+eAyUux5inar9P7xIoPD4YsXMWfHZkNgaDq79orlQ1kR6gB84RPMNRFOXGVzQGU4G/sJeIIUVtxmf5T9KzLUqev6RLtV1p5FxY4BygDbye5+QagD8EWXb9KlzKsRUjxdqtI5L+Vg+xIrlr2uHvepxIqvuq7T6//XDA6Fxz2LAcrHzhMwEF1eVwt1ADLW5SeXRbQ2RUihWudp3CA93ZnX1YNuS3stxbry9J72OoPD4eneC3aAgejyulr7FUDGrDO/37F2mW/6ebFYmEH0RFGtMxXs3OukpCqd2KjUmJ9TLMEOwGayu18Q6gD0M/SsmA1JEVZMx75Z4AHpnPxX29Xm1oKd30o79pak19KPJb2WYpOSQKd8783YAQrX6XV1bsOShToA/3PkPDwsgp20MeWdcOfz4/9QVdVPi8XiQIXO9lKws1gs0mDdH6qq+mWklTtXUemVXkvFhL2xQcmGq+G4sBUL4Mmyum/4LoNjAMhBp2/Oy9m0mJu3laisOE1f8anu6it9Wv88j6Pcm6u1oXvN2p+XcR7Yo2g3SnN2zqKd5zBeW6v/XA2kPfJT/NlEINKU+HqKm//GhqtBWW3FEuwAxUnX1ZN5p5fW6b7hJJfzJNQBRm8yb446DiWKr3SJioJHf3vG4NQuP8X/sFgszIYoXIQc33x9bauu66NYud2F36ISaTDWWq4EOsPzrNRV+gBxfd3V9fzzdP+wnE2zeM/UfgXQ/aaZ4lYVb6nrX3RmQvAUXb5OBnWDHFVUFwKdQXuhpQ4oVNfX19l8kKhSBxi1ybxJnzq/6vgcFNd6taV08/e2w+/3PLUOmHHDN3TVanlb0oycbxnBlqvbaIm7Xrsx2PT5WwWGB/F1KAAD6EzTcav2q3QfsZxNe/+wVqgDjN1ZD49/FKFDClfquu6yFLaKmyqhDveK1qGuXo9Da2O5GFCgc7OaaRR/7mtW1lch0NqMqNWcqMMBziADyEEf139nOQxNFuoAoxXrCLuu0qlGVKlTxY3gmw6/31FPQR1l6LL1akhVOucDGFT9MZ6TixjM3Yk7M6I+vzdFuHgUr8c+fgcBDFEfv3dTtc607wUoZuoAozSZN+nT0/MeHvvVcjYd0/akrqsVXsYn43CfLj9NG0SlTl3XadDz6wwOZRspyPm5qqr/t1gsjhaLxVmXgc5D0jHEsaTX4/+LY/zY93EBlCyur696eAjncV/RG5U6wFid9lQCP6Yqnc9bsuq6vu14rsTUBhce0FWlztUQVt/XdZ3O168ZHMombiKwP88hwPmWeJ18Pt6o4DmOLy1aAJvrY/bb87iv6G3bpUodYHQm8+a445agdaMKdULXAUvvvc3kJw3R7jBc7KMKcK8iYCgpHE1hzs+LxeJgsViclhDo3BUVPOnYD6J65yavIwTIXl/X2W/i/qIXQh1gVCbz5rDHmSu3y9l0jBUkVpuTgy7DviGEt6WsLl8Pc4oP01bSYxHuAGwmrrNvezptZ3Gf0TmhDjAa8Ubb9HijMsqWoMVi0fXjfh5VGbCuq7DvpvS1+nVdnxWw6SpdtL8bWphz11q4867HGxWAkvR1vZ3uL5o+gh2hDjAKGQQ61RBaMnbQ9RBQ1Tr8I4Znd7W9qejwNubo9NWe+lTp/eRzm1Xmx7k38VgPDFQG+KY+r7d7CXaEOsDgRY/rnz0HOjd9rzvsmbk69Mkq8yeI8CvnUCpVqvwUm6zGtEXws/SYY2PWT6p2AO4X19t9tq2ugp3OZuwIdYDBSusFJ/MmpfXvM3iMo/lE+QFWm9OnrkKd2x7aDffpPOM5Op+iOmf0m+3iHBzEOQHga31fd6ffpe/TfUgX686FOsAgTeZNuolLcy1eZ/D4bse+Yjs+Ve/6BkQLFitdVW6VXKWTfl5eZXAo9/ltsVhMx1id85Co2pnGrB0A1ixn0/NMKhrTfchl3Je0RqgDDEp605zMm3Rj9UcamJvJYztdzqZuRrRg0YNYzd3Ve0GR4W1UteU68ytttjrJ4DiyFLN2tGMBfC2XKvl0DfJHuj9pK9wR6gCDcCfM6Wog6lOkWTp9rVDPjdXm9KHL10GpFXknGYXgKymk+O+QN1vtS7RjTQU7AF/E9Xefs3XuetlWuCPUAYo1mTcHk3lzOpk31xmGOSudDUnL3WKxSM/TVYeHabU5VYcVW1cltgdFJdPbDA5lXQonpqWvhu9SnKuDjt9jAXKX43X4Kty5jvuYg13/wu/2c1wA7YtBY9P4Osrwk+W7Pox849V90ifKLzr8fqvZSqMRQdZDQ/n+HuGNcleVOqVWlORWSSjQ2VIKFWM2UtPx+yxAltJ1+GTefMhkxuZdz+NDlbeTeXMT18jp/bvZdGyDUAfITiTW61+H8ZV7iLPuJloa+LeLjqsCjjK8ad2rCHGOI7z45o1cXdfpj4/xXFwMefhsnJuutjkVF+BmOBxZoLMjwQ7AV07iPiLn98R0j/MmvqoIeS7j63r1tZxNr+/7l4U6QG8m8+Z4rSwyx9apbaUbkyPDkb+Wbtbqur7pMKD7vNp8iMFF3Lidbvmz8yq+zuq6Pothq0PUVevVTaFBRE7Pu0BnTwQ7AF+k6/G452g6/KBnV8/j618fvEzm//r8aLVV9txMHaBPB3FDOqRAp4pAx43JwwxM3lEKYvY0Rypd3Lyt6/oyNiANTVfPfXEDkuOmP6f33iOBzv5EkH1seDLA52DncoBbUVf3UAdCHYD9+tkcnW+y2nwHdV2fr8pz9yh9mj+oYCceS1ehRYk/8zlV6aS15d439yxCMlsAAWK+Tvp9M8RzIdQB2I/0aehPy9nU+t1viJu3Lj89HsxNTV3Xpy0O+0tlvs2Agp2unvfbWCldjMyqdD5YW96eCHYGeRMDsKm4Tv9paFWMQh2A3aUZMdPlbFpcC0aPujxXg1htHo+h7SHTLzKr4NhFV6GOKp3tXRko374IzT4M/XECPEVcr0/j+n0QhDoAu0lbhA7N0NmYuTqb62qL15uo5ChdV213pVXpHGRSpZM+JT0e8va1nCwWi+MI0QBGL67bD+M6vnhCHYDt3ES7lS1XW+ihXaXouTo9tMsU3Q4TwUVXG9ZKq9DLpUrn1GDkzhmcDBDS9Xu6jo92rKKrdoQ6AJtJF8TvlrPpgXarnXX56cjLwmfFdH0jnlrWjjv+nvvUVaXRVUmVJvEzkEPA+WmxWHRVeUaIEG0o7ZUAe5Gu59N1fbq+LzX4FuoAPM1NDJtMYY6L4v3QgvUEPbbLlPw67yq4KK2i6do10poAACAASURBVCjW2Pet5MCwaBGmacMCuCOu7w/ier+oyh2hDsDDbmO45I9RmXOu1WqvtGA9TV/Hnap1Sj1nhiTfL4ehxO8Wi8V1BscxZkI1gHtES9Z5VO78GPcB2VfvfJfBMQDkJqXzR4Yftyu1rdR1/anDKpRSh//2eQN2UuAg4GlH1Sg3Jc2EiYqvFz0fxm2HA795QHrd1nWdblReO0cA91vOps3qw5vJvDmM66Gu5vVtRKUOwNeuBTqdsdr8ETEDpc8b8ZcRBpSkq/CutJlaOVTpnNl2lY1TQ5MBnibuC7KtMhXqAHzt5WTeXE/mzflk3hS9NakA5uo8LofXX2mtGl2ds9Jar/p+LaXKJvPIMhEtcKqmAB6R7gPifuC6p/mGT6L9CuB+z6M0/fVk3tzEQNTUY2sWxB6lG4u6rq86rEY5KuxGJpdQp4ib8Q4rm257WMu/tahQ67tkXICQn7Oo4MpheDZAFibz5iCufY5zbbe6S6UOwLelN/S3VVX9FWl9ae0ouevy5ri01eY5VBaV1LZmQPL9+n4d3Ra4KWzwohWutDZCgFak6/t0nZ+u9+O6v4hApxLqAGzsdYQ7p5N5U1I4kDMtWPfocODvU5TSttZVZVNpN8J9t9Cdm6WTLS1xwKil6/l0XR9hTpED5IU6ANtJCf7lZN6UulEpG7FB6KbD4yllTlJOx1nKXB1Dku/IYNh2pfUqXzFb5+PYzwMwTnEdfxnX9cUS6gBsL5Vl/jGZN25YdtflTbKqk829yL1tLbZ0dVEqfVVY1Unfr/dPERyQL61xwOjE9fsfJbVZPUSoA7C7N5N502jH2onV5ms6DCg2kXuFk9ar+/Ud6ggMMhdDv603B0Yh2q3SbLw3Q3m8Qh2A/UhrDgU7W1osFk3HNxW5V+vkGKDkHupovbpf3691g3jL4HkCBi+u05uc15NvQ6gDsD8vBDs76fKmQtXJ5l5leEzruggvbmIGVBEymKfz0YDkYgh1gEFbC3T6njO3d0IdgP164eJ4a1abf7kRz/ITpLquswzDOtwUVtoq877bDL0XFkILFjACF0MMdJLvMjgGYLzWb5DWP2XPcZ7IJl6m4WvL2fSknEPuX7qpqOu6y+OYZnrTmXNr2NHIz5nWq82UFoKNXVNARR7AxmIocuktV2lT7PrigdXv2EaoA/RmOZs2j130T+bNQQQ8h2tfpSTsn4cnL2dTn1Rv5mOHNxW5BhQ5t4blGjh1cs6imqEkfVbq3Nh6VZwLoQ4wNJN5c1TYUOSrWLO++rpezqaP/j4V6gDZijew6/XgJ/php3ETN828ouc8BVPL2dRMiafr8qZi1AHFlj5vDstprkyHc2M+dvA99q3PUEeVTnmKmRcF8BRx35D7Fsab+J2ZroGbbe4bhDpAUeKN7mJVYTGZN+nG/DhuhLuYqbGJdDxncXw8TXpe33d0rlJAcZBTNUGsWs/tdXzXUWY3f1qvHtZn6C3UKUwKa+u6vi3gPQjgqU4zfU+7jeuK8+hc2IlByUDR0hvhcjY9jjatdxkOenw9mTd9DystRmzK+dTh8eZWFVNCAJjbOevqeIoKKWJ4dJ9UfZTJ8wYMQoxxyK3t6jbuV1Il//E+Ap1KqAMMRargWc6mp5mGO2cZHENJuqyIyK0FK+chySsvUoVTHofyWRfn7KrA+TC9bncrafU7/6LCChiKnNqu1sOc032PZhDqAIOyFu4cZjQD46VqnY10GepkMxQ0gpJSBoFnET7FOeuixajE1qs+33O6rLZjv4RxQPGiSieXbVfpfuSwjTBnRagDDFIasrycTVNbxs+ZVO1Yb/5EURFx1dX3q+s6l3aiEqp0VnI5Z10dR4mhTp/VVLZelctgf2AITjN4DOn+4+d0P/Kt7VW7EuoAg7acTc/jZvmm58f5Oibw8zRjbMHKeevVXblUOHXx3N0U2kok1GFji8VC+xVQtLjeft3zY0j3HdO4D2mdUAcYvOVsehmtCJ1VfzzAFqyn6zLUySVM2XdQctNmlVomFU5dhDql3uT2GSILBgDoS9/X21fRbtXZB0JCHWAUood12nOwI9R5oqiM6Kq66nnfg39bCkialm+uew11YrtTF2tKS2y9qgqaz0R+zEQCStbn9fZVVOh02soq1Bm+Ui9Gx8rz1aK1YKevGTsvYnAbTzOmap02vv9Fy+ew77a1Tr7/YrHwvrw5w3YB6FxcZ/f1ocZtH4FOJdQZvuVsmlYp/5DRFiDulz4V+yGeL1q0Fuz0paRhuH3rchXlEAOKpuVQJ1U49blhqYsgzu/OLSwWC8N2y+b5A0rV6zV+H4FOJdQZh7UtQD9mMCyWf0vPx4/L2XTa9lR0voge1196OiUlDcPtVbRgdVVV1dvg3whG9r2W+yrdWMfNdZsth728nuu6/r6jT+KKrNKJ1jTYlkoroFR9XWf/0uUMnbuEOiOynE2b5Wx6EDezOax4HrPb+OE/SM/L2E9GH6Iqqo+5AW62NtPZTXWPg3/beE1cPPCf921I5+w+3p831/dAegDGq4/r7E99d1sIdUYoXnQp3Plt7OeiJ+m8H2i1ysJJDwfxbDJv+mxZKc0YVpu3MdBvPYxo8xy+6GnIdBdhUqp2UkG5Oa07AHQurq+7WKBwVx/3E/8i1Bmp1O+3nE1PYt6OLQfdSOf5v+m899Vvyb9FmeSHHk6Lap0niiG1XVUWdl510lIb0e1isfgn1Omgja2P13MX39OAZAAoRx/XIx/6bLtaGWSoM5k3x5N5cz2ZN5eTeePm6RExbyedo5/M22lNOq8/xdwcfer5Oe3hiFTqbKarFpg+Vpu3tcr8rsG0YLU0g+g+Qh0AKEcf19d93Ed8ZVChTgpwJvMmXcy+jwu+9OnnH5N5c2GN8OOWs+lFzNt5Z97O3qTz+C7m5rg5yFQMqO66Wsf70WaGvNq8ra1XT/nf9qXrIdNdfFhzExVOAEAZur6+/pDLoptBhDqTefP9ZN6k1bd/VFX18p5/JF1w/jWZN6fpn+3hEIuxnE1P4weij5aUIfkQc3OySG/5pi5XZ1cPvE/xsCHP1WkjRLrvfLV6DjseMt3Fc2RAMgCUpevr667vHx5UfKiTgpqqqlJC9voJ//jb9M+m9qwODq1YMW8nnaP/mrezsU+xovzY3JxyxAayTtsPVQ8+Xazl/tjRt+us6iTWTu97oN/NfcN9B7bavIvnSHUlABSih+vqm5w2GBcb6kzmzVGamxNBzSYXxemffZ/atMzbeVya/xLzdn42b+eb0vn5Oebm+IS3TF3fxAl1NtPZz1WHVSddzdNZafM13snv0wjCWhcDugGAMnR9XZ3VdUJxoU5aVRZzc37fcVDiy5i3c+4T88ctZ9PzGDxl3s7XbuO8HMZ5olxCnbwNsQVrSKHO8xhg3LYuAreuqsIgV34/AaUR6pQg5uacVVX155775VLb1qV5O4+LlqzTCHfM2/mfjxHmnGq1Kl8PFVYumjcQLUVttg+taz04iC1bbWxwevAio4PV5l0ELlaZQ/v8fgJK0+n7Vm6dGUWEOpN5cxJzc9609C2eRRtXCne63nxSlFiBnubt/NjhDVZurmJuzlEuE8/Zmy5nSAmRN9dVNVwXq83b+F1zFbNzHlPsavO6rr+PrZZt00K7mz5WygIwbl1eV2c3czbrUCdWlKeb5l9bGCZ5n/Sp6e8xb8dFySNSOrmcTQ9j3s5YWrJuY27Oobk5g9Xl8+o9ZnNdPj9tB/xdrTLf5p/Z1ouWw7AuPnS5um/QNBvp4nqNdvn9BJSmy/et7O4Dswx10oybmJvzR0vl6d+S2rv+jHk7Pk1/RMyROYi5MkP2LlaUm5szbG7mMhbtQ10NbW+tzScqTtrY4PSUKpy2W4vabI/SegXdEMwBPCy7+4WsQp2Ym5PmtvzVw575+7yOFeinGRxLttbm7fwwwAGTqbzuB3NzRqPLN2mB8Xa6uuluc212K+HEYrH45idHha82F+o8Xa8XnF1tKWP/Ohp4DrBvXV5XC3UeMpk3x3GC3uZyTOHzvJ3UBmYF+uNi3s5RzNspfQX6TczNmZqbMyqXHT7YLmaDDFFn1XItrjZv4+/dJFBvM7hoJQyLG822K3dvohqseFrI2IEPHIASdXldnd21Qu+hTszNSSfmfeblns9jBXpjBfrjYt5OOke/FDhvJx3vL+n4zc0ZH9VY+etgg9O6toL8rleZ39VqNUpLYVgXH6p4z98fH4KVy3MH8Igc7xd6C3Vibs5FzM0p6RPr1Bb2V1qvbt7O45az6VnM2/kt5+Nc81vMzTnL5oiA+3TVIrP3cCIqTtr4AOPJgUQHs4lKDXWGNk+nz4pZH36Vy3MHUJjOQ521uTmXLc8saNubmLdzUvBjaF3M2zmJeTvZrX8L6bj+m45TpQYZv075oqub7zZWm7cReGzTNtRmVUobAUwX1wtDq9TpswVLMFAulToAD8vyPqHTUCfm5lzG3JwhTNZPj+HX1D42hHk7Ebi1ciEW83bSOfopo3k76Th+irk5g5ijAGOwWCwuOmzB2ncI03fr1UqbwdjzfQ5b7Wjo7scYIj0kfT6eHJZdsKHYzNfH1lkAdtBJqBNzc5qYmzPEXxYvYt7ORanzdiKUuo7WstO2WsuWs+lFzNt51+O8nfR938XcHOtroUxdVVXsLVCIqp822o23ORdtn799hldtbtRaGeI8nV4/rLABq0ieM4ACtRrqROXHeczNGcOnNq/aDkXakOYDxXO0qp5KlVSXUVnViliBnm5wPnT8cD/E3Bxr6qFsJa42b+uGaeNzEVUpbZYQ7zOIMU9nO31vwLIauzxCHYACtRbqxNycdEHxeoQvjLcxb6e1UGQfJvPmMDaPvbnnr0sVVe9j21crv+Rj3k46R//toD/xU6woPzY3h1wYtr6Tzm7C97jNqY2Kk6sd2obaPIcv9jGPKNpB2l6mcDXQFeB9PyYBQXk8ZwAF2nuoM5k3R5N5cz2guTnbetZ2KLKLGPDcPOFi+WW0lp23OG/nMubt/NzCvJ309/0cc3OsqyU3PsneUgQZHzv6dvt6D29j2O8u72ttvyfu47xpvdpe37PiSl6GMTottocC0LK9hTpR9ZEujH43ZO1fWg9FNhEtcenT2V83DN1eR0tWa21Ly9n0PG5y9zFv5zb+nsP4eyFHBnTvpqub8Z2DhT1W+9y1dbVNIavNu/hQZJC/IyL47Gt23Wctvu7ZP88VQKF2DnUiJEgzWf607eBR/4QifbVcrA1D3vbTsxQCvU2VWKkia8+H91m0ZJ1GuLPtvJ2PEeacarUiZ16fOytptXkr4cRisdg12GozGNtHpUbboc7tFuvgS9L3YxMUlCPrkQEAPGynUCdaeK4fmMnC156tDSHu9EInKmz+2FNLXKrE+j1ay1ppH4kV6OkC48c07+CJ/9pVzM05Sv9+G8cF5CPmoDz1/WFXu75nt/Gev4/2s1aDsV0qNWItetuVv0PfgNh3a5lQpwBarwDKtlWoEyvKr7do4eF/Wg9FVlLLVwxDftvCX58qs/6M1rK2VqA3y9n0MObtPFRGfhtzcw7NzYHR6ap1ZuuKkRbDiX283+W82tzWq931XanzTAtWEU7GfgIASrZRqBMBQRMVH+bm7K71UCRueNr+9OV1bPtq7aIg5uIcxJycde9iRbm5OeyLNtKydBXk7tJK1FY4sfNj72C1+S6PvYtQZ+gfBOTQWqatJ3+CN4CnyfI+4UmhTszNSe07f7nhacUqFGltCHEHUsXWrzFvp80V6Okc/RBhzg/m5sC4dTDs9x87VBy0ccO0z1kwbVarPI9KpW20vT3p4w7r4IsQLYqd/Hw84tU+1tvTjrquj31QC1C2b4Y6k3lzHHNz2mjf4Yv1IcTZrUDfwPPY9tW0uAL9OsIcc3OAqsMWmo3fm+u6/r6lD0P2+ZjbrlbZuFKjrmtVOvuTw+NUrZMvrVcAhXsw1Im5OelTwPfm5nSq9VCkI+km5q+0Ga2vbV/AaHTVfrlNxU1bbQ17u1HvoNppm4Cmi3aQoc/TWckh1DmJgJOMRHhqQDJA4b4KdWJuzkXMzfFG35+hhCJvorXMp3RAKyKUeGiQ+j5ts9o823k6Lf99615kdN5WrqI1aQxyCHWeqQjJUslt/wCEf0Kdtbk5lx30sfN0b9oeQtyBdDH3PlV+Fd5aBuSrq6qLTStI2qg4aSOQaPv8Pfk8dLReeTSbEjOZq1Op1slLzAgzJxNgAD6HOlFFsVp7rdUqP6shxKWHIi+iteyi8NYyID/ZzdWJ1oY2fqfuPZBYLBZtn79Nfnd18XtubBsTc2g1U62Tl7OxnwCAofhPVIC8N/m+CKtQpPRql1fRWnZq3g458XosV4QSXbRgbVLJmv08nTs+tvT3VrEB6ak/X23/jtvn5rBS5DI/6K1NWP2r6/rUdT/AdnK8X0iVOm5i6EuqDLs0b4eMbLt6mTx00lKzwWrzVsKJFqtq2j5/Tz0fbQ9JHsuA5H8sFoumo9DzKcZWJZWVCNVUTAFsL7v7hW+uNIeWPY95Oy4wgF1l04LV4lyYTy38nSu9z9Wp6/qwgzbw0YU6IZfH/XKDYJT9OzdqAWBYhDr0LX1y+NNyNtXbDewqp2HJbd20tvYYOxio+5Rz0kV78WiGJN+R0+/Zc0OTu1fX9YnhyADDI9ShT2l+w8FyNh3rp6bAHi0Wi79bnguz8pTV5qWsMr+rzffjZ1GJ85i2Kzg+xutkdGKOUA5bsKqoFPG7v0Pxs2eFOcAACXXow6o652g5m47y4hpoTVdVGA+GD1GBsMlA5afqYsBv2+fvWzPU2q4iGGuVzkpO82xexsBeWhbvSdquAAZKqEPXVOeQsy43y+XyifnQ5DBXp63XUeuPrc/V5h3NWRn7757chhS/jdX/tOuspRlfALno8ro6u99bQh26ojoH/u3a+di/mAtz1cG3eqwSp7RV5ne12cL24pHWtbYvkq7i9TFa8fi7aFHcxMUT2vLYUszRee38AQM36t/vQh268El1DtChTqoRHqksKXWeTlffp+vztjL21quV3BYTPDM4uR11Xad2x1+H+NgA+EKoQ5tSdc4vy9l0qjoH6FBXN+9fhRBRcfC8he/VZZVJ5y1YLa6AX5db61EvFotF01E12ybSc98IdvYn3oveD+XxAPAwoQ5tSdU5h1aVUxgtAAPQ4Zaf+ypOSm+96mK1+at7bt7brtLpYsh0SXL83SzY2ZMIdFSmAbQju/sFoQ77tl6dY2YIpXEzMRxdtHvet9q8+FAndF2t03aoo/13zWKxOM90WLtgZ0drgY5NVwDtyO53lFCHfVKdA+Siq1abf8KIlluIug51up6r0/bmK6HO13JdJy7Y2VJsEhPoAIyMUId9UJ0DZKWnFqy2qk0+LRaLTueSdbDa/J/zFpUFbd+EakW5I+NqnWot2HloUxp3xFDkPwQ6AOMj1GFXqnMYki57ZAWg7eviRn49yBlK69VKm6uvn62tsW679arzUKwguVbrVBHsXFp3/m11XZ8aigyMXJfX1WbqMBiqcxiiLj/h9HPTvi5abp5Fy0PVYjjRV+tQ22HScfyp9aonUa3zKeNDTO/Jf9Z1fZLBsWQntajVdZ1e32/Hfi6A0evyujq7ikihDttQnQNkL1qIbjs4zqO6ro9a+iXf59amroYlv2z5+wh1Hpdztc7Krym8MGfni7WByK9yOSYA+iHUYROqc4DSdHFDP22xSqe3WTCx2vyqxW/xooMKjJt4HDxgsVik19iHAs7Pq2jHartdL3vRbvVni4PZASiIUIenUp3DoE3mzehvFAaqi1DkRYstRH1XmbR9/tquElGl8zQnHVW17ep5GgZc1/XZGKt2UnVOXdeX2q0A+pXbfYNQh6dQnQOUqqub+uct/b19b21q+/y13Zcu1HmCGCRdQhvWyps0PyE2Pg1ezM45U50DwH2EOjwmld3/V3UOUKq4WW1zi1Obem8ditacEio47nMbx88TLBaLs8yHJt+VAsH3dV1fD7klK1oUryPIAoCvfOeU8IB3y9m0pE/tYFcHHZ9BN5vduSh0mGguVSalDmNVpbO5VPlymeNmj0esWrJSIHUeG72KFq1lR1E91VYVIMCQNB23pnZ93/AolTrctarOEegwNlm9ObNXpQZouRx3qeGI4HRDURlW6vrwl2uVOyclztyp6/og2qzS8/BeoAOQLaEO2UrVOWkYcl/rcwH2roMtTm3JJZQoNRxRqbOFqHQptWWxiiDk16qq/q+u6/O6rtsaYr4XMS/nuK7r9HP2V7RZlVQpBUDPtF9Rxc3OsTAHGLDzuNErxaeYB9S7FIrVdX1V2IDWbM5foVZtWKVXirxOX3Vd30bIl4KTi75fG6kip6qqabRYldjaCEBGhDqYnQP/Y6X5sF0UFurkVh3TFBbqqNLZQQo9osKlGUjVyLNVwBMtWlcRWqXHd7lYLFr9UCsGOR/G11RbFUDxsrpvEOqMl+ocYDSi2uSmoJup3EKJi8K27wh1dpSCjti89L7oB3K/F/GVQp4UulRxXfT3WqB6Gf89+fuh4Keu6xTUrOb3fB/BTRUX/N9bQf5Nb+u63nS46VXMHfoczNlyB4ydUGecVOdA/wSq3SslmLhtu3JgU+mmKVpYSqja6H0V/FCk+ToRWoxhnfYqfHl53/8ZwQ95WIVyryIUWrXXnQ71Zz8Gf0/ja1X1ZfbSbv4Y2c/1pwhDs2hDbcGor6sNSh4Xm63gYZ1OsV/OpuZ9dK+UVce5fupcyqfhqnT2aLFYnBQ+OJmneVfweVq11/0Vw7GL23z2kNiIln53/V9VVb9HwPpSoMMWXq5aUFO4U9f16ZB+Vnq4rrb9il7YbAWPM+Ng4KL65aaAR5lreFJKWCLU2b/jQjfI8TQfFovFUD7wSzetzRBuVtNNd2xEe53B4TAsKRRMbY+XUY3J5rK6bxDqDN+l6hyAf5RQbZJrKFHCubs1X2P/okx/WkgoymZSWHcysHP2ovRgJ6pzNp01BJt6Hj8rWVWdsDmhzsAtZ9MT1TkA/8i9iiPbeTBxXLlXa6jSaUkEO2kj1u0gH+A4pZ/n6UDX/6dgp8gPNCPQUZ1DV54V1J7OA4Q6wOhN5o115iOxWCwuMr8pzb3KxPGNWLQwTgU7g3Az4EBn5U1pFQix/l6gQ9de1nV97KxvJqf7B6EOQPfMpuhXztUcuVea5P5pnkqdlgl2BiE9d0cDD3RWjvI4jCczLoG+lPazcp/RXl8LdQC6Z/NVv3Ku5si60iRu6HO9mf80kpvU3gl2inYbFTpjac0v5kY1qoruXakPHXg1gJM82msAoQ5AVQ1mpSNPkms1x1UhoUSu50+VTocEO0VKn2IfjCjQqQoLSYZQKUHBov2Pp8vm/kGoA1BV1jmOSAQnHzN8xKWEElau89lasKOlNH9DHor8qIK2YLkWoW9eg5vJ5nwJdQAYoxwDgFKG/OZ47rLdGjZ0gp0ifBxroBNKuVG1Vpq+qVwvlFAHgDHKLUC5XSwWRYQ6cWOY2w28Kp0exWsiBTsfRnsS8vXbYrEYy1BkgFES6gB0/+nYmOYZZCmqOnIKJkpbxZ1biCLU6VkKDRaLRVqJ+27UJyIfadbRz4vF4mTsJwIYja6vr7OprhPqAHT/puwT0zzktJ5bqLO9YqqcxmCxWKSVzD8ZoNyr1fycnN7j+uR3LoxD1z/rQh0A6FlOwURRlSaZrTZXpZOZxWJxEXNMzNnp3m8jW1n+Tc4FMHRCHQBGKVqwbjJ47KUO+c0lTFGlk6H0ml4sFofasTqTQtafUruV+Tn/ksN7/FN5L6NvFg4USqgDwJjlEEyUeiGfy3Gr1MlYtGP9WNjNdWnSgOqDqJDi30p6f3VDTd+8Bgsl1AGoqpfOwWidZfDAS70Ry+G4P6lKyF/MPFK1s38pKPsxDaj2c/CgkkIdoRx906q4mWzuH4Q6AIxWJluwiqzUiZvIjz0fhpugQsR2rFS1898Uxo39fOwotVq9WywWB3seEj605+W2pGHR8Z76IYNDYZyuhMPlEuoAdM8nIXnps1qn9Iuovm+YhDqFSUNrF4vFNK3b1pK1ld+i1eq0wGPvWonnyPNKX4awLW+019dCHYDu+SQkLxc9bnIqOpSIGR59nbtPhQ6Y5n+vnfNUaRItWdaff1uq4Pih5UHIQxrUm94fcmiv3Ui8p2lTpGu3Awl1Rnt9LdQBYNTiBqmvi/8hXEQ5d2wtKk6EO/e7XQtzjjsIMYfyKXdqqT3K4Di2Ej8T2rDokrlchRPqAKM2mTfTsZ8DPjvv4YZyKJUmZz2cu5uSZmXwuLV5Owfasj67iZDroKMw57OovCv93Ke5QNPSb1DT815V1S+CTjrws81528vlPkKoA8DoxU1T1xUngwgleqp0MndigCLcWbVl/ZTBIO6upcf7UwxAPu0pmDgqNEhIx/xLmtc0lIqDaB87VLVDS1ZVgD4gGYDvxn4CACCkC+iTqqqedXBChlZpks5d+mT5eQff68pF6PDFJ8cXdV0fRNCQXl8vBvjAryLgvcihci8Nsq7r+jCC02lHP9PbuomWsYs4f4NrH4nXxHFd1yfxczCNirZsVilThPSzch0/L2l2VqPdaliEOgAQVQJ1Xacbx987OB/HQzrna+fujw6+3aDOHY9bq6I7G1DA82ktiMiuBXMVJGRwKIS4AT83Swy4j1AHAEKqDqjrOq0MftPiOfltsVgMacvMZ+kx1XWd5oC8bfHbpPaK0a4sHbs7Ac/3a5ULuVeUXK0+HfcJOQD7JtQBgDVpZXDcML5u4bx8SH//UM93mgMS1RRtnbviVhTTjruVC/G6O4yvafzZRSvlXVd32hwuhTgAtEmoA4zd92M/AXwtbR6p6/p6z1Un72LDz6DFuWuiomJfN9W/CHR4TFTxXEdb02cRzh7GDJKDeL8/jP/7YMvqnhTarEKaZu3Pv1WRAYxOFvcRQh1g7A57ePwu1FXIjgAACvRJREFU/AsQVScXEU7sMpQybZg4Hcj68idJg4wj2DndsWpndOeO/YkKmcG1OgJwrz6urw/XP0zoi1AHoGPL2VQpfiHik/fp2oDWo2+0ddzGRcXqa5AbWZ7inq0tq3P3WHXEp6i2aMZ87gCAzaTr68l8nDm+UAcAvmF9QKtztRlbWwAA2vMf5xYAAACgPEIdAAAAgAIJdQAAAAAKJNQBAAAAKNB/lrNpWjf6c2zsIG83VVX9tJxNrecEAACAkftcqbOcTdNGirSu9bexn5BMpcDt3XI2PVjOpr3vwQcAAAD690/7VdrrvpxNT6qq+qGqqk+em2x8SIFbVFQBAAAAfPbd3dOwnE2vq6qaTubNtKqqVMHz3KnqRQrWTpaz6eUIHzsAAADwDV+FOisxt+VgMm9S9U6qEnnmZHYizc05jZY4AAAAgHt9c/vVcjY9i3k7H5zCVn2em1NV1aFABwAAAPiWByt11qV5O1VVHU/mTQp40tdLZ3avPkR1zvWAHhMAAADQom9W6qxL812Ws2matfNTtAmxm6uqqn5czqbHAh0Yj8m8OfB0AwDAfoz5+nqjUGclrdVO67WjXei2lSMbtnTOfl7OpocxuwgYF6EOAADsj1BnG7Fm+9C8nY28ixXl5uYAAAAAW3vSTJ3HRNtQmrdzHluyzNu538dYUa7NCgAAANjZzqHOSrQRTSfz5jjCneeens/S7KFjbVYAAADAPu3UfnWfaCs6jDajMUtzc35Js4cEOpC1Pn4+D70kAABgb6Y9nMos7vP3HupUsQI95u38EG1HY/NbzM05G+FjB77te+cIAADY1d7ar+4T82OOJvMmpWYp4Hgx8GfsU7RamZsDAAAA3Rjth6athjor0X50GPN2UrjzrIvv26GbGIJ8MbDHBbSjj/JQAAAYqtGON2il/eohMW/nINqThiDNzXkXc3MEOlAgM68AAKB4nVfq5HIf0WmoU32Zt3MS83Y+df399+hDzM05LfgxAP146bwDAMDeDH3Uy4M6D3VW0tyZ5WyaWhB+jPalUqQg6r/L2TTNzvm7oOMGHnbb9bmZzBvDkgEAYEeTeXMw5nPYW6izkkqWUvtSWv/dx43VBlLw9HMKopaz6WXGxwlsro+faWvNAQBgd31cV2fTddR7qLMS678Poq0pJ5/n5qQXSswEAoanj6o7oQ4AAOxu1NfV2YQ61Zd5O2lD1n8zSb4+RJhzqtUKBk2lDgAAlKmPzbLZLFvpZKX5pqK9aTqZN0exAv15x4dwFSvKbcWBcegjtLXWHAAAdqdSJ1dpTXjM23nX0byd25ibcyjQgVHpo1Ln+diHugEAwC4m8yYFOs96OInZ5AVZhzorsTb8sOV5O+9iRbm5OTA+fQ0/P/JaAwCArR33dOquc3nKigh1qi8r0I9jBfo+5+18rKrqB3NzYLziZ7+P7XtasAAAYHu9fEia8olcnrNiQp2VWIGeboR+jjXj20r/7o/L2fQopycE6E0f1TqvtGABAMDmovWq6/m7VU7rzKsSQ52VaJM6jLapTaRP439Js3rMzQHW9PV+0FfJKAAAlOykp2PPqiik2FCn+rICPc3b+SHaqL7lt5ibc9bvkQMZ6muuTl+/jAAAoEiTefN9VVWvezr2rIpDig51VmLezlHM27m65x/5FHNzTszNAR7Q15vzs8m8EewAAMDTnfZ4rvr6MPhek+VymdPx7MVk3qR2hlSNkwKcFORcDOBhAS2bzJv0Bv2ih/N8G1WEQmcAAHhEzKT8q6dzdLucTb/P6fkZRKXOXTFv5yDm5gh0gKfqrVqn508bAACgFOc9Hmd2c3kHGepUX1YUA2yizzfpN5N508tKRgAAKMFk3qQPQl/2eKjZFY0MNtQB2FQGlX3nsZoRAABYE2NW3vZ8TlTqAGTuKZv02pLasBrBDgAAfDGZN9OYm9unq7SkKbenRagD8G99V+usgp1pz8cBAAC9iwqdP+I6uU99zvJ50CC3XwHsYjJv/s7gl0bybjmbGqAMAMDoTObN91Gd8zqTx/6DSh2AMuQyAO1tWrOuagcAgDGJ6pzrjAKdTzkGOpVKHYCvTebNQVVVf2V2aj6lks/lbJpl2ScAAOwiKnPSNthUqf48s5P5c67X4UIdgHtM5k3T87rEh9xGJVE6vibXTwwAAOBb4sPUaYQ5rzI9YTfL2fQgg+O413cZHhNADk5jIFtunkUZ6udS1Mm8uYnS1BTypFlAl6vjXc6m2a1cBABgXO6MEpiu/XmYyRzLb+l769ajVOoAPCDjap22GdAMAMA/JvMmXRu+HeEZSVXyB8vZ9O8MjuVeBiUDPEywAQAA43WSc6BTCXUAHhbtSx+cIgAAGJ2rEpaUCHUAHncSZZcAAMB4nJTwSIU6AI+Icstj5wgAAEbjt1KWjgh1AL5hOZteaMMCAIBRuCpptqZQB+AJlrPpcbzBAwAAw5TGLhznPhx5nVAH4OmmVVXdOF8AADBIR8vZ9LKkBybUAXiiSOyPDE4GAIDB+bmUOTrrhDoAG4jkfirYAQCAwfi5hPXl9xHqAGwogp0DM3YAAKBo6YPan0oNdCqhDsB2ohVraisWAAAUKc3KnMam22IJdQC2lIKd2Ir1s3YsAAAoRvpg9rC0ocj3EeoA7CjKNQ+rqvroXAIAQLZuot2qqLXljxHqAOzBcja9Xs6maTPWj1VVfXJOAQAgG6mq/l1U5xTdbnXXd3kdDkDZYg3idDJv0ryd06qqXnpKAQCgF6kyJ1XVnw2lMucuoQ5AC9bCndSWdRxfz5xrAABoXRqLcFHyVqunEuoAtCiGr52kr8m8OYqNWenP5847AADsRWqvSh+qXkSYM8iqnPsIdQA6Ev27FxHwHETAM40hyy88DwAA8CSprSp9eJqCnMuokh8loQ5AD9Jg5ejv/ackNFq1vo+g5/sIe5IDlT0AAIzIbYQ2yfX615gDnPtMlstlfkcFwIOiyuegxTN0HaETAAC4/syYUAcAAACgQP/xpAEAAACUR6gDAAAAUCChDgAAAECBhDoAAAAABRLqAAAAABRIqAMAAABQIKEOAAAAQIGEOgAAAAAFEuoAAAAAFEioAwAAAFAgoQ4AAABAgYQ6AAAAAAUS6gAAAAAUSKgDAAAAUCChDgAAAECBhDoAAAAABRLqAAAAABRIqAMAAABQIKEOAAAAQIGEOgAAAAAFEuoAAAAAFEioAwAAAFAgoQ4AAABAgYQ6AAAAAAUS6gAAAAAUSKgDAAAAUCChDgAAAECBhDoAAAAABRLqAAAAABRIqAMAAABQIKEOAAAAQIGEOgAAAAAFEuoAAAAAFEioAwAAAFAgoQ4AAABAgYQ6AAAAAAUS6gAAAAAUSKgDAAAAUCChDgAAAECBhDoAAAAABRLqAAAAABRIqAMAAABQIKEOAAAAQIGEOgAAAAAFEuoAAAAAFEioAwAAAFAgoQ4AAABAgYQ6AAAAAAUS6gAAAAAUSKgDAAAAUCChDgAAAECBhDoAAAAABRLqAAAAABRIqAMAAABQIKEOAAAAQIGEOgAAAAAFEuoAAAAAFEioAwAAAFAgoQ4AAABAgYQ6AAAAAAUS6gAAAAAUSKgDAAAAUCChDgAAAECBhDoAAAAABRLqAAAAABRIqAMAAABQIKEOAAAAQIGEOgAAAAAFEuoAAAAAFEioAwAAAFAgoQ4AAABAgYQ6AAAAAAUS6gAAAAAUSKgDAAAAUCChDgAAAECBhDoAAAAABRLqAAAAAJSmqqr/D3WDVNUaD0a5AAAAAElFTkSuQmCC;" parent="1" vertex="1">
          <mxGeometry x="1419.52" y="135.07" width="210.92" height="82.34" as="geometry" />
        </mxCell>
        <mxCell id="nyfK1TEQBVx0Vw7CGjJu-30" value="" style="rounded=1;whiteSpace=wrap;html=1;fontSize=30;fillColor=#dae8fc;strokeColor=#6c8ebf;" parent="1" vertex="1">
          <mxGeometry x="990" y="168.92" width="310" height="490" as="geometry" />
        </mxCell>
        <mxCell id="nyfK1TEQBVx0Vw7CGjJu-63" value="" style="edgeStyle=orthogonalEdgeStyle;rounded=0;orthogonalLoop=1;jettySize=auto;html=1;fontSize=55;strokeWidth=2;" parent="1" source="nyfK1TEQBVx0Vw7CGjJu-35" target="nyfK1TEQBVx0Vw7CGjJu-62" edge="1">
          <mxGeometry relative="1" as="geometry" />
        </mxCell>
        <mxCell id="nyfK1TEQBVx0Vw7CGjJu-35" value="&lt;font style=&quot;font-size: 22px;&quot;&gt;&lt;b style=&quot;font-size: 22px;&quot;&gt;Taxonomical profiling&lt;/b&gt;&lt;br style=&quot;font-size: 22px;&quot;&gt;(MetaPhlAn)&lt;/font&gt;" style="rounded=1;whiteSpace=wrap;html=1;fontSize=22;strokeWidth=2;" parent="1" vertex="1">
          <mxGeometry x="1020" y="280" width="250" height="80" as="geometry" />
        </mxCell>
        <mxCell id="nyfK1TEQBVx0Vw7CGjJu-61" style="edgeStyle=orthogonalEdgeStyle;rounded=0;orthogonalLoop=1;jettySize=auto;html=1;exitX=1;exitY=0.5;exitDx=0;exitDy=0;entryX=0;entryY=0.5;entryDx=0;entryDy=0;fontSize=25;startArrow=none;strokeWidth=2;" parent="1" source="nyfK1TEQBVx0Vw7CGjJu-46" target="nyfK1TEQBVx0Vw7CGjJu-59" edge="1">
          <mxGeometry relative="1" as="geometry" />
        </mxCell>
        <mxCell id="DAwnzCCg3xPXXSGTNgWg-8" value="" style="edgeStyle=orthogonalEdgeStyle;rounded=0;orthogonalLoop=1;jettySize=auto;html=1;strokeWidth=2;" edge="1" parent="1" source="nyfK1TEQBVx0Vw7CGjJu-44" target="nyfK1TEQBVx0Vw7CGjJu-46">
          <mxGeometry relative="1" as="geometry" />
        </mxCell>
        <mxCell id="nyfK1TEQBVx0Vw7CGjJu-44" value="&lt;b style=&quot;font-size: 22px;&quot;&gt;&lt;font style=&quot;font-size: 22px;&quot;&gt;Bins&lt;/font&gt;&lt;/b&gt;" style="rounded=0;whiteSpace=wrap;html=1;fillColor=#f5f5f5;fontColor=#333333;strokeColor=#666666;fontSize=22;strokeWidth=2;" parent="1" vertex="1">
          <mxGeometry x="670" y="420" width="250" height="80" as="geometry" />
        </mxCell>
        <mxCell id="nyfK1TEQBVx0Vw7CGjJu-64" value="" style="edgeStyle=orthogonalEdgeStyle;rounded=0;orthogonalLoop=1;jettySize=auto;html=1;fontSize=55;strokeWidth=2;" parent="1" source="nyfK1TEQBVx0Vw7CGjJu-59" target="nyfK1TEQBVx0Vw7CGjJu-62" edge="1">
          <mxGeometry relative="1" as="geometry" />
        </mxCell>
        <mxCell id="nyfK1TEQBVx0Vw7CGjJu-59" value="&lt;b style=&quot;font-size: 22px;&quot;&gt;MAG taxonomical classification&lt;/b&gt;&lt;br style=&quot;font-size: 22px;&quot;&gt;(GTDB-tk)" style="rounded=1;whiteSpace=wrap;html=1;fontSize=22;strokeWidth=2;" parent="1" vertex="1">
          <mxGeometry x="1020" y="549.88" width="250" height="80" as="geometry" />
        </mxCell>
        <mxCell id="nyfK1TEQBVx0Vw7CGjJu-107" style="edgeStyle=orthogonalEdgeStyle;rounded=0;orthogonalLoop=1;jettySize=auto;html=1;exitX=1;exitY=0.5;exitDx=0;exitDy=0;entryX=0.5;entryY=0;entryDx=0;entryDy=0;fontSize=25;strokeWidth=2;" parent="1" source="nyfK1TEQBVx0Vw7CGjJu-62" target="nyfK1TEQBVx0Vw7CGjJu-106" edge="1">
          <mxGeometry relative="1" as="geometry" />
        </mxCell>
        <mxCell id="nyfK1TEQBVx0Vw7CGjJu-62" value="&lt;b style=&quot;font-size: 22px;&quot;&gt;&lt;font style=&quot;font-size: 22px;&quot;&gt;Abundance table &lt;br style=&quot;font-size: 22px;&quot;&gt;(.csv)&lt;/font&gt;&lt;/b&gt;" style="rounded=0;whiteSpace=wrap;html=1;fillColor=#f5f5f5;fontColor=#333333;strokeColor=#666666;fontSize=22;strokeWidth=2;" parent="1" vertex="1">
          <mxGeometry x="1020" y="420.00000000000006" width="250" height="80" as="geometry" />
        </mxCell>
        <mxCell id="nyfK1TEQBVx0Vw7CGjJu-46" value="&lt;b style=&quot;font-size: 22px;&quot;&gt;Bin quality control&lt;/b&gt; &lt;br style=&quot;font-size: 22px;&quot;&gt;(CheckM)" style="rounded=1;whiteSpace=wrap;html=1;fontSize=22;strokeWidth=2;" parent="1" vertex="1">
          <mxGeometry x="670" y="549.88" width="250" height="80" as="geometry" />
        </mxCell>
        <mxCell id="nyfK1TEQBVx0Vw7CGjJu-95" style="edgeStyle=orthogonalEdgeStyle;rounded=0;orthogonalLoop=1;jettySize=auto;html=1;exitX=0.5;exitY=1;exitDx=0;exitDy=0;entryX=0.5;entryY=0;entryDx=0;entryDy=0;fontSize=17;strokeWidth=2;" parent="1" source="nyfK1TEQBVx0Vw7CGjJu-69" target="nyfK1TEQBVx0Vw7CGjJu-77" edge="1">
          <mxGeometry relative="1" as="geometry" />
        </mxCell>
        <mxCell id="nyfK1TEQBVx0Vw7CGjJu-69" value="&lt;b style=&quot;font-size: 22px;&quot;&gt;Gene prediction&lt;/b&gt;&lt;br style=&quot;font-size: 22px;&quot;&gt;(Prodigal)" style="rounded=1;whiteSpace=wrap;html=1;fontSize=22;strokeWidth=2;" parent="1" vertex="1">
          <mxGeometry x="340" y="690" width="250" height="80" as="geometry" />
        </mxCell>
        <mxCell id="nyfK1TEQBVx0Vw7CGjJu-70" value="" style="shape=image;verticalLabelPosition=bottom;labelBackgroundColor=#ffffff;verticalAlign=top;aspect=fixed;imageAspect=0;image=https://www.docker.com/sites/default/files/d8/2019-07/vertical-logo-monochromatic.png;" parent="1" vertex="1">
          <mxGeometry x="1426.39" y="225" width="197.18" height="168.74" as="geometry" />
        </mxCell>
        <mxCell id="nyfK1TEQBVx0Vw7CGjJu-80" style="edgeStyle=orthogonalEdgeStyle;rounded=0;orthogonalLoop=1;jettySize=auto;html=1;exitX=0.5;exitY=1;exitDx=0;exitDy=0;entryX=0.5;entryY=0;entryDx=0;entryDy=0;fontSize=17;strokeWidth=2;" parent="1" source="nyfK1TEQBVx0Vw7CGjJu-72" target="nyfK1TEQBVx0Vw7CGjJu-78" edge="1">
          <mxGeometry relative="1" as="geometry" />
        </mxCell>
        <mxCell id="nyfK1TEQBVx0Vw7CGjJu-72" value="&lt;b style=&quot;font-size: 22px;&quot;&gt;Gene clustering&lt;/b&gt;&lt;br style=&quot;font-size: 22px;&quot;&gt;(CD-HIT)" style="rounded=1;whiteSpace=wrap;html=1;fontSize=22;perimeterSpacing=0;strokeWidth=2;" parent="1" vertex="1">
          <mxGeometry x="340" y="910" width="250" height="80" as="geometry" />
        </mxCell>
        <mxCell id="nyfK1TEQBVx0Vw7CGjJu-75" value="&lt;b style=&quot;font-size: 22px;&quot;&gt;Gene abundance quantification&lt;/b&gt;&lt;br style=&quot;font-size: 22px;&quot;&gt;(KMA)" style="rounded=1;whiteSpace=wrap;html=1;fontSize=22;strokeWidth=2;" parent="1" vertex="1">
          <mxGeometry x="45" y="1015" width="235" height="90" as="geometry" />
        </mxCell>
        <mxCell id="nyfK1TEQBVx0Vw7CGjJu-96" style="edgeStyle=orthogonalEdgeStyle;rounded=0;orthogonalLoop=1;jettySize=auto;html=1;exitX=0.5;exitY=1;exitDx=0;exitDy=0;entryX=0.5;entryY=0;entryDx=0;entryDy=0;fontSize=17;strokeWidth=2;" parent="1" source="nyfK1TEQBVx0Vw7CGjJu-77" target="nyfK1TEQBVx0Vw7CGjJu-72" edge="1">
          <mxGeometry relative="1" as="geometry" />
        </mxCell>
        <mxCell id="nyfK1TEQBVx0Vw7CGjJu-77" value="&lt;b style=&quot;font-size: 22px;&quot;&gt;&lt;font style=&quot;font-size: 22px;&quot;&gt;Nucleotide sequences&lt;br style=&quot;font-size: 22px;&quot;&gt;(.fna)&lt;/font&gt;&lt;/b&gt;" style="rounded=0;whiteSpace=wrap;html=1;fillColor=#f5f5f5;fontColor=#333333;strokeColor=#666666;fontSize=22;strokeWidth=2;" parent="1" vertex="1">
          <mxGeometry x="340" y="800" width="250" height="80" as="geometry" />
        </mxCell>
        <mxCell id="nyfK1TEQBVx0Vw7CGjJu-79" value="" style="edgeStyle=orthogonalEdgeStyle;rounded=0;orthogonalLoop=1;jettySize=auto;html=1;fontSize=17;strokeWidth=2;" parent="1" source="nyfK1TEQBVx0Vw7CGjJu-78" target="nyfK1TEQBVx0Vw7CGjJu-75" edge="1">
          <mxGeometry relative="1" as="geometry" />
        </mxCell>
        <mxCell id="nyfK1TEQBVx0Vw7CGjJu-83" value="" style="edgeStyle=orthogonalEdgeStyle;rounded=0;orthogonalLoop=1;jettySize=auto;html=1;fontSize=17;strokeWidth=2;" parent="1" source="nyfK1TEQBVx0Vw7CGjJu-78" target="nyfK1TEQBVx0Vw7CGjJu-82" edge="1">
          <mxGeometry relative="1" as="geometry" />
        </mxCell>
        <mxCell id="nyfK1TEQBVx0Vw7CGjJu-84" style="edgeStyle=orthogonalEdgeStyle;rounded=0;orthogonalLoop=1;jettySize=auto;html=1;exitX=1;exitY=0.5;exitDx=0;exitDy=0;entryX=0;entryY=0.5;entryDx=0;entryDy=0;fontSize=17;strokeWidth=2;" parent="1" source="nyfK1TEQBVx0Vw7CGjJu-78" target="nyfK1TEQBVx0Vw7CGjJu-81" edge="1">
          <mxGeometry relative="1" as="geometry" />
        </mxCell>
        <mxCell id="nyfK1TEQBVx0Vw7CGjJu-78" value="&lt;b style=&quot;font-size: 22px;&quot;&gt;&lt;font style=&quot;font-size: 22px;&quot;&gt;Non-redundant gene catalogue&amp;nbsp;&lt;/font&gt;&lt;/b&gt;" style="rounded=0;whiteSpace=wrap;html=1;fillColor=#f5f5f5;fontColor=#333333;strokeColor=#666666;fontSize=22;strokeWidth=2;" parent="1" vertex="1">
          <mxGeometry x="340" y="1020" width="250" height="80" as="geometry" />
        </mxCell>
        <mxCell id="nyfK1TEQBVx0Vw7CGjJu-90" style="edgeStyle=orthogonalEdgeStyle;rounded=0;orthogonalLoop=1;jettySize=auto;html=1;exitX=1;exitY=0.5;exitDx=0;exitDy=0;entryX=0;entryY=0.5;entryDx=0;entryDy=0;fontSize=17;strokeWidth=2;" parent="1" source="nyfK1TEQBVx0Vw7CGjJu-81" target="nyfK1TEQBVx0Vw7CGjJu-87" edge="1">
          <mxGeometry relative="1" as="geometry" />
        </mxCell>
        <mxCell id="nyfK1TEQBVx0Vw7CGjJu-81" value="&lt;b style=&quot;font-size: 22px;&quot;&gt;Functional annotation&lt;/b&gt;&lt;br style=&quot;font-size: 22px;&quot;&gt;(eggNOG-mapper)" style="rounded=1;whiteSpace=wrap;html=1;fontSize=22;strokeWidth=2;" parent="1" vertex="1">
          <mxGeometry x="670" y="690" width="250" height="90" as="geometry" />
        </mxCell>
        <mxCell id="nyfK1TEQBVx0Vw7CGjJu-89" style="edgeStyle=orthogonalEdgeStyle;rounded=0;orthogonalLoop=1;jettySize=auto;html=1;exitX=1;exitY=0.5;exitDx=0;exitDy=0;entryX=0;entryY=0.5;entryDx=0;entryDy=0;fontSize=17;strokeWidth=2;" parent="1" source="nyfK1TEQBVx0Vw7CGjJu-82" target="nyfK1TEQBVx0Vw7CGjJu-88" edge="1">
          <mxGeometry relative="1" as="geometry" />
        </mxCell>
        <mxCell id="nyfK1TEQBVx0Vw7CGjJu-82" value="&lt;b style=&quot;font-size: 22px;&quot;&gt;Functional annotation&lt;/b&gt;&lt;br style=&quot;font-size: 22px;&quot;&gt;(DeepFRI)" style="rounded=1;whiteSpace=wrap;html=1;fontSize=22;strokeWidth=2;" parent="1" vertex="1">
          <mxGeometry x="670" y="1015" width="250" height="90" as="geometry" />
        </mxCell>
        <mxCell id="nyfK1TEQBVx0Vw7CGjJu-111" style="edgeStyle=orthogonalEdgeStyle;rounded=0;orthogonalLoop=1;jettySize=auto;html=1;exitX=1;exitY=0.5;exitDx=0;exitDy=0;fontSize=25;endArrow=none;endFill=0;strokeWidth=2;" parent="1" source="nyfK1TEQBVx0Vw7CGjJu-87" edge="1">
          <mxGeometry relative="1" as="geometry">
            <mxPoint x="1502.5" y="735.1034482758621" as="targetPoint" />
          </mxGeometry>
        </mxCell>
        <mxCell id="nyfK1TEQBVx0Vw7CGjJu-87" value="&lt;b style=&quot;font-size: 22px;&quot;&gt;&lt;font style=&quot;font-size: 22px;&quot;&gt;Annotated genes&lt;br style=&quot;font-size: 22px;&quot;&gt;(.csv)&lt;/font&gt;&lt;/b&gt;" style="rounded=0;whiteSpace=wrap;html=1;fillColor=#f5f5f5;fontColor=#333333;strokeColor=#666666;fontSize=22;strokeWidth=2;" parent="1" vertex="1">
          <mxGeometry x="1020" y="695" width="250" height="80" as="geometry" />
        </mxCell>
        <mxCell id="nyfK1TEQBVx0Vw7CGjJu-108" style="edgeStyle=orthogonalEdgeStyle;rounded=0;orthogonalLoop=1;jettySize=auto;html=1;exitX=1;exitY=0.5;exitDx=0;exitDy=0;entryX=0.5;entryY=1;entryDx=0;entryDy=0;fontSize=25;strokeWidth=2;" parent="1" source="nyfK1TEQBVx0Vw7CGjJu-88" target="nyfK1TEQBVx0Vw7CGjJu-106" edge="1">
          <mxGeometry relative="1" as="geometry" />
        </mxCell>
        <mxCell id="nyfK1TEQBVx0Vw7CGjJu-88" value="&lt;b style=&quot;font-size: 22px;&quot;&gt;&lt;font style=&quot;font-size: 22px;&quot;&gt;Annotated genes&lt;br style=&quot;font-size: 22px;&quot;&gt;(.csv)&lt;/font&gt;&lt;/b&gt;" style="rounded=0;whiteSpace=wrap;html=1;fillColor=#f5f5f5;fontColor=#333333;strokeColor=#666666;fontSize=22;strokeWidth=2;" parent="1" vertex="1">
          <mxGeometry x="1020" y="1020" width="250" height="80" as="geometry" />
        </mxCell>
        <mxCell id="nyfK1TEQBVx0Vw7CGjJu-105" value="" style="rounded=1;whiteSpace=wrap;html=1;labelBackgroundColor=none;labelBorderColor=none;fontSize=25;textOpacity=20;opacity=60;" parent="1" vertex="1">
          <mxGeometry x="37.5" y="710" width="250" height="40" as="geometry" />
        </mxCell>
        <mxCell id="nyfK1TEQBVx0Vw7CGjJu-102" value="&lt;span&gt;Functional annotation&lt;/span&gt;" style="text;html=1;strokeColor=none;fillColor=none;align=center;verticalAlign=middle;whiteSpace=wrap;rounded=0;fontSize=25;labelBackgroundColor=none;" parent="1" vertex="1">
          <mxGeometry x="30" y="715" width="265" height="30" as="geometry" />
        </mxCell>
        <mxCell id="nyfK1TEQBVx0Vw7CGjJu-104" value="" style="rounded=1;whiteSpace=wrap;html=1;labelBackgroundColor=none;labelBorderColor=none;fontSize=25;textOpacity=20;opacity=60;" parent="1" vertex="1">
          <mxGeometry x="1020" y="190" width="250" height="40" as="geometry" />
        </mxCell>
        <mxCell id="nyfK1TEQBVx0Vw7CGjJu-103" value="Taxonomical analysis" style="text;html=1;strokeColor=none;fillColor=none;align=center;verticalAlign=middle;whiteSpace=wrap;rounded=0;labelBackgroundColor=none;labelBorderColor=none;fontSize=25;" parent="1" vertex="1">
          <mxGeometry x="1012.5" y="195" width="265" height="30" as="geometry" />
        </mxCell>
        <mxCell id="nyfK1TEQBVx0Vw7CGjJu-106" value="&lt;b style=&quot;font-size: 22px;&quot;&gt;&lt;font style=&quot;font-size: 22px;&quot;&gt;Master table&lt;br style=&quot;font-size: 22px;&quot;&gt;(.csv)&lt;/font&gt;&lt;/b&gt;" style="rounded=0;whiteSpace=wrap;html=1;fillColor=#f5f5f5;fontColor=#333333;strokeColor=#666666;fontSize=22;strokeWidth=2;" parent="1" vertex="1">
          <mxGeometry x="1377.18" y="620" width="250" height="80" as="geometry" />
        </mxCell>
        <mxCell id="KQoBbKr8loIZGkBwd2ff-1" value="&lt;b style=&quot;font-size: 17px;&quot;&gt;&lt;font style=&quot;font-size: 17px;&quot;&gt;Raw reads (.fastq.gz)&lt;/font&gt;&lt;/b&gt;" style="rounded=0;whiteSpace=wrap;html=1;fillColor=#f5f5f5;fontColor=#333333;strokeColor=#666666;fontSize=17;" parent="1" vertex="1">
          <mxGeometry x="15" y="150" width="250" height="80" as="geometry" />
        </mxCell>
        <mxCell id="KQoBbKr8loIZGkBwd2ff-2" value="&lt;font style=&quot;font-size: 14px;&quot;&gt;&lt;b style=&quot;font-size: 14px;&quot;&gt;Trimmomatic v0.39&lt;br style=&quot;font-size: 14px;&quot;&gt;&amp;nbsp;- trim adapters&lt;/b&gt;&lt;br style=&quot;font-size: 14px;&quot;&gt;- HEADCROP:15 &lt;br style=&quot;font-size: 14px;&quot;&gt;- SLIDINGWINDOW:4:15 &lt;br style=&quot;font-size: 14px;&quot;&gt;- MINLEN:50&lt;/font&gt;" style="rounded=1;whiteSpace=wrap;html=1;fontSize=14;align=left;spacingLeft=15;" parent="1" vertex="1">
          <mxGeometry x="25" y="310" width="230" height="100" as="geometry" />
        </mxCell>
        <mxCell id="KQoBbKr8loIZGkBwd2ff-3" value="&lt;b style=&quot;font-size: 17px;&quot;&gt;&lt;font style=&quot;font-size: 17px;&quot;&gt;Raw reads (.fastq.gz)&lt;/font&gt;&lt;/b&gt;" style="rounded=0;whiteSpace=wrap;html=1;fillColor=#f5f5f5;fontColor=#333333;strokeColor=#666666;fontSize=17;" parent="1" vertex="1">
          <mxGeometry x="15" y="150" width="250" height="80" as="geometry" />
        </mxCell>
        <mxCell id="KQoBbKr8loIZGkBwd2ff-4" value="&lt;font style=&quot;font-size: 14px;&quot;&gt;&lt;b style=&quot;font-size: 14px;&quot;&gt;Trimmomatic v0.39&lt;br style=&quot;font-size: 14px;&quot;&gt;&amp;nbsp;- trim adapters&lt;/b&gt;&lt;br style=&quot;font-size: 14px;&quot;&gt;- HEADCROP:15 &lt;br style=&quot;font-size: 14px;&quot;&gt;- SLIDINGWINDOW:4:15 &lt;br style=&quot;font-size: 14px;&quot;&gt;- MINLEN:50&lt;/font&gt;" style="rounded=1;whiteSpace=wrap;html=1;fontSize=14;align=left;spacingLeft=15;" parent="1" vertex="1">
          <mxGeometry x="25" y="310" width="230" height="100" as="geometry" />
        </mxCell>
        <mxCell id="KQoBbKr8loIZGkBwd2ff-6" value="&lt;b style=&quot;font-size: 17px;&quot;&gt;&lt;font style=&quot;font-size: 17px;&quot;&gt;Raw reads (.fastq.gz)&lt;/font&gt;&lt;/b&gt;" style="rounded=0;whiteSpace=wrap;html=1;fillColor=#f5f5f5;fontColor=#333333;strokeColor=#666666;fontSize=17;" parent="1" vertex="1">
          <mxGeometry x="15" y="150" width="250" height="80" as="geometry" />
        </mxCell>
        <mxCell id="KQoBbKr8loIZGkBwd2ff-7" value="&lt;font style=&quot;font-size: 14px;&quot;&gt;&lt;b style=&quot;font-size: 14px;&quot;&gt;Trimmomatic v0.39&lt;br style=&quot;font-size: 14px;&quot;&gt;&amp;nbsp;- trim adapters&lt;/b&gt;&lt;br style=&quot;font-size: 14px;&quot;&gt;- HEADCROP:15 &lt;br style=&quot;font-size: 14px;&quot;&gt;- SLIDINGWINDOW:4:15 &lt;br style=&quot;font-size: 14px;&quot;&gt;- MINLEN:50&lt;/font&gt;" style="rounded=1;whiteSpace=wrap;html=1;fontSize=14;align=left;spacingLeft=15;" parent="1" vertex="1">
          <mxGeometry x="25" y="310" width="230" height="100" as="geometry" />
        </mxCell>
        <mxCell id="KQoBbKr8loIZGkBwd2ff-9" value="&lt;b style=&quot;font-size: 17px;&quot;&gt;&lt;font style=&quot;font-size: 17px;&quot;&gt;Raw reads (.fastq.gz)&lt;/font&gt;&lt;/b&gt;" style="rounded=0;whiteSpace=wrap;html=1;fillColor=#f5f5f5;fontColor=#333333;strokeColor=#666666;fontSize=17;" parent="1" vertex="1">
          <mxGeometry x="15" y="150" width="250" height="80" as="geometry" />
        </mxCell>
        <mxCell id="KQoBbKr8loIZGkBwd2ff-10" value="&lt;font style=&quot;font-size: 14px;&quot;&gt;&lt;b style=&quot;font-size: 14px;&quot;&gt;Trimmomatic v0.39&lt;br style=&quot;font-size: 14px;&quot;&gt;&amp;nbsp;- trim adapters&lt;/b&gt;&lt;br style=&quot;font-size: 14px;&quot;&gt;- HEADCROP:15 &lt;br style=&quot;font-size: 14px;&quot;&gt;- SLIDINGWINDOW:4:15 &lt;br style=&quot;font-size: 14px;&quot;&gt;- MINLEN:50&lt;/font&gt;" style="rounded=1;whiteSpace=wrap;html=1;fontSize=14;align=left;spacingLeft=15;" parent="1" vertex="1">
          <mxGeometry x="25" y="310" width="230" height="100" as="geometry" />
        </mxCell>
        <mxCell id="KQoBbKr8loIZGkBwd2ff-12" value="&lt;p style=&quot;line-height: 1.2; font-size: 14px;&quot;&gt;&lt;/p&gt;&lt;div style=&quot;font-size: 14px;&quot;&gt;&lt;b style=&quot;font-size: 14px;&quot;&gt;&lt;font style=&quot;font-size: 14px;&quot;&gt;Bowtie2 v2.4.5&lt;/font&gt;&lt;/b&gt;&lt;/div&gt;&lt;div style=&quot;font-size: 14px;&quot;&gt;&lt;span style=&quot;font-weight: bold; font-size: 14px;&quot;&gt;- human genome decontamination&lt;/span&gt;&lt;/div&gt;&lt;font style=&quot;font-size: 14px;&quot;&gt;&lt;div style=&quot;font-size: 14px;&quot;&gt;- GRCh 38&lt;/div&gt;&lt;/font&gt;&lt;p style=&quot;font-size: 14px;&quot;&gt;&lt;/p&gt;" style="rounded=1;whiteSpace=wrap;html=1;fontSize=14;spacingLeft=15;align=left;" parent="1" vertex="1">
          <mxGeometry x="25" y="540" width="230" height="72.46" as="geometry" />
        </mxCell>
        <mxCell id="KQoBbKr8loIZGkBwd2ff-13" value="&lt;p style=&quot;line-height: 1.2; font-size: 14px;&quot;&gt;&lt;/p&gt;&lt;div style=&quot;font-size: 14px;&quot;&gt;&lt;b style=&quot;font-size: 14px;&quot;&gt;&lt;font style=&quot;font-size: 14px;&quot;&gt;Bowtie2 v2.4.5&lt;/font&gt;&lt;/b&gt;&lt;/div&gt;&lt;div style=&quot;font-size: 14px;&quot;&gt;&lt;span style=&quot;font-weight: bold; font-size: 14px;&quot;&gt;- human genome decontamination&lt;/span&gt;&lt;/div&gt;&lt;font style=&quot;font-size: 14px;&quot;&gt;&lt;div style=&quot;font-size: 14px;&quot;&gt;- GRCh 38&lt;/div&gt;&lt;/font&gt;&lt;p style=&quot;font-size: 14px;&quot;&gt;&lt;/p&gt;" style="rounded=1;whiteSpace=wrap;html=1;fontSize=14;spacingLeft=15;align=left;" parent="1" vertex="1">
          <mxGeometry x="25" y="540" width="230" height="72.46" as="geometry" />
        </mxCell>
        <mxCell id="KQoBbKr8loIZGkBwd2ff-14" value="&lt;p style=&quot;line-height: 1.2; font-size: 14px;&quot;&gt;&lt;/p&gt;&lt;div style=&quot;font-size: 14px;&quot;&gt;&lt;b style=&quot;font-size: 14px;&quot;&gt;&lt;font style=&quot;font-size: 14px;&quot;&gt;Bowtie2 v2.4.5&lt;/font&gt;&lt;/b&gt;&lt;/div&gt;&lt;div style=&quot;font-size: 14px;&quot;&gt;&lt;span style=&quot;font-weight: bold; font-size: 14px;&quot;&gt;- human genome decontamination&lt;/span&gt;&lt;/div&gt;&lt;font style=&quot;font-size: 14px;&quot;&gt;&lt;div style=&quot;font-size: 14px;&quot;&gt;- GRCh 38&lt;/div&gt;&lt;/font&gt;&lt;p style=&quot;font-size: 14px;&quot;&gt;&lt;/p&gt;" style="rounded=1;whiteSpace=wrap;html=1;fontSize=14;spacingLeft=15;align=left;" parent="1" vertex="1">
          <mxGeometry x="25" y="540" width="230" height="72.46" as="geometry" />
        </mxCell>
        <mxCell id="KQoBbKr8loIZGkBwd2ff-15" value="&lt;p style=&quot;line-height: 1.2; font-size: 14px;&quot;&gt;&lt;/p&gt;&lt;div style=&quot;font-size: 14px;&quot;&gt;&lt;b style=&quot;font-size: 14px;&quot;&gt;&lt;font style=&quot;font-size: 14px;&quot;&gt;Bowtie2 v2.4.5&lt;/font&gt;&lt;/b&gt;&lt;/div&gt;&lt;div style=&quot;font-size: 14px;&quot;&gt;&lt;span style=&quot;font-weight: bold; font-size: 14px;&quot;&gt;- human genome decontamination&lt;/span&gt;&lt;/div&gt;&lt;font style=&quot;font-size: 14px;&quot;&gt;&lt;div style=&quot;font-size: 14px;&quot;&gt;- GRCh 38&lt;/div&gt;&lt;/font&gt;&lt;p style=&quot;font-size: 14px;&quot;&gt;&lt;/p&gt;" style="rounded=1;whiteSpace=wrap;html=1;fontSize=14;spacingLeft=15;align=left;" parent="1" vertex="1">
          <mxGeometry x="25" y="540" width="230" height="72.46" as="geometry" />
        </mxCell>
        <mxCell id="TrLHyc31slo14D79eK2h-3" value="" style="edgeStyle=orthogonalEdgeStyle;rounded=0;orthogonalLoop=1;jettySize=auto;html=1;fontSize=17;strokeWidth=2;endArrow=none;endFill=0;" parent="1" source="KQoBbKr8loIZGkBwd2ff-18" edge="1">
          <mxGeometry relative="1" as="geometry">
            <mxPoint x="140" y="630" as="targetPoint" />
          </mxGeometry>
        </mxCell>
        <mxCell id="KQoBbKr8loIZGkBwd2ff-16" value="&lt;font style=&quot;font-size: 17px;&quot;&gt;&lt;b style=&quot;line-height: 1; font-size: 17px;&quot;&gt;Tandem Repeats Finder&amp;nbsp;&lt;br style=&quot;font-size: 17px;&quot;&gt;- trim repetitive sequences&lt;/b&gt;&lt;/font&gt;" style="rounded=1;whiteSpace=wrap;html=1;fontSize=17;align=left;spacingLeft=5;spacing=2;strokeWidth=2;spacingRight=-1;" parent="1" vertex="1">
          <mxGeometry x="25" y="440" width="230" height="60" as="geometry" />
        </mxCell>
        <mxCell id="DAwnzCCg3xPXXSGTNgWg-9" style="edgeStyle=orthogonalEdgeStyle;rounded=0;orthogonalLoop=1;jettySize=auto;html=1;exitX=0.5;exitY=1;exitDx=0;exitDy=0;entryX=0;entryY=0.5;entryDx=0;entryDy=0;strokeWidth=2;" edge="1" parent="1" source="KQoBbKr8loIZGkBwd2ff-17" target="KQoBbKr8loIZGkBwd2ff-26">
          <mxGeometry relative="1" as="geometry">
            <Array as="points">
              <mxPoint x="140" y="650" />
              <mxPoint x="298" y="650" />
              <mxPoint x="298" y="190" />
            </Array>
          </mxGeometry>
        </mxCell>
        <mxCell id="KQoBbKr8loIZGkBwd2ff-17" value="&lt;p style=&quot;line-height: 1.2; font-size: 17px;&quot;&gt;&lt;/p&gt;&lt;div style=&quot;font-size: 17px;&quot;&gt;&lt;b style=&quot;font-size: 17px;&quot;&gt;&lt;font style=&quot;font-size: 17px;&quot;&gt;Bowtie2&amp;nbsp;&lt;/font&gt;&lt;/b&gt;&lt;/div&gt;&lt;div style=&quot;font-size: 17px;&quot;&gt;&lt;span style=&quot;font-weight: bold; font-size: 17px;&quot;&gt;- human genome decontamination&lt;/span&gt;&lt;/div&gt;&lt;font style=&quot;font-size: 17px;&quot;&gt;&lt;div style=&quot;font-size: 17px;&quot;&gt;- GRCh 38&lt;/div&gt;&lt;/font&gt;&lt;p style=&quot;font-size: 17px;&quot;&gt;&lt;/p&gt;" style="rounded=1;whiteSpace=wrap;html=1;fontSize=17;spacingLeft=5;align=left;strokeWidth=2;" parent="1" vertex="1">
          <mxGeometry x="25" y="520" width="230" height="92.46" as="geometry" />
        </mxCell>
        <mxCell id="KQoBbKr8loIZGkBwd2ff-18" value="&lt;font style=&quot;font-size: 17px;&quot;&gt;&lt;b style=&quot;font-size: 17px;&quot;&gt;Trimmomatic&amp;nbsp;&lt;br style=&quot;font-size: 17px;&quot;&gt;&amp;nbsp;- trim adapters&lt;/b&gt;&lt;br style=&quot;font-size: 17px;&quot;&gt;- HEADCROP:15 &lt;br style=&quot;font-size: 17px;&quot;&gt;- SLIDINGWINDOW:4:15 &lt;br style=&quot;font-size: 17px;&quot;&gt;- MINLEN:50&lt;/font&gt;" style="rounded=1;whiteSpace=wrap;html=1;fontSize=17;align=left;spacingLeft=5;strokeWidth=2;" parent="1" vertex="1">
          <mxGeometry x="25" y="310" width="230" height="110" as="geometry" />
        </mxCell>
        <mxCell id="KQoBbKr8loIZGkBwd2ff-19" value="&lt;b style=&quot;font-size: 17px;&quot;&gt;&lt;font style=&quot;font-size: 17px;&quot;&gt;Raw reads (.fastq.gz)&lt;/font&gt;&lt;/b&gt;" style="rounded=0;whiteSpace=wrap;html=1;fillColor=#f5f5f5;fontColor=#333333;strokeColor=#666666;fontSize=17;" parent="1" vertex="1">
          <mxGeometry x="15" y="150" width="250" height="80" as="geometry" />
        </mxCell>
        <mxCell id="KQoBbKr8loIZGkBwd2ff-20" value="&lt;b style=&quot;font-size: 17px;&quot;&gt;&lt;font style=&quot;font-size: 17px;&quot;&gt;Raw reads (.fastq.gz)&lt;/font&gt;&lt;/b&gt;" style="rounded=0;whiteSpace=wrap;html=1;fillColor=#f5f5f5;fontColor=#333333;strokeColor=#666666;fontSize=17;" parent="1" vertex="1">
          <mxGeometry x="15" y="150" width="250" height="80" as="geometry" />
        </mxCell>
        <mxCell id="KQoBbKr8loIZGkBwd2ff-22" value="&lt;b style=&quot;font-size: 17px;&quot;&gt;&lt;font style=&quot;font-size: 17px;&quot;&gt;Raw reads (.fastq.gz)&lt;/font&gt;&lt;/b&gt;" style="rounded=0;whiteSpace=wrap;html=1;fillColor=#f5f5f5;fontColor=#333333;strokeColor=#666666;fontSize=17;" parent="1" vertex="1">
          <mxGeometry x="15" y="150" width="250" height="80" as="geometry" />
        </mxCell>
        <mxCell id="KQoBbKr8loIZGkBwd2ff-25" value="&lt;b style=&quot;font-size: 22px;&quot;&gt;&lt;font style=&quot;font-size: 22px;&quot;&gt;Raw reads &lt;br style=&quot;font-size: 22px;&quot;&gt;(.fastq.gz)&lt;/font&gt;&lt;/b&gt;" style="rounded=0;whiteSpace=wrap;html=1;fillColor=#f5f5f5;fontColor=#333333;strokeColor=#666666;fontSize=22;strokeWidth=2;" parent="1" vertex="1">
          <mxGeometry x="15" y="150" width="250" height="80" as="geometry" />
        </mxCell>
        <mxCell id="DAwnzCCg3xPXXSGTNgWg-10" style="edgeStyle=orthogonalEdgeStyle;rounded=0;orthogonalLoop=1;jettySize=auto;html=1;strokeWidth=2;" edge="1" parent="1" source="KQoBbKr8loIZGkBwd2ff-26" target="nyfK1TEQBVx0Vw7CGjJu-35">
          <mxGeometry relative="1" as="geometry">
            <Array as="points">
              <mxPoint x="465" y="260" />
              <mxPoint x="1145" y="260" />
            </Array>
          </mxGeometry>
        </mxCell>
        <mxCell id="KQoBbKr8loIZGkBwd2ff-26" value="&lt;b style=&quot;font-size: 22px;&quot;&gt;&lt;font style=&quot;font-size: 22px;&quot;&gt;High quality reads &lt;br style=&quot;font-size: 22px;&quot;&gt;(.fastq.gz)&lt;/font&gt;&lt;/b&gt;" style="rounded=0;whiteSpace=wrap;html=1;fillColor=#f5f5f5;fontColor=#333333;strokeColor=#666666;fontSize=22;strokeWidth=2;" parent="1" vertex="1">
          <mxGeometry x="340" y="150" width="250" height="80" as="geometry" />
        </mxCell>
        <mxCell id="DAwnzCCg3xPXXSGTNgWg-5" style="edgeStyle=orthogonalEdgeStyle;rounded=0;orthogonalLoop=1;jettySize=auto;html=1;strokeWidth=2;" edge="1" parent="1" source="KQoBbKr8loIZGkBwd2ff-27" target="nyfK1TEQBVx0Vw7CGjJu-69">
          <mxGeometry relative="1" as="geometry" />
        </mxCell>
        <mxCell id="DAwnzCCg3xPXXSGTNgWg-6" style="edgeStyle=orthogonalEdgeStyle;rounded=0;orthogonalLoop=1;jettySize=auto;html=1;exitX=1;exitY=0.5;exitDx=0;exitDy=0;entryX=0;entryY=0.5;entryDx=0;entryDy=0;strokeWidth=2;" edge="1" parent="1" source="KQoBbKr8loIZGkBwd2ff-27" target="nyfK1TEQBVx0Vw7CGjJu-20">
          <mxGeometry relative="1" as="geometry" />
        </mxCell>
        <mxCell id="KQoBbKr8loIZGkBwd2ff-27" value="&lt;b style=&quot;font-size: 22px;&quot;&gt;&lt;font style=&quot;font-size: 22px;&quot;&gt;Contigs &lt;br style=&quot;font-size: 22px;&quot;&gt;(.fa)&lt;/font&gt;&lt;/b&gt;" style="rounded=0;whiteSpace=wrap;html=1;fillColor=#f5f5f5;fontColor=#333333;strokeColor=#666666;fontSize=22;strokeWidth=2;" parent="1" vertex="1">
          <mxGeometry x="340" y="420.00000000000006" width="250" height="80" as="geometry" />
        </mxCell>
      </root>
    </mxGraphModel>
  </diagram>
</mxfile>
